SplineFontDB: 3.2
FontName: Arcon-Bold
FullName: Arcon Bold
FamilyName: Arcon
Weight: Bold
Copyright: Copyright (c) 2010-2015 by Martin Zarth. All rights reserved.
Version: 001.131
ItalicAngle: 0
UnderlinePosition: -100
UnderlineWidth: 50
Ascent: 800
Descent: 200
InvalidEm: 0
sfntRevision: 0x00012189
LayerCount: 2
Layer: 0 0 "Back" 1
Layer: 1 0 "Fore" 0
XUID: [1021 736 -1422047946 30448]
StyleMap: 0x0040
FSType: 8
OS2Version: 3
OS2_WeightWidthSlopeOnly: 0
OS2_UseTypoMetrics: 0
CreationTime: 1432663817
ModificationTime: 1659614223
PfmFamily: 81
TTFWeight: 400
TTFWidth: 5
LineGap: 0
VLineGap: 0
Panose: 0 0 5 0 0 0 0 0 0 0
OS2TypoAscent: 800
OS2TypoAOffset: 0
OS2TypoDescent: -200
OS2TypoDOffset: 0
OS2TypoLinegap: 200
OS2WinAscent: 1000
OS2WinAOffset: 0
OS2WinDescent: 200
OS2WinDOffset: 0
HheadAscent: 1000
HheadAOffset: 0
HheadDescent: -200
HheadDOffset: 0
OS2SubXSize: 650
OS2SubYSize: 600
OS2SubXOff: 0
OS2SubYOff: 75
OS2SupXSize: 650
OS2SupYSize: 600
OS2SupXOff: 0
OS2SupYOff: 350
OS2StrikeYSize: 50
OS2StrikeYPos: 264
OS2CapHeight: 714
OS2XHeight: 440
OS2Vendor: 'UKWN'
OS2CodePages: 20000093.00000000
OS2UnicodeRanges: 00000007.00000000.00000000.00000000
Lookup: 6 0 0 "'locl' Localized Forms in Latin lookup 0" { "'locl' Localized Forms in Latin lookup 0 contextual 0"  "'locl' Localized Forms in Latin lookup 0 contextual 1"  } ['locl' ('latn' <'CAT ' > ) ]
Lookup: 4 0 0 "'frac' Diagonal Fractions in Latin lookup 1" { "'frac' Diagonal Fractions in Latin lookup 1 subtable"  } ['frac' ('DFLT' <'dflt' > 'latn' <'CAT ' 'dflt' > ) ]
Lookup: 4 0 0 "'dlig' Discretionary Ligatures in Latin lookup 2" { "'dlig' Discretionary Ligatures in Latin lookup 2 subtable"  } ['dlig' ('DFLT' <'dflt' > 'latn' <'CAT ' 'dflt' > ) ]
Lookup: 4 0 1 "'liga' Standard Ligatures in Latin lookup 3" { "'liga' Standard Ligatures in Latin lookup 3 subtable"  } ['liga' ('DFLT' <'dflt' > 'latn' <'CAT ' 'dflt' > ) ]

StartChar: .notdef
Encoding: 65536 -1 0
Width: 500
GlyphClass: 1
Flags: MW
LayerCount: 2
Fore
SplineSet
-20 -20 m 1
 -20 720 l 1
 520 720 l 1
 520 -20 l 1
 -20 -20 l 1
382.631194942 630 m 1
 117.368805058 630 l 1
 250 431.053207587 l 1
 382.631194942 630 l 1
430 161.053207587 m 1
 430 538.946792413 l 1
 304.035471724 350 l 1
 430 161.053207587 l 1
382.631194942 70 m 1
 250 268.946792413 l 1
 117.368805058 70 l 1
 382.631194942 70 l 1
70 161.053207587 m 1
 195.964528276 350 l 1
 70 538.946792413 l 1
 70 161.053207587 l 1
EndSplineSet
Validated: 524289
EndChar

StartChar: A
Encoding: 65 65 1
Width: 821
GlyphClass: 2
Flags: HW
LayerCount: 2
Fore
SplineSet
20 10 m 1
 0 10 l 1
 0 13.64453125 2.177734375 19.5048828125 43.65625 104.470703125 c 0
 76.16015625 171.053710938 123.378711711 266.138671875 174.73395383 361.221679688 c 0
 338.315389154 664.44921875 352.694991508 692.759765625 358.319335938 705.5234375 c 1
 358.319335938 695.5234375 358.319335938 704 358.319335938 714 c 1
 473.6015625 714 l 1
 473.6015625 704 473.6015625 694 473.6015625 704 c 1
 473.6015625 694.280273438 475.993719328 690.7421875 475.993719328 700.360351562 c 1
 492.971210257 665.619140625 575.163757389 513.23828125 657.188938824 361.200195312 c 0
 745.911132812 190.977539062 824.561523438 31.837890625 830.953125 14.5947265625 c 0
 831.344726562 13.537109375 831.922851562 13.4931640625 831.922851562 10 c 1
 811.922851562 10 l 1
 811.922851562 20 814.83203125 13.642578125 814.83203125 3.642578125 c 1
 810.190429688 5.4541015625 790.453125 7.5 771.459960938 7.5 c 0
 752.6953125 7.5 733.196289062 5.61328125 728.3203125 3.9111328125 c 1
 728.3203125 13.9111328125 730.998046875 20 730.998046875 10 c 1
 710.931022675 10 l 1
 710.931022675 19.62109375 706.947997059 26.9658203125 706.947997059 17.6337890625 c 1
 684.629228749 63.357421875 590.708165073 231.861328125 572.765174051 264 c 1
 259.156630174 264 l 1
 238.039158309 226.181640625 132.412000152 36.5224609375 121.331166331 9.7529296875 c 1
 121.36991783 9.9013671875 120.991828887 10 120.991828887 10 c 1
 100.924804688 10 l 1
 100.924804688 20 103.833984375 13.642578125 103.833984375 3.642578125 c 1
 99.1923828125 5.4541015625 79.455078125 7.5 60.462890625 7.5 c 0
 41.697265625 7.5 22.1982421875 5.61328125 17.322265625 3.9111328125 c 1
 17.322265625 13.9111328125 20 20 20 10 c 1
317.363746731 374 m 1
 514.676515595 374 l 1
 416.403320312 577.998046875 l 1
 317.363746731 374 l 1
EndSplineSet
Validated: 524293
EndChar

StartChar: Aacute
Encoding: 193 193 2
Width: 821
GlyphClass: 2
Flags: HW
LayerCount: 2
Fore
SplineSet
539.259018472 939 m 1
 561.091180612 939 l 1
 561.091180612 935.213867188 561.091180612 932.224609375 537.237837837 903.586914062 c 0
 533.976871822 899.671875 428.03125 771.563476562 412.010742188 764.395507812 c 0
 404.438476562 758.655273438 383.087890625 756.5 355.245987759 756.5 c 0
 294.086039193 756.5 288.171736142 765.204101562 288.171736142 774 c 1
 310.003914672 774 l 1
 306.027643875 777.939453125 301.252920846 781.147460938 297.896010192 785.655273438 c 1
 324.136199378 811.989257812 408.026367188 922.526367188 416.829101562 940.438476562 c 1
 416.829101562 940.4375 416.706054688 939 416.706054688 939 c 1
 436.706054688 939 l 1
 436.706054688 929 433.90625 935.517578125 433.90625 945.517578125 c 1
 440.075195312 943.442382812 463.0625 941.5 486.292572767 941.5 c 0
 490.671797477 941.5 528.482586487 941.6171875 542.645775265 945.532226562 c 1
 542.645775265 935.532226562 539.259018472 929 539.259018472 939 c 1
20 10 m 1
 0 10 l 1
 0 13.64453125 2.177734375 19.5048828125 43.65625 104.470703125 c 0
 76.16015625 171.053710938 123.378711711 266.138671875 174.73395383 361.221679688 c 0
 338.315389154 664.44921875 352.694991508 692.759765625 358.319335938 705.5234375 c 1
 358.319335938 695.5234375 358.319335938 704 358.319335938 714 c 1
 473.6015625 714 l 1
 473.6015625 704 473.6015625 694 473.6015625 704 c 1
 473.6015625 694.280273438 475.993719328 690.7421875 475.993719328 700.360351562 c 1
 492.971210257 665.619140625 575.163757389 513.23828125 657.188938824 361.200195312 c 0
 745.911132812 190.977539062 824.561523438 31.837890625 830.953125 14.5947265625 c 0
 831.344726562 13.537109375 831.922851562 13.4931640625 831.922851562 10 c 1
 811.922851562 10 l 1
 811.922851562 20 814.83203125 13.642578125 814.83203125 3.642578125 c 1
 810.190429688 5.4541015625 790.453125 7.5 771.459960938 7.5 c 0
 752.6953125 7.5 733.196289062 5.61328125 728.3203125 3.9111328125 c 1
 728.3203125 13.9111328125 730.998046875 20 730.998046875 10 c 1
 710.931022675 10 l 1
 710.931022675 19.62109375 706.947997059 26.9658203125 706.947997059 17.6337890625 c 1
 684.629228749 63.357421875 590.708165073 231.861328125 572.765174051 264 c 1
 259.156630174 264 l 1
 238.039158309 226.181640625 132.412000152 36.5224609375 121.331166331 9.7529296875 c 1
 121.36991783 9.9013671875 120.991828887 10 120.991828887 10 c 1
 100.924804688 10 l 1
 100.924804688 20 103.833984375 13.642578125 103.833984375 3.642578125 c 1
 99.1923828125 5.4541015625 79.455078125 7.5 60.462890625 7.5 c 0
 41.697265625 7.5 22.1982421875 5.61328125 17.322265625 3.9111328125 c 1
 17.322265625 13.9111328125 20 20 20 10 c 1
317.363746731 374 m 1
 514.676515595 374 l 1
 416.403320312 577.998046875 l 1
 317.363746731 374 l 1
EndSplineSet
Validated: 524293
EndChar

StartChar: Abreve
Encoding: 258 258 3
Width: 821
GlyphClass: 2
Flags: HW
LayerCount: 2
Fore
SplineSet
342.321508633 908.665039062 m 1
 342.321508633 898.665039062 335.453113795 893.216796875 335.453113795 903.216796875 c 1
 335.453113795 893.216796875 349.0204056 893.881835938 349.0204056 903.881835938 c 1
 349.0204056 893.881835938 342.321508633 898.665039062 342.321508633 908.665039062 c 1
352.673671021 904.061523438 m 1
 352.673671021 894.061523438 353.41242589 894.09765625 353.41242589 904.09765625 c 1
 354.688457028 893.09375 359.727539062 860 416.479492188 860 c 0
 448.763671875 860 472.573242188 871.61328125 476.248498955 904.09765625 c 1
 476.248498955 894.09765625 476.989385316 894.061523438 476.989385316 904.061523438 c 1
 477.114110071 906.227539062 477.227108566 909.146484375 477.227108566 912 c 2
 477.227108566 902 477.227108566 912 477.227108566 922 c 1
 590.87161428 922 l 1
 593.6347473 897.21875 593.6347473 897.21875 593.6347473 890.5625 c 0
 593.6347473 810.8671875 514.171220436 761 416.479492188 761 c 0
 317.921277462 761 238.288193069 810.8046875 238.288193069 890.567382812 c 0
 238.288193069 897.228515625 238.337230189 897.663085938 241.052394188 922 c 1
 352.432749519 922 l 1
 352.432749519 912 352.432749519 902 352.432749519 912 c 2
 352.432749519 909.154296875 352.548946173 906.228515625 352.673671021 904.061523438 c 1
487.339407885 908.665039062 m 1
 487.339407885 898.665039062 480.852654632 893.872070312 480.852654632 903.872070312 c 1
 480.852654632 893.872070312 494.222721896 893.216796875 494.222721896 903.216796875 c 1
 494.222721896 893.216796875 487.339407885 898.665039062 487.339407885 908.665039062 c 1
20 10 m 1
 0 10 l 1
 0 13.64453125 2.177734375 19.5048828125 43.65625 104.470703125 c 0
 76.16015625 171.053710938 123.378711711 266.138671875 174.73395383 361.221679688 c 0
 338.315389154 664.44921875 352.694991508 692.759765625 358.319335938 705.5234375 c 1
 358.319335938 695.5234375 358.319335938 704 358.319335938 714 c 1
 473.6015625 714 l 1
 473.6015625 704 473.6015625 694 473.6015625 704 c 1
 473.6015625 694.280273438 475.993719328 690.7421875 475.993719328 700.360351562 c 1
 492.971210257 665.619140625 575.163757389 513.23828125 657.188938824 361.200195312 c 0
 745.911132812 190.977539062 824.561523438 31.837890625 830.953125 14.5947265625 c 0
 831.344726562 13.537109375 831.922851562 13.4931640625 831.922851562 10 c 1
 811.922851562 10 l 1
 811.922851562 20 814.83203125 13.642578125 814.83203125 3.642578125 c 1
 810.190429688 5.4541015625 790.453125 7.5 771.459960938 7.5 c 0
 752.6953125 7.5 733.196289062 5.61328125 728.3203125 3.9111328125 c 1
 728.3203125 13.9111328125 730.998046875 20 730.998046875 10 c 1
 710.931022675 10 l 1
 710.931022675 19.62109375 706.947997059 26.9658203125 706.947997059 17.6337890625 c 1
 684.629228749 63.357421875 590.708165073 231.861328125 572.765174051 264 c 1
 259.156630174 264 l 1
 238.039158309 226.181640625 132.412000152 36.5224609375 121.331166331 9.7529296875 c 1
 121.36991783 9.9013671875 120.991828887 10 120.991828887 10 c 1
 100.924804688 10 l 1
 100.924804688 20 103.833984375 13.642578125 103.833984375 3.642578125 c 1
 99.1923828125 5.4541015625 79.455078125 7.5 60.462890625 7.5 c 0
 41.697265625 7.5 22.1982421875 5.61328125 17.322265625 3.9111328125 c 1
 17.322265625 13.9111328125 20 20 20 10 c 1
317.363746731 374 m 1
 514.676515595 374 l 1
 416.403320312 577.998046875 l 1
 317.363746731 374 l 1
EndSplineSet
Validated: 524293
EndChar

StartChar: Acircumflex
Encoding: 194 194 4
Width: 821
GlyphClass: 2
Flags: HW
LayerCount: 2
Fore
SplineSet
317.363746731 374 m 1
 514.676515595 374 l 1
 416.403320312 577.998046875 l 1
 317.363746731 374 l 1
20 10 m 1
 0 10 l 1
 0 13.64453125 2.177734375 19.5048828125 43.65625 104.470703125 c 0
 76.16015625 171.053710938 123.378711711 266.138671875 174.73395383 361.221679688 c 0
 338.315389154 664.44921875 352.694991508 692.759765625 358.319335938 705.5234375 c 1
 358.319335938 695.5234375 358.319335938 704 358.319335938 714 c 1
 473.6015625 714 l 1
 473.6015625 704 473.6015625 694 473.6015625 704 c 1
 473.6015625 694.280273438 475.993719328 690.7421875 475.993719328 700.360351562 c 1
 492.971210257 665.619140625 575.163757389 513.23828125 657.188938824 361.200195312 c 0
 745.911132812 190.977539062 824.561523438 31.837890625 830.953125 14.5947265625 c 0
 831.344726562 13.537109375 831.922851562 13.4931640625 831.922851562 10 c 1
 811.922851562 10 l 1
 811.922851562 20 814.83203125 13.642578125 814.83203125 3.642578125 c 1
 810.190429688 5.4541015625 790.453125 7.5 771.459960938 7.5 c 0
 752.6953125 7.5 733.196289062 5.61328125 728.3203125 3.9111328125 c 1
 728.3203125 13.9111328125 730.998046875 20 730.998046875 10 c 1
 710.931022675 10 l 1
 710.931022675 19.62109375 706.947997059 26.9658203125 706.947997059 17.6337890625 c 2
 684.629228749 63.357421875 590.708165073 231.861328125 572.765174051 264 c 1
 259.156630174 264 l 1
 238.039158309 226.181640625 132.412000152 36.5224609375 121.331166331 9.7529296875 c 1
 121.36991783 9.9013671875 120.991828887 10 120.991828887 10 c 1
 100.924804688 10 l 1
 100.924804688 20 103.833984375 13.642578125 103.833984375 3.642578125 c 1
 99.1923828125 5.4541015625 79.455078125 7.5 60.462890625 7.5 c 0
 41.697265625 7.5 22.1982421875 5.61328125 17.322265625 3.9111328125 c 1
 17.322265625 13.9111328125 20 20 20 10 c 1
399.43359375 950.5 m 1
 399.43359375 940.5 395.282226562 938 395.282226562 948 c 1
 403.51953125 948 l 1
 403.51953125 938 399.43359375 940.5 399.43359375 950.5 c 1
434.561523438 950.5 m 1
 434.561523438 940.5 430.41015625 938 430.41015625 948 c 1
 438.647460938 948 l 1
 438.647460938 938 434.561523438 940.5 434.561523438 950.5 c 1
263.784297263 793.916015625 m 0
 262.594614097 795.7578125 261.175735698 798.088867188 261.175735698 801.83203125 c 1
 283.007914228 801.83203125 l 1
 279.187282985 805.682617188 274.475455392 808.715820312 271.300834901 813.158203125 c 1
 296.950446601 836.420898438 379.055664062 933.764648438 387.09765625 949.8125 c 1
 387.09765625 939.8125 386.896484375 938 386.896484375 948 c 1
 391.969726562 948 l 1
 391.969726562 938 391.969726562 948 391.969726562 958 c 1
 442.024414062 958 l 1
 442.024414062 948 442.024414062 938 442.024414062 948 c 1
 447.09765625 948 l 1
 447.09765625 938 449.3515625 935.733398438 449.3515625 945.733398438 c 1
 467.326171875 917.127929688 555.004186187 817.502929688 566.43302458 810.1953125 c 1
 565.197503295 810.895507812 563.472677204 811.149414062 561.681757654 811.341796875 c 2
 561.681757654 801.341796875 551.177161671 791.83203125 551.177161671 801.83203125 c 1
 573.009323811 801.83203125 l 1
 573.009323811 784.172851562 520.881838633 757.6015625 520.251818719 757.288085938 c 0
 513.657397089 754.002929688 508.295298673 751.075195312 501.035678352 751.075195312 c 0
 494.722686937 751.075195312 488.181566483 751.505859375 452.767578125 788.291015625 c 0
 449.557617188 791.745117188 430.127929688 812.69140625 417.416015625 829.594726562 c 1
 402.424804688 809.900390625 372.404296875 777.487304688 355.426145873 762.4453125 c 0
 348.553486938 756.786132812 341.655243419 751.106445312 333.096133975 751.106445312 c 0
 316.984242065 751.106445312 272.274115125 780.776367188 263.784297263 793.916015625 c 0
EndSplineSet
Validated: 524293
EndChar

StartChar: Adieresis
Encoding: 196 196 5
Width: 821
GlyphClass: 2
Flags: HW
LayerCount: 2
Fore
SplineSet
313.201987699 895 m 0
 352.288836233 895 383.98828125 865.913085938 383.98828125 831 c 0
 383.98828125 794.09375 353.003072543 764 313.201987699 764 c 0
 271.39890914 764 238.933137796 794.243164062 238.933137796 831 c 0
 238.933137796 865.752929688 272.104617255 895 313.201987699 895 c 0
520.982044846 895 m 0
 560.067798011 895 594.119788012 865.913085938 594.119788012 831 c 0
 594.119788012 794.09375 560.783099808 764 520.982044846 764 c 0
 479.177931648 764 448.969726562 794.243164062 448.969726562 831 c 0
 448.969726562 865.752929688 479.884705256 895 520.982044846 895 c 0
20 10 m 1
 0 10 l 1
 0 13.64453125 2.177734375 19.5048828125 43.65625 104.470703125 c 0
 76.16015625 171.053710938 123.378711711 266.138671875 174.73395383 361.221679688 c 0
 338.315389154 664.44921875 352.694991508 692.759765625 358.319335938 705.5234375 c 1
 358.319335938 695.5234375 358.319335938 704 358.319335938 714 c 1
 473.6015625 714 l 1
 473.6015625 704 473.6015625 694 473.6015625 704 c 1
 473.6015625 694.280273438 475.993719328 690.7421875 475.993719328 700.360351562 c 1
 492.971210257 665.619140625 575.163757389 513.23828125 657.188938824 361.200195312 c 0
 745.911132812 190.977539062 824.561523438 31.837890625 830.953125 14.5947265625 c 0
 831.344726562 13.537109375 831.922851562 13.4931640625 831.922851562 10 c 1
 811.922851562 10 l 1
 811.922851562 20 814.83203125 13.642578125 814.83203125 3.642578125 c 1
 810.190429688 5.4541015625 790.453125 7.5 771.459960938 7.5 c 0
 752.6953125 7.5 733.196289062 5.61328125 728.3203125 3.9111328125 c 1
 728.3203125 13.9111328125 730.998046875 20 730.998046875 10 c 1
 710.931022675 10 l 1
 710.931022675 19.62109375 706.947997059 26.9658203125 706.947997059 17.6337890625 c 1
 684.629228749 63.357421875 590.708165073 231.861328125 572.765174051 264 c 1
 259.156630174 264 l 1
 238.039158309 226.181640625 132.412000152 36.5224609375 121.331166331 9.7529296875 c 1
 121.36991783 9.9013671875 120.991828887 10 120.991828887 10 c 1
 100.924804688 10 l 1
 100.924804688 20 103.833984375 13.642578125 103.833984375 3.642578125 c 1
 99.1923828125 5.4541015625 79.455078125 7.5 60.462890625 7.5 c 0
 41.697265625 7.5 22.1982421875 5.61328125 17.322265625 3.9111328125 c 1
 17.322265625 13.9111328125 20 20 20 10 c 1
317.363746731 374 m 1
 514.676515595 374 l 1
 416.403320312 577.998046875 l 1
 317.363746731 374 l 1
EndSplineSet
Validated: 524293
EndChar

StartChar: Agrave
Encoding: 192 192 6
Width: 821
GlyphClass: 2
Flags: HW
LayerCount: 2
Fore
SplineSet
432.559570312 764 m 2
 431.559570312 763.701171875 430.60546875 763.563476562 429.807617188 763.563476562 c 0
 425.477539062 763.563476562 423.280273438 763.563476562 405.685546875 782.702148438 c 0
 373.720703125 817.473632812 302.561998738 898.411132812 283.021772544 925.412109375 c 0
 279.074284405 930.866210938 276.48810935 934.439453125 276.48810935 939 c 1
 298.320287881 939 l 1
 298.320287881 929 295.265062116 935.517578125 295.265062116 945.517578125 c 1
 301.999137886 943.442382812 327.091218855 941.5 351.286773351 941.5 c 0
 355.66600135 941.5 390.526367188 941.6171875 403.500976562 945.532226562 c 1
 403.500976562 935.532226562 400.3984375 929 400.3984375 939 c 1
 420.3984375 939 l 1
 420.3984375 929 422.966796875 925.879882812 422.966796875 935.879882812 c 1
 440.240234375 906.900390625 519.561035464 805.299804688 540.680027854 784.666992188 c 0
 541.265274778 784.095703125 541.800418596 783.178710938 542.242818366 782.77734375 c 1
 538.151420012 783.563476562 l 1
 538.151420012 773.563476562 527.575400453 764 527.575400453 774 c 1
 527.575400453 764 538.491481522 754 538.491481522 764 c 1
 432.559570312 764 l 2
20 10 m 1
 0 10 l 1
 0 13.64453125 2.177734375 19.5048828125 43.65625 104.470703125 c 0
 76.16015625 171.053710938 123.378711711 266.138671875 174.73395383 361.221679688 c 0
 338.315389154 664.44921875 352.694991508 692.759765625 358.319335938 705.5234375 c 1
 358.319335938 695.5234375 358.319335938 704 358.319335938 714 c 1
 473.6015625 714 l 1
 473.6015625 704 473.6015625 694 473.6015625 704 c 1
 473.6015625 694.280273438 475.993719328 690.7421875 475.993719328 700.360351562 c 1
 492.971210257 665.619140625 575.163757389 513.23828125 657.188938824 361.200195312 c 0
 745.911132812 190.977539062 824.561523438 31.837890625 830.953125 14.5947265625 c 0
 831.344726562 13.537109375 831.922851562 13.4931640625 831.922851562 10 c 1
 811.922851562 10 l 1
 811.922851562 20 814.83203125 13.642578125 814.83203125 3.642578125 c 1
 810.190429688 5.4541015625 790.453125 7.5 771.459960938 7.5 c 0
 752.6953125 7.5 733.196289062 5.61328125 728.3203125 3.9111328125 c 1
 728.3203125 13.9111328125 730.998046875 20 730.998046875 10 c 1
 710.931022675 10 l 1
 710.931022675 19.62109375 706.947997059 26.9658203125 706.947997059 17.6337890625 c 1
 684.629228749 63.357421875 590.708165073 231.861328125 572.765174051 264 c 1
 259.156630174 264 l 1
 238.039158309 226.181640625 132.412000152 36.5224609375 121.331166331 9.7529296875 c 1
 121.36991783 9.9013671875 120.991828887 10 120.991828887 10 c 1
 100.924804688 10 l 1
 100.924804688 20 103.833984375 13.642578125 103.833984375 3.642578125 c 1
 99.1923828125 5.4541015625 79.455078125 7.5 60.462890625 7.5 c 0
 41.697265625 7.5 22.1982421875 5.61328125 17.322265625 3.9111328125 c 1
 17.322265625 13.9111328125 20 20 20 10 c 1
317.363746731 374 m 1
 514.676515595 374 l 1
 416.403320312 577.998046875 l 1
 317.363746731 374 l 1
EndSplineSet
Validated: 524293
EndChar

StartChar: Amacron
Encoding: 256 256 7
Width: 821
GlyphClass: 2
Flags: HW
LayerCount: 2
Fore
SplineSet
657.472501087 760 m 1
 177.843546837 760 l 1
 177.843546837 750 177.843546837 849 177.843546837 859 c 1
 657.472501087 859 l 1
 657.472501087 849 657.472501087 750 657.472501087 760 c 1
20 10 m 1
 0 10 l 1
 0 13.64453125 2.177734375 19.5048828125 43.65625 104.470703125 c 0
 76.16015625 171.053710938 123.378711711 266.138671875 174.73395383 361.221679688 c 0
 338.315389154 664.44921875 352.694991508 692.759765625 358.319335938 705.5234375 c 1
 358.319335938 695.5234375 358.319335938 704 358.319335938 714 c 1
 473.6015625 714 l 1
 473.6015625 704 473.6015625 694 473.6015625 704 c 1
 473.6015625 694.280273438 475.993719328 690.7421875 475.993719328 700.360351562 c 1
 492.971210257 665.619140625 575.163757389 513.23828125 657.188938824 361.200195312 c 0
 745.911132812 190.977539062 824.561523438 31.837890625 830.953125 14.5947265625 c 0
 831.344726562 13.537109375 831.922851562 13.4931640625 831.922851562 10 c 1
 811.922851562 10 l 1
 811.922851562 20 814.83203125 13.642578125 814.83203125 3.642578125 c 1
 810.190429688 5.4541015625 790.453125 7.5 771.459960938 7.5 c 0
 752.6953125 7.5 733.196289062 5.61328125 728.3203125 3.9111328125 c 1
 728.3203125 13.9111328125 730.998046875 20 730.998046875 10 c 1
 710.931022675 10 l 1
 710.931022675 19.62109375 706.947997059 26.9658203125 706.947997059 17.6337890625 c 1
 684.629228749 63.357421875 590.708165073 231.861328125 572.765174051 264 c 1
 259.156630174 264 l 1
 238.039158309 226.181640625 132.412000152 36.5224609375 121.331166331 9.7529296875 c 1
 121.36991783 9.9013671875 120.991828887 10 120.991828887 10 c 1
 100.924804688 10 l 1
 100.924804688 20 103.833984375 13.642578125 103.833984375 3.642578125 c 1
 99.1923828125 5.4541015625 79.455078125 7.5 60.462890625 7.5 c 0
 41.697265625 7.5 22.1982421875 5.61328125 17.322265625 3.9111328125 c 1
 17.322265625 13.9111328125 20 20 20 10 c 1
317.363746731 374 m 1
 514.676515595 374 l 1
 416.403320312 577.998046875 l 1
 317.363746731 374 l 1
EndSplineSet
Validated: 524325
EndChar

StartChar: Aogonek
Encoding: 260 260 8
Width: 841
GlyphClass: 2
Flags: HW
LayerCount: 2
Fore
SplineSet
426.345703125 578.237304688 m 1
 325.427980271 374 l 1
 524.918973184 374 l 1
 426.345703125 578.237304688 l 1
805.989257812 0 m 1
 797.950195312 -14.9912109375 795.432617188 -25.5654296875 795.432617188 -30.8486328125 c 0
 795.432617188 -34.650390625 795.432617188 -41.5703125 815.993164062 -41.5703125 c 0
 842.11328125 -41.5703125 859.360351562 -32.7890625 899.4609375 -12.373046875 c 1
 899.4609375 -2.373046875 899.4609375 -108.197265625 899.4609375 -118.197265625 c 1
 880.483398438 -127.97265625 855.34765625 -140.920898438 812.595703125 -140.920898438 c 0
 763.822953016 -140.920898438 695.86394439 -119.236328125 695.86394439 -54.212890625 c 0
 695.86394439 -32.7919921875 703.955317428 -9.103515625 720.644359107 17.72265625 c 1
 720.644359107 25.2265625 717.485989418 30.951171875 717.485989418 23.6279296875 c 2
 695.349331817 68.3369140625 602.159752427 232.516601562 584.258512244 264 c 1
 262.506097804 264 l 1
 241.045194087 226.467773438 132.66674664 36.439453125 121.315121019 9.6572265625 c 1
 121.367102087 9.8583984375 120.984521427 10 120.984521427 10 c 1
 100.924804688 10 l 1
 100.924804688 20 103.833984375 13.642578125 103.833984375 3.642578125 c 1
 99.1923828125 5.4541015625 79.455078125 7.5 60.462890625 7.5 c 0
 41.697265625 7.5 22.1982421875 5.61328125 17.322265625 3.9111328125 c 1
 17.322265625 13.9111328125 20 20 20 10 c 1
 0 10 l 1
 0 17.01171875 43.869140625 102.8203125 180.906903255 361.338867188 c 0
 349.192489064 664.173828125 364.129695056 692.702148438 369.991210938 705.583984375 c 1
 369.991210938 695.583984375 369.991210938 704 369.991210938 714 c 1
 481.930664062 714 l 1
 481.930664062 704 481.930664062 694 481.930664062 704 c 1
 481.930664062 694.280273438 484.33652691 690.849609375 484.33652691 700.470703125 c 1
 501.580637855 665.73828125 585.088576989 513.353515625 668.423771402 361.31640625 c 0
 761.913168579 190.977539062 844.287109375 31.9462890625 850.90234375 14.6943359375 c 0
 851.307617188 13.6376953125 851.922851562 13.5947265625 851.922851562 10 c 1
 836.4609375 10 l 1
 836.4609375 20 836.4609375 10 836.4609375 0 c 1
 826.303710938 -10 816.146484375 -10 805.989257812 0 c 1
834.19140625 7.5 m 1
 834.19140625 17.5 836.4609375 20 836.4609375 10 c 1
 831.922851562 10 l 1
 831.922851562 20 834.19140625 17.5 834.19140625 7.5 c 1
EndSplineSet
Validated: 524325
EndChar

StartChar: Aring
Encoding: 197 197 9
Width: 821
GlyphClass: 2
Flags: HW
LayerCount: 2
Fore
SplineSet
416.479492188 975 m 0
 474.371231497 975 530.767074937 925.901367188 530.767074937 870 c 0
 530.767074937 811.639648438 474.737943596 762 416.479492188 762 c 0
 355.016792525 762 301.154846607 811.923828125 301.154846607 870 c 0
 301.154846607 925.612304688 355.378174777 975 416.479492188 975 c 0
416.479492188 892 m 0
 401.272460938 892 391.243164062 880.224609375 391.243164062 870 c 0
 391.243164062 855.653320312 401.849609375 845 416.479492188 845 c 0
 428.6953125 845 440.678710938 855.905273438 440.678710938 870 c 0
 440.678710938 879.952148438 429.280273438 892 416.479492188 892 c 0
20 10 m 1
 0 10 l 1
 0 13.64453125 2.177734375 19.5048828125 43.65625 104.470703125 c 0
 76.16015625 171.053710938 123.378711711 266.138671875 174.73395383 361.221679688 c 0
 338.315389154 664.44921875 352.694991508 692.759765625 358.319335938 705.5234375 c 1
 358.319335938 695.5234375 358.319335938 704 358.319335938 714 c 1
 473.6015625 714 l 1
 473.6015625 704 473.6015625 694 473.6015625 704 c 1
 473.6015625 694.280273438 475.993719328 690.7421875 475.993719328 700.360351562 c 1
 492.971210257 665.619140625 575.163757389 513.23828125 657.188938824 361.200195312 c 0
 745.911132812 190.977539062 824.561523438 31.837890625 830.953125 14.5947265625 c 0
 831.344726562 13.537109375 831.922851562 13.4931640625 831.922851562 10 c 1
 811.922851562 10 l 1
 811.922851562 20 814.83203125 13.642578125 814.83203125 3.642578125 c 1
 810.190429688 5.4541015625 790.453125 7.5 771.459960938 7.5 c 0
 752.6953125 7.5 733.196289062 5.61328125 728.3203125 3.9111328125 c 1
 728.3203125 13.9111328125 730.998046875 20 730.998046875 10 c 1
 710.931022675 10 l 1
 710.931022675 19.62109375 706.947997059 26.9658203125 706.947997059 17.6337890625 c 1
 684.629228749 63.357421875 590.708165073 231.861328125 572.765174051 264 c 1
 259.156630174 264 l 1
 238.039158309 226.181640625 132.412000152 36.5224609375 121.331166331 9.7529296875 c 1
 121.36991783 9.9013671875 120.991828887 10 120.991828887 10 c 1
 100.924804688 10 l 1
 100.924804688 20 103.833984375 13.642578125 103.833984375 3.642578125 c 1
 99.1923828125 5.4541015625 79.455078125 7.5 60.462890625 7.5 c 0
 41.697265625 7.5 22.1982421875 5.61328125 17.322265625 3.9111328125 c 1
 17.322265625 13.9111328125 20 20 20 10 c 1
317.363746731 374 m 1
 514.676515595 374 l 1
 416.403320312 577.998046875 l 1
 317.363746731 374 l 1
EndSplineSet
Validated: 524293
EndChar

StartChar: Atilde
Encoding: 195 195 10
Width: 821
GlyphClass: 2
Flags: HW
LayerCount: 2
Fore
SplineSet
355.470918895 764.538085938 m 2
 355.470918895 764.538085938 355.5849835 764.482421875 355.5849835 764.193359375 c 0
 355.5849835 764.0625 353.917721428 755.798828125 344.633715431 755.798828125 c 0
 339.369687229 755.798828125 336.764323736 758.498046875 335.687639151 760 c 1
 241.196307475 760 l 1
 241.196307475 766.666992188 241.196307475 773.333007812 241.196307475 780 c 0
 241.196307475 806.17578125 263.983643815 893 372.952148438 893 c 0
 433.345703125 893 453.704101562 851 466.224609375 851 c 0
 483.624315841 851 484.02727274 866.65234375 484.054989352 867.559570312 c 0
 484.12641293 867.559570312 484.197836507 867.556640625 484.270326108 867.556640625 c 0
 484.317231144 870.086914062 484.356674015 873.557617188 484.356674015 877 c 2
 484.356674015 867 484.356674015 877 484.356674015 887 c 1
 598.645057948 887 l 1
 598.645057948 880.333007812 598.645057948 873.666992188 598.645057948 867 c 0
 598.645057948 840.82421875 575.858804738 754 466.224609375 754 c 0
 410.387695312 754 389.373046875 796 372.952148438 796 c 0
 356.801317274 796 355.86001778 781.35546875 355.790726198 779.559570312 c 0
 355.790726198 776.063476562 355.765141613 766.596679688 355.470918895 764.538085938 c 2
488.079228223 867.508789062 m 1
 488.079228223 857.508789062 501.761640384 857.334960938 501.761640384 867.334960938 c 1
 501.761640384 857.334960938 495.031833764 863.081054688 495.031833764 873.081054688 c 1
 495.031833764 863.081054688 488.079228223 857.508789062 488.079228223 867.508789062 c 1
20 10 m 1
 0 10 l 1
 0 13.64453125 2.177734375 19.5048828125 43.65625 104.470703125 c 0
 76.16015625 171.053710938 123.378711711 266.138671875 174.73395383 361.221679688 c 0
 338.315389154 664.44921875 352.694991508 692.759765625 358.319335938 705.5234375 c 1
 358.319335938 695.5234375 358.319335938 704 358.319335938 714 c 1
 473.6015625 714 l 1
 473.6015625 704 473.6015625 694 473.6015625 704 c 1
 473.6015625 694.280273438 475.993719328 690.7421875 475.993719328 700.360351562 c 1
 492.971210257 665.619140625 575.163757389 513.23828125 657.188938824 361.200195312 c 0
 745.911132812 190.977539062 824.561523438 31.837890625 830.953125 14.5947265625 c 0
 831.344726562 13.537109375 831.922851562 13.4931640625 831.922851562 10 c 1
 811.922851562 10 l 1
 811.922851562 20 814.83203125 13.642578125 814.83203125 3.642578125 c 1
 810.190429688 5.4541015625 790.453125 7.5 771.459960938 7.5 c 0
 752.6953125 7.5 733.196289062 5.61328125 728.3203125 3.9111328125 c 1
 728.3203125 13.9111328125 730.998046875 20 730.998046875 10 c 1
 710.931022675 10 l 1
 710.931022675 19.62109375 706.947997059 26.9658203125 706.947997059 17.6337890625 c 1
 684.629228749 63.357421875 590.708165073 231.861328125 572.765174051 264 c 1
 259.156630174 264 l 1
 238.039158309 226.181640625 132.412000152 36.5224609375 121.331166331 9.7529296875 c 1
 121.36991783 9.9013671875 120.991828887 10 120.991828887 10 c 1
 100.924804688 10 l 1
 100.924804688 20 103.833984375 13.642578125 103.833984375 3.642578125 c 1
 99.1923828125 5.4541015625 79.455078125 7.5 60.462890625 7.5 c 0
 41.697265625 7.5 22.1982421875 5.61328125 17.322265625 3.9111328125 c 1
 17.322265625 13.9111328125 20 20 20 10 c 1
317.363746731 374 m 1
 514.676515595 374 l 1
 416.403320312 577.998046875 l 1
 317.363746731 374 l 1
EndSplineSet
Validated: 524293
EndChar

StartChar: AE
Encoding: 198 198 11
Width: 964
GlyphClass: 2
Flags: HW
AnchorPoint: "Anchor-0" 485 0 basechar 0
LayerCount: 2
Fore
SplineSet
813.4609375 334 m 1
 565.130694441 334 l 1
 585.367478473 253.040039062 616.278576924 128.232421875 620.432888367 107.005859375 c 1
 899.4609375 107.005859375 l 1
 899.4609375 113.801757812 899.4609375 19.7001953125 899.4609375 10 c 1
 879.4609375 10 l 1
 879.4609375 20 883.969726562 11.8466796875 883.969726562 1.8466796875 c 1
 870.487304688 5.06640625 790.331054688 7.5 709.96660858 7.5 c 0
 629.262184953 7.5 546.598940536 5.06640625 532.694837802 1.8466796875 c 1
 532.88014527 1.9130859375 533.025168506 2.16796875 533.025168506 2.16796875 c 2
 536.364731353 4.9365234375 536.540974869 5.845703125 537.344645301 10 c 1
 516.719118429 10 l 1
 510.880926081 39.728515625 492.055097281 121.1640625 458.015928202 264 c 1
 252.781864768 264 l 1
 232.59442892 226.110351562 131.853635317 36.5419921875 121.282045689 9.7763671875 c 1
 121.31528018 9.9111328125 120.953729197 10 120.953729197 10 c 1
 100.924804688 10 l 1
 100.924804688 20 103.833984375 13.642578125 103.833984375 3.642578125 c 1
 99.1923828125 5.4541015625 79.455078125 7.5 60.462890625 7.5 c 0
 41.697265625 7.5 22.1982421875 5.61328125 17.322265625 3.9111328125 c 1
 17.322265625 13.9111328125 20 20 20 10 c 1
 0 10 l 1
 0 13.5654296875 1.677734375 18.486328125 43.482421875 104.45703125 c 0
 75.859375 171.040039062 122.750405952 266.125 171.019980046 361.208007812 c 0
 324.980272772 664.482421875 338.498653983 692.766601562 343.783945244 705.516601562 c 1
 343.783945244 695.516601562 343.783945244 704 343.783945244 714 c 1
 795.4609375 714 l 1
 795.4609375 704 795.4609375 594 795.4609375 604 c 1
 499.325394083 604 l 1
 506.871637874 570.29296875 532.579020635 471.555664062 539.779827135 444 c 1
 813.4609375 444 l 1
 813.4609375 334 l 1
394.793854231 561.544921875 m 1
 305.149352379 374 l 1
 434.473822921 374 l 1
 394.793854231 561.544921875 l 1
EndSplineSet
Validated: 524325
EndChar

StartChar: B
Encoding: 66 66 12
Width: 688
GlyphClass: 2
Flags: HW
LayerCount: 2
Fore
SplineSet
643 229.256835938 m 0
 643 92.46484375 541.143554688 0 355 0 c 2
 80 0 l 1
 80 9.7275390625 80 704.272460938 80 714 c 1
 355 714 l 2
 506.694626267 714 591 641.666015625 591 533.948242188 c 0
 591 487.20703125 572.325195312 445.522460938 542.310546875 414.004882812 c 1
 602.78125 372.776367188 643 306.029296875 643 229.256835938 c 0
193 604 m 1
 193 594.666992188 193 464 193 464 c 1
 355 464 l 2
 423.953916807 464 463.126055743 492.06640625 463.126055743 534 c 0
 463.126055743 575.93359375 423.953916807 604 355 604 c 2
 193 604 l 1
193 354 m 1
 193 354 193 119.606445312 193 110 c 1
 355 110 l 2
 464.59264147 110 527 158.587890625 527 232 c 0
 527 305.412109375 464.59264147 354 355 354 c 2
 193 354 l 1
EndSplineSet
Validated: 524289
EndChar

StartChar: C
Encoding: 67 67 13
Width: 841
GlyphClass: 2
Flags: HW
AnchorPoint: "Anchor-0" 403 0 basechar 0
LayerCount: 2
Fore
SplineSet
797.041992188 506 m 1
 691.734375 506 l 1
 690.685546875 504.033203125 687.864257812 500.0234375 682.247326069 500.0234375 c 0
 678.461771663 500.0234375 670.917043021 501.776367188 670.020117239 515.532226562 c 1
 615.641455115 572.719726562 535.913478793 609 445.056114565 609 c 0
 277.200106995 609 146 494.034179688 146 359.711914062 c 0
 146 217.560546875 277.46593794 103 445.056114565 103 c 0
 537.045796863 103 618.719818039 140.319335938 671.872816876 200.02734375 c 0
 672.213729843 205.623046875 674.194271842 215.883789062 684.107421875 215.883789062 c 0
 686.149414062 215.883789062 690.662109375 215.241210938 693.506835938 210 c 1
 798.689453125 210 l 1
 798.689453125 220 788.778320312 210.088867188 788.778320312 200.088867188 c 1
 788.778320312 210.088867188 797.455078125 203.278320312 797.455078125 193.278320312 c 1
 797.455078125 203.278320312 803.177734375 205.486328125 803.177734375 195.486328125 c 1
 802.45703125 194.61328125 799.57421875 187.662109375 799.57421875 184.854492188 c 2
 799.57421875 194.854492188 799.57421875 192.077148438 799.57421875 182.077148438 c 1
 799.57421875 192.077148438 798.1484375 189.708984375 798.1484375 179.708984375 c 2
 729.561523438 65.748046875 598.701327439 -10 445.056114565 -10 c 0
 212.082686407 -10 30 155.327148438 30 359.790039062 c 0
 30 557 212.300830121 722 445.056114565 722 c 0
 577.322228837 722 716.749023438 663.3359375 797.486328125 534.15625 c 1
 797.486328125 524.15625 797.486328125 521.2890625 797.486328125 531.2890625 c 2
 797.486328125 528.534179688 800.6171875 521.420898438 801.265625 520.693359375 c 1
 800.5390625 521.306640625 l 1
 800.5390625 511.306640625 795.762695312 512.741210938 795.762695312 522.741210938 c 1
 795.762695312 512.741210938 787.1328125 505.909179688 787.1328125 515.909179688 c 1
 787.1328125 505.909179688 797.041992188 496 797.041992188 506 c 1
EndSplineSet
Validated: 524293
EndChar

StartChar: Cacute
Encoding: 262 262 14
Width: 841
GlyphClass: 2
Flags: HW
AnchorPoint: "Anchor-0" 403 0 basechar 0
LayerCount: 2
Fore
SplineSet
567.587946079 939 m 1
 588.367403123 939 l 1
 588.367403123 935.200195312 588.367403123 932.2109375 565.541453654 903.567382812 c 0
 562.385979464 899.608398438 457.074311278 771.563476562 440.350298072 764.390625 c 0
 432.458568732 758.65234375 410.164281152 756.5 381.372354758 756.5 c 0
 322.769821557 756.5 317.252307524 765.232421875 317.252307524 774 c 1
 338.031764568 774 l 1
 334.27157571 777.952148438 329.675338385 781.099609375 326.560449073 785.674804688 c 1
 351.669297875 812.010742188 436.255283979 922.508789062 445.47515342 940.447265625 c 1
 445.47515342 930.447265625 445.346296436 929 445.346296436 939 c 1
 466.12575348 939 l 1
 466.12575348 929 463.223934772 935.522460938 463.223934772 945.522460938 c 1
 469.693164172 943.439453125 493.703177428 941.5 516.856849779 941.5 c 0
 520.799670584 941.5 557.313884456 941.607421875 570.826619267 945.546875 c 1
 570.826619267 935.546875 567.587946079 929 567.587946079 939 c 1
797.041992188 506 m 1
 691.734375 506 l 1
 690.685546875 504.033203125 687.864257812 500.0234375 682.247326069 500.0234375 c 0
 678.461771663 500.0234375 670.917043021 501.776367188 670.020117239 515.532226562 c 1
 615.641455115 572.719726562 535.913478793 609 445.056114565 609 c 0
 277.200106995 609 146 494.034179688 146 359.711914062 c 0
 146 217.560546875 277.46593794 103 445.056114565 103 c 0
 537.045796863 103 618.719818039 140.319335938 671.872816876 200.02734375 c 0
 672.213729843 205.623046875 674.194271842 215.883789062 684.107421875 215.883789062 c 0
 686.149414062 215.883789062 690.662109375 215.241210938 693.506835938 210 c 1
 798.689453125 210 l 1
 798.689453125 220 788.778320312 210.088867188 788.778320312 200.088867188 c 1
 788.778320312 210.088867188 797.455078125 203.278320312 797.455078125 193.278320312 c 1
 797.455078125 203.278320312 803.177734375 205.486328125 803.177734375 195.486328125 c 1
 802.45703125 194.61328125 799.57421875 187.662109375 799.57421875 184.854492188 c 2
 799.57421875 194.854492188 799.57421875 192.077148438 799.57421875 182.077148438 c 1
 799.57421875 192.077148438 798.1484375 189.708984375 798.1484375 179.708984375 c 2
 729.561523438 65.748046875 598.701327439 -10 445.056114565 -10 c 0
 212.082686407 -10 30 155.327148438 30 359.790039062 c 0
 30 557 212.300830121 722 445.056114565 722 c 0
 577.322228837 722 716.749023438 663.3359375 797.486328125 534.15625 c 1
 797.486328125 524.15625 797.486328125 521.2890625 797.486328125 531.2890625 c 2
 797.486328125 528.534179688 800.6171875 521.420898438 801.265625 520.693359375 c 1
 800.5390625 521.306640625 l 1
 800.5390625 511.306640625 795.762695312 512.741210938 795.762695312 522.741210938 c 1
 795.762695312 512.741210938 787.1328125 505.909179688 787.1328125 515.909179688 c 1
 787.1328125 505.909179688 797.041992188 496 797.041992188 506 c 1
EndSplineSet
Validated: 524293
EndChar

StartChar: Ccaron
Encoding: 268 268 15
Width: 841
GlyphClass: 2
Flags: HW
AnchorPoint: "Anchor-0" 403 0 basechar 0
LayerCount: 2
Fore
SplineSet
436.779843515 890.01953125 m 1
 457.559300559 890.01953125 l 1
 457.559300559 890.01953125 448.025912942 899.078125 448.020839833 899.081054688 c 2
 448.020839833 889.081054688 446.446146604 889.213867188 446.446146604 899.213867188 c 1
 446.446146604 889.213867188 436.779843515 880.01953125 436.779843515 890.01953125 c 1
453.789980104 781 m 1
 439.569039189 781 l 1
 438.40019473 778.62109375 435.097600361 773.5 428.336159847 773.5 c 0
 421.534134455 773.5 417.167201685 778.874023438 415.871529486 784.477539062 c 0
 396.665751049 800.034179688 304.616206057 909.84765625 294.313735021 930.567382812 c 0
 293.566973283 932.068359375 292.507707993 933.396484375 292.507707993 937.16796875 c 1
 313.287165037 937.16796875 l 1
 313.287165037 927.16796875 304.994660036 935.545898438 304.994660036 945.545898438 c 1
 325.535680927 953.823242188 349.032295489 972.684570312 353.212537825 978.0546875 c 1
 353.212537825 968.0546875 353.212537825 968.0546875 353.212537825 978.0546875 c 2
 352.971057806 976.271484375 l 1
 373.75051485 976.271484375 l 1
 373.75051485 966.271484375 374.741800472 966.109375 374.741800472 976.109375 c 1
 384.778440564 960.749023438 432.242454262 911.518554688 447.12898716 900.29296875 c 1
 466.573201749 915.125 516.338377975 969.756835938 519.867233034 978.34765625 c 1
 519.867233034 968.34765625 519.55980259 966.303710938 519.55980259 976.303710938 c 1
 540.339259634 976.303710938 l 1
 540.339259634 966.303710938 540.153583822 968.243164062 540.153583822 978.243164062 c 1
 546.338719083 969.6328125 580.328553603 947.190429688 588.832099965 945.526367188 c 1
 588.656570372 945.541015625 588.366388501 945.546875 588.366388501 945.546875 c 1
 588.366388501 935.546875 580.072868878 927.16796875 580.072868878 937.16796875 c 1
 600.852325922 937.16796875 l 1
 600.852325922 933.627929688 600.852325922 930.5 581.177792155 904.778320312 c 0
 580.21593057 903.51953125 501.909439566 804.2578125 477.487489807 784.477539062 c 0
 477.271375337 783.543945312 474.723659681 773.5 465.023874068 773.5 c 0
 462.629366323 773.5 457.093589095 774.280273438 453.789980104 781 c 1
797.041992188 506 m 1
 691.734375 506 l 1
 690.685546875 504.033203125 687.864257812 500.0234375 682.247326069 500.0234375 c 0
 678.461771663 500.0234375 670.917043021 501.776367188 670.020117239 515.532226562 c 1
 615.641455115 572.719726562 535.913478793 609 445.056114565 609 c 0
 277.200106995 609 146 494.034179688 146 359.711914062 c 0
 146 217.560546875 277.46593794 103 445.056114565 103 c 0
 537.045796863 103 618.719818039 140.319335938 671.872816876 200.02734375 c 0
 672.213729843 205.623046875 674.194271842 215.883789062 684.107421875 215.883789062 c 0
 686.149414062 215.883789062 690.662109375 215.241210938 693.506835938 210 c 1
 798.689453125 210 l 1
 798.689453125 220 788.778320312 210.088867188 788.778320312 200.088867188 c 1
 788.778320312 210.088867188 797.455078125 203.278320312 797.455078125 193.278320312 c 1
 797.455078125 203.278320312 803.177734375 205.486328125 803.177734375 195.486328125 c 1
 802.45703125 194.61328125 799.57421875 187.662109375 799.57421875 184.854492188 c 2
 799.57421875 194.854492188 799.57421875 192.077148438 799.57421875 182.077148438 c 1
 799.57421875 192.077148438 798.1484375 189.708984375 798.1484375 179.708984375 c 2
 729.561523438 65.748046875 598.701327439 -10 445.056114565 -10 c 0
 212.082686407 -10 30 155.327148438 30 359.790039062 c 0
 30 557 212.300830121 722 445.056114565 722 c 0
 577.322228837 722 716.749023438 663.3359375 797.486328125 534.15625 c 1
 797.486328125 524.15625 797.486328125 521.2890625 797.486328125 531.2890625 c 2
 797.486328125 528.534179688 800.6171875 521.420898438 801.265625 520.693359375 c 1
 800.5390625 521.306640625 l 1
 800.5390625 511.306640625 795.762695312 512.741210938 795.762695312 522.741210938 c 1
 795.762695312 512.741210938 787.1328125 505.909179688 787.1328125 515.909179688 c 1
 787.1328125 505.909179688 797.041992188 496 797.041992188 506 c 1
EndSplineSet
Validated: 524293
EndChar

StartChar: Ccedilla
Encoding: 199 199 16
Width: 841
GlyphClass: 2
Flags: HW
AnchorPoint: "Anchor-0" 403 0 basechar 0
LayerCount: 2
Fore
SplineSet
797.041992188 506 m 1
 691.734375 506 l 1
 690.685546875 504.033203125 687.864257812 500.0234375 682.206566962 500.0234375 c 0
 678.421302451 500.0234375 670.87715158 501.776367188 669.980294483 515.532226562 c 1
 615.607825726 572.719726562 535.885954913 609 445.03453393 609 c 0
 277.235006051 609 146 493.463867188 146 358.376953125 c 0
 146 215.421875 277.500816639 100.291992188 445.03453393 100.291992188 c 0
 537.259647796 100.291992188 619.07959607 136.63671875 672.177797279 194.626953125 c 0
 672.644487623 196.677734375 675.226502681 205.716796875 684.53125 205.716796875 c 0
 686.544921875 205.716796875 688.525390625 205.03515625 690.141601562 204.022460938 c 1
 798.631835938 204.022460938 l 1
 798.631835938 214.022460938 788.631835938 204.022460938 788.631835938 194.022460938 c 1
 788.631835938 204.022460938 798.28125 194.692382812 798.28125 184.692382812 c 1
 798.28125 194.692382812 804.227539062 196.840820312 804.227539062 186.840820312 c 1
 803.11328125 185.490234375 800.153320312 179.84375 799.588867188 178.561523438 c 2
 799.588867188 188.561523438 799.588867188 186.52734375 799.588867188 176.52734375 c 1
 799.588867188 186.52734375 798.106445312 184.124023438 798.106445312 174.124023438 c 2
 743.787109375 86.0712890625 650.721201422 21.5244140625 536.672226689 -0.8623046875 c 1
 562.048006894 -18.7900390625 578.806248436 -44.76171875 578.806248436 -76 c 0
 578.806248436 -139.333984375 513.38133487 -180 441.787992404 -180 c 0
 369.253152895 -180 303.687217682 -139.409179688 303.687217682 -76 c 0
 303.687217682 -69.3330078125 303.687217682 -62.6669921875 303.687217682 -56 c 1
 387.592054342 -56 l 1
 381.123320351 -54.025390625 379.210904483 -53.1064453125 365.53180467 -46.533203125 c 1
 372.320120093 -33.0478515625 379.10945006 -19.5615234375 385.897765483 -6.076171875 c 1
 180.298348795 19.0986328125 30 172.739257812 30 359.87109375 c 0
 30 557.037109375 212.297073714 722 445.03453393 722 c 0
 577.292548449 722 716.749023438 663.334960938 797.486328125 534.15625 c 1
 797.486328125 524.15625 797.486328125 521.2890625 797.486328125 531.2890625 c 2
 797.486328125 528.534179688 800.6171875 521.420898438 801.265625 520.693359375 c 1
 800.5390625 521.306640625 l 1
 800.5390625 511.306640625 795.762695312 512.741210938 795.762695312 522.741210938 c 1
 795.762695312 512.741210938 787.1328125 505.909179688 787.1328125 515.909179688 c 1
 787.1328125 505.909179688 797.041992188 496 797.041992188 506 c 1
410.573510172 -59.5 m 0
 407.112899814 -59.58984375 403.659391265 -59.2607421875 400.226173601 -58.791015625 c 1
 400.226173601 -64.52734375 400.226173601 -70.263671875 400.226173601 -76 c 0
 400.226173601 -85.306640625 413.89715706 -101 441.787992404 -101 c 0
 467.967291637 -101 481.184773826 -85.9365234375 481.184773826 -76 c 0
 481.184773826 -67.697265625 468.936181374 -52.9013671875 444.077818724 -52.0390625 c 1
 434.295583287 -56.423828125 413.108856195 -59.43359375 410.573510172 -59.5 c 0
EndSplineSet
Validated: 524293
EndChar

StartChar: Cdotaccent
Encoding: 266 266 17
Width: 841
GlyphClass: 2
Flags: HW
AnchorPoint: "Anchor-0" 403 0 basechar 0
LayerCount: 2
Fore
SplineSet
445.056114565 898 m 0
 483.488978499 898 517.141958541 867.962890625 517.141958541 832 c 0
 517.141958541 794.00390625 484.14239502 763 445.056114565 763 c 0
 404.044081695 763 371.888683616 794.149414062 371.888683616 832 c 0
 371.888683616 867.80859375 404.68938124 898 445.056114565 898 c 0
797.041992188 506 m 1
 691.734375 506 l 1
 690.685546875 504.033203125 687.864257812 500.0234375 682.247326069 500.0234375 c 0
 678.461771663 500.0234375 670.917043021 501.776367188 670.020117239 515.532226562 c 1
 615.641455115 572.719726562 535.913478793 609 445.056114565 609 c 0
 277.200106995 609 146 494.034179688 146 359.711914062 c 0
 146 217.560546875 277.46593794 103 445.056114565 103 c 0
 537.045796863 103 618.719818039 140.319335938 671.872816876 200.02734375 c 0
 672.213729843 205.623046875 674.194271842 215.883789062 684.107421875 215.883789062 c 0
 686.149414062 215.883789062 690.662109375 215.241210938 693.506835938 210 c 1
 798.689453125 210 l 1
 798.689453125 220 788.778320312 210.088867188 788.778320312 200.088867188 c 1
 788.778320312 210.088867188 797.455078125 203.278320312 797.455078125 193.278320312 c 1
 797.455078125 203.278320312 803.177734375 205.486328125 803.177734375 195.486328125 c 1
 802.45703125 194.61328125 799.57421875 187.662109375 799.57421875 184.854492188 c 2
 799.57421875 194.854492188 799.57421875 192.077148438 799.57421875 182.077148438 c 1
 799.57421875 192.077148438 798.1484375 189.708984375 798.1484375 179.708984375 c 2
 729.561523438 65.748046875 598.701327439 -10 445.056114565 -10 c 0
 212.082686407 -10 30 155.327148438 30 359.790039062 c 0
 30 557 212.300830121 722 445.056114565 722 c 0
 577.322228837 722 716.749023438 663.3359375 797.486328125 534.15625 c 1
 797.486328125 524.15625 797.486328125 521.2890625 797.486328125 531.2890625 c 2
 797.486328125 528.534179688 800.6171875 521.420898438 801.265625 520.693359375 c 1
 800.5390625 521.306640625 l 1
 800.5390625 511.306640625 795.762695312 512.741210938 795.762695312 522.741210938 c 1
 795.762695312 512.741210938 787.1328125 505.909179688 787.1328125 515.909179688 c 1
 787.1328125 505.909179688 797.041992188 496 797.041992188 506 c 1
EndSplineSet
Validated: 524293
EndChar

StartChar: D
Encoding: 68 68 18
Width: 753
GlyphClass: 2
Flags: HW
LayerCount: 2
Fore
SplineSet
290 714 m 2
 593.08984375 714 713 615.61328125 713 357 c 0
 713 98.380859375 593.0859375 0 290 0 c 2
 80 0 l 1
 80 9.7275390625 80 704.272460938 80 714 c 1
 290 714 l 2
193 110 m 1
 290 110 l 2
 517.81879417 110 597 180.768554688 597 357 c 0
 597 533.228515625 517.824022057 604 290 604 c 2
 193 604 l 1
 193 594.388671875 193 119.611328125 193 110 c 1
EndSplineSet
Validated: 524289
EndChar

StartChar: Eth
Encoding: 208 208 19
Width: 753
GlyphClass: 2
Flags: HW
LayerCount: 2
Fore
SplineSet
290 714 m 2
 593.08984375 714 713 615.61328125 713 357 c 0
 713 98.380859375 593.0859375 0 290 0 c 2
 80 0 l 1
 80 9.58984375 80 233.678710938 80 233.678710938 c 1
 74.1728515625 233.083007812 68.3388671875 232.783203125 62.5 232.783203125 c 0
 53.3701171875 232.783203125 47.8935546875 232.783203125 25 236.696289062 c 1
 25 340.1875 l 1
 41.904296875 339.484375 48.9609375 339.190429688 62.5 339.190429688 c 0
 68.3330078125 339.190429688 74.166015625 339.266601562 80 339.419921875 c 1
 80 339.4140625 80 704.259765625 80 714 c 1
 290 714 l 2
290 110 m 2
 517.81879417 110 597 180.768554688 597 357 c 0
 597 533.228515625 517.824022057 604 290 604 c 2
 193 604 l 1
 193 594.36328125 193 339 193 339 c 1
 471.6920964 339 l 1
 471.6920964 232 l 1
 193 232 l 1
 193 232 193 119.2421875 193 110 c 1
 290 110 l 2
EndSplineSet
Validated: 524321
EndChar

StartChar: Dcaron
Encoding: 270 270 20
Width: 753
GlyphClass: 2
Flags: HW
LayerCount: 2
Fore
SplineSet
360.727045605 890.01953125 m 1
 350.923710799 899.083984375 350.923710799 899.083984375 350.868295191 899.083984375 c 0
 350.867249614 899.083984375 349.267516011 899.213867188 349.267516011 899.213867188 c 1
 349.267516011 889.213867188 339.313618043 880.01953125 339.313618043 890.01953125 c 1
 360.727045605 890.01953125 l 1
357.43556758 781 m 1
 341.560564129 781 l 1
 340.406246549 778.74609375 336.962114206 773.5 329.91805847 773.5 c 0
 323.025611473 773.5 318.364426899 778.743164062 316.982173421 784.520507812 c 0
 297.594029511 800.0234375 210.086914062 909.91015625 200.353515625 930.6328125 c 0
 199.6484375 932.134765625 198.661132812 933.453125 198.661132812 937.16796875 c 1
 218.661132812 937.16796875 l 1
 218.661132812 927.16796875 210.598632812 935.545898438 210.598632812 945.545898438 c 1
 222.520507812 951.721679688 226.709960938 953.892578125 238.770507812 963.23828125 c 0
 246.3359375 969.100585938 253.030273438 975.543945312 254.732421875 977.954101562 c 1
 254.522460938 976.271484375 l 1
 274.522460938 976.271484375 l 1
 274.522460938 966.271484375 275.477539062 966.150390625 275.477539062 976.150390625 c 1
 285.283203125 960.724609375 334.753854489 911.1484375 350.059018192 900.184570312 c 1
 365.994665139 911.399414062 417.616918341 962.483398438 427.081486031 976.872070312 c 0
 427.799797786 977.963867188 428.138564902 978.344726562 428.260897471 978.344726562 c 0
 428.300629417 978.344726562 428.317358657 978.3046875 428.317358657 978.236328125 c 0
 428.317358657 977.814453125 427.671191751 976.303710938 427.671191751 976.303710938 c 1
 449.084619313 976.303710938 l 1
 449.084619313 966.303710938 448.852501104 968.37890625 448.852501104 978.37890625 c 1
 455.41663676 969.817382812 491.724316061 947.254882812 501.081189267 945.5390625 c 1
 500.933762837 945.552734375 500.730920798 945.546875 500.730920798 945.546875 c 1
 500.730920798 935.546875 492.261742905 927.16796875 492.261742905 937.16796875 c 1
 513.675170467 937.16796875 l 1
 513.675170467 930.407226562 503.934570312 918.475585938 492.641287544 904.642578125 c 0
 469.315498703 876.069335938 401.342504279 799.030273438 381.974226342 784.353515625 c 0
 380.561651115 778.703125 375.949608685 773.5 369.078073239 773.5 c 0
 366.734934022 773.5 360.905839361 774.2265625 357.43556758 781 c 1
290 714 m 2
 593.08984375 714 713 615.61328125 713 357 c 0
 713 98.380859375 593.0859375 0 290 0 c 2
 80 0 l 1
 80 9.7275390625 80 704.272460938 80 714 c 1
 290 714 l 2
193 110 m 1
 290 110 l 2
 517.81879417 110 597 180.768554688 597 357 c 0
 597 533.228515625 517.824022057 604 290 604 c 2
 193 604 l 1
 193 594.388671875 193 119.611328125 193 110 c 1
EndSplineSet
Validated: 524293
EndChar

StartChar: Dcroat
Encoding: 272 272 21
Width: 753
GlyphClass: 2
Flags: HW
LayerCount: 2
Fore
SplineSet
290 714 m 2
 593.08984375 714 713 615.61328125 713 357 c 0
 713 98.380859375 593.0859375 0 290 0 c 2
 80 0 l 1
 80 9.58984375 80 233.678710938 80 233.678710938 c 1
 74.1728515625 233.083007812 68.3388671875 232.783203125 62.5 232.783203125 c 0
 53.3701171875 232.783203125 47.8935546875 232.783203125 25 236.696289062 c 1
 25 340.1875 l 1
 41.904296875 339.484375 48.9609375 339.190429688 62.5 339.190429688 c 0
 68.3330078125 339.190429688 74.166015625 339.266601562 80 339.419921875 c 1
 80 339.4140625 80 704.259765625 80 714 c 1
 290 714 l 2
290 110 m 2
 517.81879417 110 597 180.768554688 597 357 c 0
 597 533.228515625 517.824022057 604 290 604 c 2
 193 604 l 1
 193 594.36328125 193 339 193 339 c 1
 471.6920964 339 l 1
 471.6920964 232 l 1
 193 232 l 1
 193 232 193 119.2421875 193 110 c 1
 290 110 l 2
EndSplineSet
Validated: 524321
EndChar

StartChar: E
Encoding: 69 69 22
Width: 644
GlyphClass: 2
Flags: HW
AnchorPoint: "Anchor-0" 291 0 basechar 0
LayerCount: 2
Fore
SplineSet
574 110 m 1
 574 120 574 10 574 0 c 1
 80 0 l 1
 80 9.7275390625 80 704.272460938 80 714 c 1
 574 714 l 1
 574 704 574 594 574 604 c 1
 193 604 l 1
 193 594.666992188 193 464 193 464 c 1
 554 464 l 1
 554 354 l 1
 193 354 l 1
 193 354 193 119.606445312 193 110 c 1
 574 110 l 1
EndSplineSet
Validated: 524325
EndChar

StartChar: Eacute
Encoding: 201 201 23
Width: 644
GlyphClass: 2
Flags: HW
AnchorPoint: "Anchor-0" 291 0 basechar 0
LayerCount: 2
Fore
SplineSet
463.8046875 939 m 1
 483.8046875 939 l 1
 483.8046875 935.100585938 483.8046875 932.11328125 461 903.428710938 c 0
 459.837890625 901.966796875 344.4480836 771.586914062 326.157276643 764.346679688 c 0
 317.6590211 758.6328125 293.210503472 756.5 261.758371728 756.5 c 0
 196.73828125 756.5 192.522460938 765.512695312 192.522460938 774 c 1
 213.592756744 774 l 1
 213.592756744 764 203.09634582 773.563476562 203.09634582 783.563476562 c 1
 203.09634582 773.563476562 202.161399907 775.862304688 202.161399907 785.862304688 c 1
 229.80060597 812.224609375 322.478974693 922.34375 332.900123531 940.536132812 c 1
 332.900123531 930.536132812 332.749599359 929 332.749599359 939 c 1
 354.459001068 939 l 1
 354.459001068 929 351.472898304 935.552734375 351.472898304 945.552734375 c 1
 358.620676416 943.418945312 384.537334736 941.5 409.550848024 941.5 c 0
 413.179328592 941.5 453.93109809 941.591796875 467.01171875 945.634765625 c 1
 467.01171875 935.634765625 463.8046875 929 463.8046875 939 c 1
574 110 m 1
 574 120 574 10 574 0 c 1
 80 0 l 1
 80 9.7275390625 80 704.272460938 80 714 c 1
 574 714 l 1
 574 704 574 594 574 604 c 1
 193 604 l 1
 193 594.666992188 193 464 193 464 c 1
 554 464 l 1
 554 354 l 1
 193 354 l 1
 193 354 193 119.606445312 193 110 c 1
 574 110 l 1
EndSplineSet
Validated: 524325
EndChar

StartChar: Ecaron
Encoding: 282 282 24
Width: 644
GlyphClass: 2
Flags: HW
AnchorPoint: "Anchor-0" 291 0 basechar 0
LayerCount: 2
Fore
SplineSet
574 110 m 1
 574 120 574 10 574 0 c 1
 80 0 l 1
 80 9.7275390625 80 704.272460938 80 714 c 1
 574 714 l 1
 574 704 574 594 574 604 c 1
 193 604 l 1
 193 594.666992188 193 464 193 464 c 1
 554 464 l 1
 554 354 l 1
 193 354 l 1
 193 354 193 119.606445312 193 110 c 1
 574 110 l 1
342.031216613 781 m 1
 325.139648438 781 l 2
 323.999056824 778.8203125 320.480819311 773.5 313.292760083 773.5 c 0
 306.396208934 773.5 301.632436899 778.622070312 300.165356237 784.353515625 c 0
 279.547784789 799.80078125 181.73046875 909.706054688 171.478515625 930.455078125 c 0
 170.739257812 931.952148438 169.661132812 933.298828125 169.661132812 937.16796875 c 1
 189.661132812 937.16796875 l 1
 189.661132812 927.16796875 181.690429688 935.545898438 181.690429688 945.545898438 c 1
 200.742020566 953.327148438 226.12124399 972.336914062 230.815054087 978.067382812 c 1
 230.815054087 968.067382812 230.559587006 966.271484375 230.559587006 976.271484375 c 1
 252.268988715 976.271484375 l 1
 252.268988715 966.271484375 253.309937567 966.328125 253.309937567 976.328125 c 1
 264.56108941 960.763671875 318.245217348 910.469726562 334.086296408 900.034179688 c 1
 346.961413261 908.623046875 401.369541266 958.215820312 415.220945179 978.524414062 c 1
 415.220945179 978.5234375 414.937917334 977.458984375 414.937917334 977.458984375 c 1
 414.937917334 967.458984375 414.846754808 966.303710938 414.846754808 976.303710938 c 1
 436.556156517 976.303710938 l 1
 436.556156517 966.303710938 436.379131611 968.1875 436.379131611 978.1875 c 1
 442.764748598 969.5546875 475.887695312 947.163085938 483.848632812 945.520507812 c 1
 483.668945312 945.536132812 483.350585938 945.546875 483.350585938 945.546875 c 1
 483.350585938 935.546875 475.338867188 927.16796875 475.338867188 937.16796875 c 1
 495.338867188 937.16796875 l 1
 495.338867188 933.5703125 495.338867188 930.440429688 475.951171875 904.690429688 c 0
 454.430664062 876.109375 386.386025975 799.032226562 367.01292902 784.3828125 c 0
 366.80728332 783.575195312 364.044846755 773.5 353.878104968 773.5 c 0
 351.574661124 773.5 345.589735243 774.197265625 342.031216613 781 c 1
323.271876669 890.01953125 m 1
 344.981278379 890.01953125 l 1
 328.645165598 904.942382812 334.950220353 899.005859375 334.850577591 899.09765625 c 2
 334.850577591 889.09765625 333.327315371 889.213867188 333.327315371 899.213867188 c 1
 333.327315371 889.213867188 323.271876669 880.01953125 323.271876669 890.01953125 c 1
EndSplineSet
Validated: 524325
EndChar

StartChar: Ecircumflex
Encoding: 202 202 25
Width: 644
GlyphClass: 2
Flags: HW
AnchorPoint: "Anchor-0" 291 0 basechar 0
LayerCount: 2
Fore
SplineSet
171.078125 793.883789062 m 0
 169.979492188 795.724609375 168.661132812 798.063476562 168.661132812 801.83203125 c 1
 188.661132812 801.83203125 l 1
 188.661132812 791.83203125 179.051757812 801.341796875 179.051757812 811.341796875 c 1
 179.051757812 801.341796875 178.299804688 803.28515625 178.299804688 813.28515625 c 1
 202.874799679 836.533203125 289.274614383 933.631835938 298.545631343 949.892578125 c 1
 298.310304821 948 l 1
 304.171207265 948 l 1
 304.171207265 938 304.171207265 948 304.171207265 958 c 1
 360.605051416 958 l 1
 360.605051416 948 360.605051416 938 360.605051416 948 c 1
 366.467013889 948 l 1
 366.467013889 938 368.955962874 935.842773438 368.955962874 945.842773438 c 1
 387.122746394 919.958984375 466.465820312 830.350585938 485.678710938 812.404296875 c 0
 486.200195312 811.916992188 486.67578125 811.131835938 487.068359375 810.793945312 c 1
 487.068359375 800.793945312 483.951171875 801.341796875 483.951171875 811.341796875 c 1
 483.951171875 801.341796875 474.338867188 791.83203125 474.338867188 801.83203125 c 1
 494.338867188 801.83203125 l 1
 494.338867188 784.206054688 446.324327257 757.6171875 445.701029981 757.302734375 c 0
 439.192449586 754.017578125 433.895482772 751.075195312 426.667142428 751.075195312 c 0
 420.279405382 751.075195312 415.10010183 753.528320312 404.027034923 762.252929688 c 0
 403.247913328 762.8671875 360.706814236 797.827148438 332.875742855 830.229492188 c 1
 320.202031584 815.650390625 258.336596888 753.870117188 243.465444712 752.0625 c 0
 241.336905716 751.216796875 239.455353566 751.106445312 238.019013755 751.106445312 c 0
 221.962748731 751.106445312 178.935546875 780.72265625 171.078125 793.883789062 c 0
352.681331798 950.5 m 1
 352.681331798 940.5 348.149706197 938 348.149706197 948 c 1
 357.180096488 948 l 1
 357.180096488 938 352.681331798 940.5 352.681331798 950.5 c 1
312.094926883 950.5 m 1
 312.094926883 940.5 307.564361311 938 307.564361311 948 c 1
 316.593691573 948 l 1
 316.593691573 938 312.094926883 940.5 312.094926883 950.5 c 1
574 110 m 1
 574 120 574 10 574 0 c 1
 80 0 l 1
 80 9.7275390625 80 704.272460938 80 714 c 1
 574 714 l 1
 574 704 574 594 574 604 c 1
 193 604 l 1
 193 594.666992188 193 464 193 464 c 1
 554 464 l 1
 554 354 l 1
 193 354 l 1
 193 354 193 119.606445312 193 110 c 1
 574 110 l 1
EndSplineSet
Validated: 524325
EndChar

StartChar: Edieresis
Encoding: 203 203 26
Width: 644
GlyphClass: 2
Flags: HW
AnchorPoint: "Anchor-0" 291 0 basechar 0
LayerCount: 2
Fore
SplineSet
216.841746795 895 m 0
 257.259607038 895 293.551832933 866.44921875 293.551832933 831 c 0
 293.551832933 793.55859375 257.997387487 764 216.841746795 764 c 0
 177.623046875 764 149 794.505859375 149 831 c 0
 149 865.489257812 178.2578125 895 216.841746795 895 c 0
447.487179487 895 m 0
 483.041992188 895 513 865.604492188 513 831 c 0
 513 794.400390625 483.682617188 764 447.487179487 764 c 0
 404.589910524 764 370.027652577 793.743164062 370.027652577 831 c 0
 370.027652577 866.255859375 405.320270767 895 447.487179487 895 c 0
574 110 m 1
 574 120 574 10 574 0 c 1
 80 0 l 1
 80 9.7275390625 80 704.272460938 80 714 c 1
 574 714 l 1
 574 704 574 594 574 604 c 1
 193 604 l 1
 193 594.666992188 193 464 193 464 c 1
 554 464 l 1
 554 354 l 1
 193 354 l 1
 193 354 193 119.606445312 193 110 c 1
 574 110 l 1
EndSplineSet
Validated: 524325
EndChar

StartChar: Edotaccent
Encoding: 278 278 27
Width: 644
GlyphClass: 2
Flags: HW
AnchorPoint: "Anchor-0" 291 0 basechar 0
LayerCount: 2
Fore
SplineSet
331.78921274 898 m 0
 373.436707065 898 410.894965278 868.454101562 410.894965278 832 c 0
 410.894965278 793.513671875 374.142686632 763 331.78921274 763 c 0
 287.294479501 763 251.486687033 793.662109375 251.486687033 832 c 0
 251.486687033 868.296875 287.993038862 898 331.78921274 898 c 0
574 110 m 1
 574 120 574 10 574 0 c 1
 80 0 l 1
 80 9.7275390625 80 704.272460938 80 714 c 1
 574 714 l 1
 574 704 574 594 574 604 c 1
 193 604 l 1
 193 594.666992188 193 464 193 464 c 1
 554 464 l 1
 554 354 l 1
 193 354 l 1
 193 354 193 119.606445312 193 110 c 1
 574 110 l 1
EndSplineSet
Validated: 524325
EndChar

StartChar: Egrave
Encoding: 200 200 28
Width: 644
GlyphClass: 2
Flags: HW
AnchorPoint: "Anchor-0" 291 0 basechar 0
LayerCount: 2
Fore
SplineSet
350.217823518 764 m 2
 349.100552551 763.6953125 348.045823317 763.563476562 347.192499666 763.563476562 c 0
 342.621652978 763.563476562 340.149664463 763.563476562 320.267753405 782.520507812 c 0
 283.808042869 817.28515625 207.97248097 898.21875 188.53125 925.220703125 c 0
 184.658203125 930.779296875 182.1953125 934.313476562 182.1953125 939 c 1
 202.382946047 939 l 1
 202.382946047 929 199.458007812 935.561523438 199.458007812 945.561523438 c 1
 206.684545272 943.412109375 232.868330996 941.5 258.1457916 941.5 c 0
 261.489124265 941.5 303.203400441 941.58203125 317.421574519 945.662109375 c 1
 317.421574519 935.662109375 313.909697182 929 313.909697182 939 c 1
 335.619098892 939 l 1
 335.619098892 929 338.4949586 926.057617188 338.4949586 936.057617188 c 1
 358.142603165 907.083984375 443.978482238 805.491210938 465.064453125 784.836914062 c 0
 466.764648438 783.107421875 467.760742188 782.291992188 467.760742188 782.291992188 c 1
 467.760742188 772.291992188 466.198242188 773.052734375 466.198242188 783.052734375 c 2
 463.151367188 783.563476562 l 1
 463.151367188 773.563476562 453.432884282 764 453.432884282 774 c 1
 453.432884282 764 463.477539062 754 463.477539062 764 c 1
 350.217823518 764 l 2
574 110 m 1
 574 120 574 10 574 0 c 1
 80 0 l 1
 80 9.7275390625 80 704.272460938 80 714 c 1
 574 714 l 1
 574 704 574 594 574 604 c 1
 193 604 l 1
 193 594.666992188 193 464 193 464 c 1
 554 464 l 1
 554 354 l 1
 193 354 l 1
 193 354 193 119.606445312 193 110 c 1
 574 110 l 1
EndSplineSet
Validated: 524325
EndChar

StartChar: Emacron
Encoding: 274 274 29
Width: 644
GlyphClass: 2
Flags: HW
AnchorPoint: "Anchor-0" 291 0 basechar 0
LayerCount: 2
Fore
SplineSet
569 760 m 1
 95 760 l 1
 95 750 95 849 95 859 c 1
 569 859 l 1
 569 849 569 750 569 760 c 1
574 110 m 1
 574 120 574 10 574 0 c 1
 80 0 l 1
 80 9.7275390625 80 704.272460938 80 714 c 1
 574 714 l 1
 574 704 574 594 574 604 c 1
 193 604 l 1
 193 594.666992188 193 464 193 464 c 1
 554 464 l 1
 554 354 l 1
 193 354 l 1
 193 354 193 119.606445312 193 110 c 1
 574 110 l 1
EndSplineSet
Validated: 524325
EndChar

StartChar: Eogonek
Encoding: 280 280 30
Width: 644
GlyphClass: 2
Flags: HW
AnchorPoint: "Anchor-0" 291 0 basechar 0
LayerCount: 2
Fore
SplineSet
574 13.826171875 m 1
 567.057617188 3.658203125 548.1953125 -23.96875 548.1953125 -41.0693359375 c 0
 548.1953125 -44.7978515625 548.1953125 -51.580078125 568.5390625 -51.580078125 c 0
 594.612304688 -51.580078125 611.909179688 -42.7802734375 652 -22.3828125 c 1
 652 -12.3828125 652 -118.118164062 652 -128.118164062 c 1
 633.216796875 -137.930664062 608.227539062 -150.985351562 565.372070312 -150.985351562 c 0
 516.575708634 -150.985351562 448.114633413 -129.227539062 448.114633413 -64.0556640625 c 0
 448.114633413 -44.6962890625 454.340256911 -23.5400390625 467.185346554 0 c 1
 80 0 l 1
 80 9.7275390625 80 704.272460938 80 714 c 1
 574 714 l 1
 574 704 574 594 574 604 c 1
 193 604 l 1
 193 594.666992188 193 464 193 464 c 1
 554 464 l 1
 554 354 l 1
 193 354 l 1
 193 354 193 119.606445312 193 110 c 1
 574 110 l 1
 574 120 574 23.826171875 574 13.826171875 c 1
EndSplineSet
Validated: 524325
EndChar

StartChar: F
Encoding: 70 70 31
Width: 575
GlyphClass: 2
Flags: HW
LayerCount: 2
Fore
SplineSet
193 354 m 1
 193 354 193 9.7255859375 193 0 c 1
 80 0 l 1
 80 9.7275390625 80 704.272460938 80 714 c 1
 545 714 l 1
 545 704 545 594 545 604 c 1
 193 604 l 1
 193 594.666992188 193 464 193 464 c 1
 522 464 l 1
 522 354 l 1
 193 354 l 1
EndSplineSet
Validated: 524325
EndChar

StartChar: G
Encoding: 71 71 32
Width: 876
GlyphClass: 2
Flags: HW
AnchorPoint: "Anchor-0" 403 0 basechar 0
LayerCount: 2
Fore
SplineSet
799.387695312 496 m 1
 703.416992188 496 l 1
 701.170898438 491.887695312 697.568359375 490.151367188 694.0390625 490.151367188 c 0
 690.108398438 490.151367188 682.89183624 492.125976562 682.067117854 506.165039062 c 1
 628.134795906 568.801757812 541.028100775 610 444.979348353 610 c 0
 277.167923328 610 146 495.034179688 146 360.711914062 c 0
 146 218.560546875 277.433699734 104 444.979348353 104 c 0
 549.091675751 104 640.313847505 152.416015625 693 226.067382812 c 1
 693 236.067382812 693 411 693 401 c 1
 806 401 l 1
 806 411 806 10 806 0 c 1
 693 0 l 1
 693 10 693 75.3466796875 693 65.3466796875 c 1
 624.011203973 18.2919921875 537.73227047 -9 444.979348353 -9 c 0
 212.066905887 -9 30 156.327148438 30 360.790039062 c 0
 30 558 212.283990431 723 444.979348353 723 c 0
 583.609132752 723 721.873046875 659.11328125 800.649414062 523.715820312 c 1
 800.649414062 513.715820312 800.649414062 511.018554688 800.649414062 521.018554688 c 2
 800.649414062 518.03125 803.599609375 510.959960938 804.099609375 510.357421875 c 1
 802.720703125 511.729492188 800.119140625 511.879882812 798.192382812 512.705078125 c 1
 798.192382812 502.705078125 789.505859375 495.881835938 789.505859375 505.881835938 c 1
 789.505859375 495.881835938 799.387695312 486 799.387695312 496 c 1
EndSplineSet
Validated: 524325
EndChar

StartChar: Gbreve
Encoding: 286 286 33
Width: 876
GlyphClass: 2
Flags: HW
AnchorPoint: "Anchor-0" 403 0 basechar 0
LayerCount: 2
Fore
SplineSet
368.949037064 908.665039062 m 1
 368.949037064 898.665039062 362.412154797 893.217773438 362.412154797 903.217773438 c 1
 362.412154797 893.217773438 375.325641957 893.88671875 375.325641957 903.88671875 c 1
 375.325641957 893.88671875 368.949037064 898.665039062 368.949037064 908.665039062 c 1
378.797980257 904.06640625 m 1
 378.797980257 894.06640625 379.504012234 894.102539062 379.504012234 904.102539062 c 1
 380.707106953 893.256835938 385.556004724 860 444.979348353 860 c 0
 478.576732074 860 503.592175388 871.52734375 507.208560441 904.102539062 c 1
 507.208560441 894.102539062 507.916621245 894.06640625 507.916621245 904.06640625 c 1
 508.036322069 906.231445312 508.144864341 909.149414062 508.144864341 912 c 2
 508.144864341 902 508.144864341 912 508.144864341 922 c 1
 616.73887173 922 l 1
 619.38040516 897.23046875 619.38040516 897.224609375 619.38040516 890.5625 c 0
 619.38040516 810.826171875 543.369367733 761 444.979348353 761 c 0
 345.669255693 761 269.495912064 810.763671875 269.495912064 890.567382812 c 0
 269.495912064 897.23046875 269.542575097 897.673828125 272.137445494 922 c 1
 378.567708333 922 l 1
 378.567708333 912 378.567708333 902 378.567708333 912 c 2
 378.567708333 909.157226562 378.678279433 906.232421875 378.797980257 904.06640625 c 1
517.762521197 908.665039062 m 1
 517.762521197 898.665039062 511.591842297 893.875976562 511.591842297 903.875976562 c 1
 511.591842297 893.875976562 524.315634084 893.216796875 524.315634084 903.216796875 c 1
 524.315634084 893.216796875 517.762521197 898.665039062 517.762521197 908.665039062 c 1
799.387695312 496 m 1
 703.416992188 496 l 1
 701.170898438 491.887695312 697.568359375 490.151367188 694.0390625 490.151367188 c 0
 690.108398438 490.151367188 682.89183624 492.125976562 682.067117854 506.165039062 c 1
 628.134795906 568.801757812 541.028100775 610 444.979348353 610 c 0
 277.167923328 610 146 495.034179688 146 360.711914062 c 0
 146 218.560546875 277.433699734 104 444.979348353 104 c 0
 549.091675751 104 640.313847505 152.416015625 693 226.067382812 c 1
 693 236.067382812 693 411 693 401 c 1
 806 401 l 1
 806 411 806 10 806 0 c 1
 693 0 l 1
 693 10 693 75.3466796875 693 65.3466796875 c 1
 624.011203973 18.2919921875 537.73227047 -9 444.979348353 -9 c 0
 212.066905887 -9 30 156.327148438 30 360.790039062 c 0
 30 558 212.283990431 723 444.979348353 723 c 0
 583.609132752 723 721.873046875 659.11328125 800.649414062 523.715820312 c 1
 800.649414062 513.715820312 800.649414062 511.018554688 800.649414062 521.018554688 c 2
 800.649414062 518.03125 803.599609375 510.959960938 804.099609375 510.357421875 c 1
 802.720703125 511.729492188 800.119140625 511.879882812 798.192382812 512.705078125 c 1
 798.192382812 502.705078125 789.505859375 495.881835938 789.505859375 505.881835938 c 1
 789.505859375 495.881835938 799.387695312 486 799.387695312 496 c 1
EndSplineSet
Validated: 524325
EndChar

StartChar: Gcommaaccent
Encoding: 290 290 34
Width: 876
GlyphClass: 2
Flags: HW
AnchorPoint: "Anchor-0" 403 0 basechar 0
LayerCount: 2
Fore
SplineSet
799.387695312 496 m 1
 703.416992188 496 l 1
 701.170898438 491.887695312 697.568359375 490.151367188 694.0390625 490.151367188 c 0
 690.108398438 490.151367188 682.89183624 492.125976562 682.067117854 506.165039062 c 1
 628.134795906 568.801757812 541.028100775 610 444.979348353 610 c 0
 277.167923328 610 146 495.034179688 146 360.711914062 c 0
 146 218.560546875 277.433699734 104 444.979348353 104 c 0
 549.091675751 104 640.313847505 152.416015625 693 226.067382812 c 1
 693 236.067382812 693 411 693 401 c 1
 806 401 l 1
 806 411 806 10 806 0 c 1
 693 0 l 1
 693 10 693 75.3466796875 693 65.3466796875 c 1
 624.011203973 18.2919921875 537.73227047 -9 444.979348353 -9 c 0
 212.066905887 -9 30 156.327148438 30 360.790039062 c 0
 30 558 212.283990431 723 444.979348353 723 c 0
 583.609132752 723 721.873046875 659.11328125 800.649414062 523.715820312 c 1
 800.649414062 513.715820312 800.649414062 511.018554688 800.649414062 521.018554688 c 2
 800.649414062 518.03125 803.599609375 510.959960938 804.099609375 510.357421875 c 1
 802.720703125 511.729492188 800.119140625 511.879882812 798.192382812 512.705078125 c 1
 798.192382812 502.705078125 789.505859375 495.881835938 789.505859375 505.881835938 c 1
 789.505859375 495.881835938 799.387695312 486 799.387695312 496 c 1
376.364401647 -254 m 1
 376.364401647 -244 376.364401647 -234 376.364401647 -244 c 2
 376.364401647 -229.4921875 394.660368217 -169.2578125 394.898755451 -168.517578125 c 0
 372.393986192 -155.103515625 357.762082122 -131.653320312 357.762082122 -105 c 0
 357.762082122 -63.359375 394.888611313 -30 439.568465359 -30 c 0
 483.456062258 -30 520.292469113 -63.5322265625 520.292469113 -105 c 0
 520.292469113 -125.38671875 512.000651042 -141.716796875 505.97807655 -152.268554688 c 0
 447.913032946 -254 447.913032946 -254 447.913032946 -254 c 1
 447.913032946 -244 376.364401647 -244 376.364401647 -254 c 1
EndSplineSet
Validated: 524325
EndChar

StartChar: Gdotaccent
Encoding: 288 288 35
Width: 876
GlyphClass: 2
Flags: HW
AnchorPoint: "Anchor-0" 403 0 basechar 0
LayerCount: 2
Fore
SplineSet
444.979348353 898 m 0
 483.403312742 898 517.046345082 867.961914062 517.046345082 832 c 0
 517.046345082 794.004882812 484.05558079 763 444.979348353 763 c 0
 403.976744186 763 371.829972141 794.149414062 371.829972141 832 c 0
 371.829972141 867.807617188 404.621911337 898 444.979348353 898 c 0
799.387695312 496 m 1
 703.416992188 496 l 1
 701.170898438 491.887695312 697.568359375 490.151367188 694.0390625 490.151367188 c 0
 690.108398438 490.151367188 682.89183624 492.125976562 682.067117854 506.165039062 c 1
 628.134795906 568.801757812 541.028100775 610 444.979348353 610 c 0
 277.167923328 610 146 495.034179688 146 360.711914062 c 0
 146 218.560546875 277.433699734 104 444.979348353 104 c 0
 549.091675751 104 640.313847505 152.416015625 693 226.067382812 c 1
 693 236.067382812 693 411 693 401 c 1
 806 401 l 1
 806 411 806 10 806 0 c 1
 693 0 l 1
 693 10 693 75.3466796875 693 65.3466796875 c 1
 624.011203973 18.2919921875 537.73227047 -9 444.979348353 -9 c 0
 212.066905887 -9 30 156.327148438 30 360.790039062 c 0
 30 558 212.283990431 723 444.979348353 723 c 0
 583.609132752 723 721.873046875 659.11328125 800.649414062 523.715820312 c 1
 800.649414062 513.715820312 800.649414062 511.018554688 800.649414062 521.018554688 c 2
 800.649414062 518.03125 803.599609375 510.959960938 804.099609375 510.357421875 c 1
 802.720703125 511.729492188 800.119140625 511.879882812 798.192382812 512.705078125 c 1
 798.192382812 502.705078125 789.505859375 495.881835938 789.505859375 505.881835938 c 1
 789.505859375 495.881835938 799.387695312 486 799.387695312 496 c 1
EndSplineSet
Validated: 524325
EndChar

StartChar: H
Encoding: 72 72 36
Width: 798
GlyphClass: 2
Flags: HW
LayerCount: 2
Fore
SplineSet
193 330 m 1
 193 330 193 9.7060546875 193 0 c 1
 80 0 l 1
 80 9.7275390625 80 704.272460938 80 714 c 1
 193 714 l 1
 193 704.352539062 193 440 193 440 c 1
 608 440 l 1
 608 440 608 704.352539062 608 714 c 1
 718 714 l 1
 718 704.272460938 718 9.7275390625 718 0 c 1
 608 0 l 1
 608 9.7060546875 608 330 608 330 c 1
 193 330 l 1
EndSplineSet
Validated: 524289
EndChar

StartChar: Hbar
Encoding: 294 294 37
Width: 798
GlyphClass: 2
Flags: HW
LayerCount: 2
Fore
SplineSet
193 569 m 1
 608 569 l 1
 608 559 608 704 608 714 c 1
 718 714 l 1
 718 704.272460938 718 573.583984375 718 579.650390625 c 1
 723.639648438 580.68359375 729.311523438 581.20703125 735 581.20703125 c 0
 750.141601562 581.20703125 759.609375 578.112304688 772 574.0625 c 1
 772 568.147460938 772 485.924804688 772 489.536132812 c 1
 752.881835938 493.842773438 747.349609375 495.08984375 735 495.08984375 c 0
 729.34765625 495.08984375 723.684570312 494.65234375 718 493.770507812 c 1
 718 490.043945312 718 9.7275390625 718 0 c 1
 608 0 l 1
 608 9.7060546875 608 330 608 330 c 1
 193 330 l 1
 193 330 193 9.7060546875 193 0 c 1
 80 0 l 1
 80 9.7275390625 80 489.998046875 80 493.723632812 c 1
 73.982421875 494.63671875 67.986328125 495.08984375 62 495.08984375 c 0
 52.1787109375 495.08984375 49.111328125 495.08984375 24 489.634765625 c 1
 24 486.020507812 24 568.225585938 24 574.142578125 c 1
 36.630859375 578.124023438 46.4140625 581.20703125 62 581.20703125 c 0
 68.021484375 581.20703125 74.0263671875 580.658203125 80 579.571289062 c 1
 80 573.506835938 80 704.272460938 80 714 c 1
 193 714 l 1
 193 704 193 559 193 569 c 1
193 500 m 1
 193 440 l 1
 608 440 l 1
 608 500 l 1
 193 500 l 1
EndSplineSet
Validated: 524325
EndChar

StartChar: I
Encoding: 73 73 38
Width: 273
GlyphClass: 2
Flags: HW
LayerCount: 2
Fore
SplineSet
193 714 m 1
 193 704.272460938 193 9.7275390625 193 0 c 1
 80 0 l 1
 80 9.7275390625 80 704.272460938 80 714 c 1
 193 714 l 1
EndSplineSet
Validated: 524289
EndChar

StartChar: IJ
Encoding: 306 306 39
Width: 556
GlyphClass: 2
Flags: HW
LayerCount: 2
Fore
SplineSet
193 714 m 1
 193 704.272460938 193 9.7275390625 193 0 c 1
 80 0 l 1
 80 9.7275390625 80 704.272460938 80 714 c 1
 193 714 l 1
123 -200 m 1
 123 -190 123 -77 123 -87 c 1
 129.666992188 -97 136.333007812 -97 143 -87 c 0
 201.435807292 -87 253.411979167 -73.4814453125 290.820833333 -49.4462890625 c 0
 337.364973958 -20.3046875 363 25.40234375 363 85.912109375 c 2
 363 92.201171875 363 704.254882812 363 714 c 1
 476 714 l 1
 476 704.23828125 476 90.09765625 476 84.8388671875 c 2
 476 8.6123046875 455.014648438 -55.7880859375 414.197265625 -103.77734375 c 0
 360.384700521 -167.14453125 257.961914062 -200 143 -200 c 0
 136.333007812 -210 129.666992188 -210 123 -200 c 1
EndSplineSet
Validated: 524325
EndChar

StartChar: Iacute
Encoding: 205 205 40
Width: 273
GlyphClass: 2
Flags: HW
LayerCount: 2
Fore
SplineSet
137.94921875 940.823242188 m 1
 137.795898438 940.094726562 137.776367188 939 137.776367188 939 c 1
 157.776367188 939 l 1
 157.776367188 929 154.938476562 935.482421875 154.938476562 945.482421875 c 1
 160.721679688 943.465820312 182.887695312 941.5 204.244140625 941.5 c 0
 208.629882812 941.5 240.833984375 941.631835938 253.713867188 945.430664062 c 1
 253.713867188 935.430664062 250.712890625 929 250.712890625 939 c 1
 270.712890625 939 l 1
 270.712890625 932.319335938 261.288085938 919.518554688 249.66015625 903.724609375 c 0
 248.603515625 902.2890625 156.623046875 780.950195312 136.296875 766.165039062 c 0
 135.365234375 765.486328125 134.083007812 763.563476562 129.047851562 763.563476562 c 0
 128.2421875 763.563476562 127.297851562 763.705078125 126.317382812 764 c 2
 29.431640625 764 l 1
 29.431640625 754 39.431640625 764 39.431640625 774 c 1
 35.638671875 777.858398438 31.5927734375 781.463867188 28 785.522460938 c 1
 51.6025390625 812.318359375 131.157226562 924.918945312 137.94921875 940.823242188 c 1
193.909179688 714 m 1
 193.909179688 704.272460938 193.909179688 9.7275390625 193.909179688 0 c 1
 80.9091796875 0 l 1
 80.9091796875 9.7275390625 80.9091796875 704.272460938 80.9091796875 714 c 1
 193.909179688 714 l 1
EndSplineSet
Validated: 524293
EndChar

StartChar: Icircumflex
Encoding: 206 206 41
Width: 273
GlyphClass: 2
Flags: HW
LayerCount: 2
Fore
SplineSet
45.6474609375 757.38671875 m 0
 45.0859375 757.703125 -1 784.333984375 -1 801.83203125 c 1
 19 801.83203125 l 1
 15.333984375 805.58984375 11.373046875 809.052734375 7.9267578125 813.030273438 c 1
 30.6162109375 836.309570312 105.057617188 933.901367188 112.62890625 949.736328125 c 1
 112.443359375 948 l 1
 117.338867188 948 l 1
 117.338867188 938 117.338867188 948 117.338867188 958 c 1
 166.338867188 958 l 1
 166.338867188 948 166.338867188 938 166.338867188 948 c 1
 171.234375 948 l 1
 171.234375 938 173.438476562 935.59765625 173.438476562 945.59765625 c 1
 190.793945312 916.974609375 268.80859375 817.36328125 278.853515625 810.09765625 c 1
 278.853515625 800.09765625 277.137695312 800.904296875 277.137695312 810.904296875 c 2
 277.13671875 810.904296875 274.315429688 811.341796875 274.315429688 811.341796875 c 1
 274.315429688 801.341796875 264.678710938 791.83203125 264.678710938 801.83203125 c 1
 284.678710938 801.83203125 l 1
 284.678710938 784.33203125 238.5546875 757.677734375 237.9921875 757.361328125 c 0
 232.163085938 754.076171875 227.400390625 751.075195312 220.70703125 751.075195312 c 0
 214.848632812 751.075195312 208.962890625 751.643554688 175.9765625 788.423828125 c 0
 172.896484375 791.857421875 154.565429688 812.333984375 142.241210938 829.209960938 c 1
 125.53125 806.606445312 88.2587890625 765.26171875 74.6884765625 755.497070312 c 0
 74.4501953125 755.325195312 68.375 750.994140625 62.923828125 751.106445312 c 0
 56.2333984375 751.106445312 51.4716796875 754.104492188 45.6474609375 757.38671875 c 0
158.787109375 950.5 m 1
 158.787109375 940.5 154.649414062 938 154.649414062 948 c 1
 162.841796875 948 l 1
 162.841796875 938 158.787109375 940.5 158.787109375 950.5 c 1
124.891601562 950.5 m 1
 124.891601562 940.5 120.75390625 938 120.75390625 948 c 1
 128.946289062 948 l 1
 128.946289062 938 124.891601562 940.5 124.891601562 950.5 c 1
197.338867188 714 m 1
 197.338867188 704.272460938 197.338867188 9.7275390625 197.338867188 0 c 1
 84.3388671875 0 l 1
 84.3388671875 9.7275390625 84.3388671875 704.272460938 84.3388671875 714 c 1
 197.338867188 714 l 1
EndSplineSet
Validated: 524293
EndChar

StartChar: Idieresis
Encoding: 207 207 42
Width: 273
GlyphClass: 2
Flags: HW
LayerCount: 2
Fore
SplineSet
41 895 m 0
 76.0419921875 895 106 865.604492188 106 831 c 0
 106 794.400390625 76.6826171875 764 41 764 c 0
 3.552734375 764 -25 794.548828125 -25 831 c 0
 -25 865.447265625 4.1865234375 895 41 895 c 0
234 895 m 0
 269.041992188 895 299 865.604492188 299 831 c 0
 299 794.400390625 269.682617188 764 234 764 c 0
 196.552734375 764 168 794.548828125 168 831 c 0
 168 865.447265625 197.186523438 895 234 895 c 0
193 714 m 1
 193 704.272460938 193 9.7275390625 193 0 c 1
 80 0 l 1
 80 9.7275390625 80 704.272460938 80 714 c 1
 193 714 l 1
EndSplineSet
Validated: 524289
EndChar

StartChar: Idotaccent
Encoding: 304 304 43
Width: 273
GlyphClass: 2
Flags: HW
LayerCount: 2
Fore
SplineSet
137 898 m 0
 173.0703125 898 204 867.609375 204 832 c 0
 204 794.356445312 173.682617188 763 137 763 c 0
 98.5439453125 763 69 794.499023438 69 832 c 0
 69 867.45703125 99.150390625 898 137 898 c 0
193 714 m 1
 193 704.272460938 193 9.7275390625 193 0 c 1
 80 0 l 1
 80 9.7275390625 80 704.272460938 80 714 c 1
 193 714 l 1
EndSplineSet
Validated: 524289
EndChar

StartChar: Igrave
Encoding: 204 204 44
Width: 273
GlyphClass: 2
Flags: HW
LayerCount: 2
Fore
SplineSet
163.395507812 764 m 2
 162.4140625 763.705078125 161.470703125 763.563476562 160.665039062 763.563476562 c 0
 156.247070312 763.563476562 154.106445312 763.563476562 137.010742188 782.834960938 c 0
 106.1640625 817.609375 42.015625 898.548828125 24.744140625 925.549804688 c 0
 21.302734375 930.928710938 19 934.528320312 19 939 c 1
 39 939 l 1
 39 929 36.162109375 935.482421875 36.162109375 945.482421875 c 1
 41.9462890625 943.465820312 64.111328125 941.5 85.46875 941.5 c 0
 89.853515625 941.5 122.05859375 941.631835938 134.9375 945.430664062 c 1
 134.9375 935.430664062 131.936523438 929 131.936523438 939 c 1
 151.936523438 939 l 1
 151.936523438 929 154.443359375 925.745117188 154.443359375 935.745117188 c 1
 172.850585938 903.7421875 254.711914062 790.518554688 265.0390625 782.02734375 c 1
 263.794921875 782.981445312 261.870117188 783.254882812 259.98046875 783.563476562 c 1
 259.98046875 773.563476562 250.28125 764 250.28125 774 c 1
 250.28125 764 260.28125 754 260.28125 764 c 1
 163.395507812 764 l 2
203.8046875 714 m 1
 203.8046875 704.272460938 203.8046875 9.7275390625 203.8046875 0 c 1
 90.8046875 0 l 1
 90.8046875 9.7275390625 90.8046875 704.272460938 90.8046875 714 c 1
 203.8046875 714 l 1
EndSplineSet
Validated: 524293
EndChar

StartChar: Imacron
Encoding: 298 298 45
Width: 353
GlyphClass: 2
Flags: HW
LayerCount: 2
Fore
SplineSet
435 760 m 1
 -79 760 l 1
 -79 750 -79 849 -79 859 c 1
 435 859 l 1
 435 849 435 750 435 760 c 1
233 714 m 1
 233 704.272460938 233 9.7275390625 233 0 c 1
 120 0 l 1
 120 9.7275390625 120 704.272460938 120 714 c 1
 233 714 l 1
EndSplineSet
Validated: 524325
EndChar

StartChar: Iogonek
Encoding: 302 302 46
Width: 273
GlyphClass: 2
Flags: HW
LayerCount: 2
Fore
SplineSet
182.821289062 0 m 1
 170.07421875 -20.533203125 166.1953125 -34.6220703125 166.1953125 -41.0693359375 c 0
 166.1953125 -44.7978515625 166.1953125 -51.580078125 186.5390625 -51.580078125 c 0
 212.612304688 -51.580078125 229.909179688 -42.7802734375 270 -22.3828125 c 1
 270 -12.3828125 270 -118.118164062 270 -128.118164062 c 1
 251.216796875 -137.930664062 226.227539062 -150.985351562 183.372070312 -150.985351562 c 0
 135.362304688 -150.985351562 75.197265625 -128.79296875 75.197265625 -64.0556640625 c 0
 75.197265625 -46.03515625 79.9599609375 -26.3798828125 89.8134765625 -4.6142578125 c 1
 85.4287109375 -1.66796875 83 2.2890625 80 7.17578125 c 1
 80 16.900390625 80 704.275390625 80 714 c 1
 193 714 l 1
 193 704.272460938 193 9.7275390625 193 0 c 1
 189.607421875 -10 186.21484375 -10 182.821289062 0 c 1
EndSplineSet
Validated: 524325
EndChar

StartChar: J
Encoding: 74 74 47
Width: 393
GlyphClass: 2
Flags: HW
LayerCount: 2
Fore
SplineSet
0 -200 m 1
 0 -190 0 -77 0 -87 c 1
 6.6669921875 -97 13.3330078125 -97 20 -87 c 0
 72.44921875 -87 113.592773438 -73.5947265625 143.081054688 -49.7548828125 c 0
 179.817382812 -20.8125 200 25.0283203125 200 85.9052734375 c 2
 200 92.1884765625 200 704.254882812 200 714 c 1
 313 714 l 1
 313 704.239257812 313 90.103515625 313 84.841796875 c 2
 313 8.615234375 292.143554688 -55.6328125 251.326171875 -103.622070312 c 0
 200.157226562 -166.754882812 119.9140625 -200 20 -200 c 0
 13.3330078125 -210 6.6669921875 -210 0 -200 c 1
EndSplineSet
Validated: 524325
EndChar

StartChar: K
Encoding: 75 75 48
Width: 693
GlyphClass: 2
Flags: HW
AnchorPoint: "Anchor-0" 313 0 basechar 0
LayerCount: 2
Fore
SplineSet
557.935982322 17.97265625 m 1
 506.439435217 77.7890625 283.193053187 309.56640625 247.406863557 339.919921875 c 1
 234.985534149 330.409179688 203.232417424 299.3671875 193 282.974609375 c 1
 193 292.974609375 193 10 193 0 c 1
 80 0 l 1
 80 9.7275390625 80 704.272460938 80 714 c 1
 193 714 l 1
 193 704 193 393.46484375 193 403.46484375 c 1
 261.457270384 463.454101562 483.17336933 679.500976562 504.946200008 706.716796875 c 1
 504.946200008 696.716796875 504.520149438 694 504.520149438 704 c 1
 525.596274233 704 l 1
 525.596274233 694 522.655084552 700.524414062 522.655084552 710.524414062 c 1
 529.236228012 708.4375 553.631224997 706.5 577.157655121 706.5 c 0
 581.149563719 706.5 616.590820312 706.607421875 629.594726562 710.551757812 c 1
 629.594726562 700.551757812 626.47265625 694 626.47265625 704 c 1
 646.47265625 704 l 1
 646.47265625 700.45703125 646.47265625 698.84375 633.846679688 684.866210938 c 0
 606.7109375 654.823242188 443.669013739 497.75390625 333.56684384 397.038085938 c 1
 336.328968788 394.260742188 525.541731527 205.9921875 609.181640625 119.90625 c 0
 683.521484375 40.52734375 700.907226562 20.1201171875 703.5546875 14.7255859375 c 0
 703.924804688 13.97265625 704.704101562 13.0205078125 704.704101562 10 c 1
 684.704101562 10 l 1
 684.704101562 20 687.500976562 13.48046875 687.500976562 3.48046875 c 1
 681.310546875 5.55859375 658.27734375 7.5 636.065429688 7.5 c 0
 632.060546875 7.5 597.291992188 7.3818359375 584.298633146 3.4619140625 c 1
 584.298633146 13.4619140625 587.427734375 20 587.427734375 10 c 1
 566.49815802 10 l 1
 566.49815802 20 557.935982322 27.97265625 557.935982322 17.97265625 c 1
249.810859041 331.649414062 m 1
 249.571076958 331.4921875 249.317916474 331.319335938 249.050348484 331.130859375 c 1
 249.304538075 331.088867188 l 1
 259.638837156 340.873046875 l 1
 238.562712361 340.873046875 l 1
 248.18281073 331.891601562 l 1
 249.810859041 331.649414062 l 1
EndSplineSet
Validated: 524325
EndChar

StartChar: Kcommaaccent
Encoding: 310 310 49
Width: 693
GlyphClass: 2
Flags: HW
AnchorPoint: "Anchor-0" 313 0 basechar 0
LayerCount: 2
Fore
SplineSet
557.935982322 17.97265625 m 1
 506.439435217 77.7890625 283.193053187 309.56640625 247.406863557 339.919921875 c 1
 234.985534149 330.409179688 203.232417424 299.3671875 193 282.974609375 c 1
 193 292.974609375 193 10 193 0 c 1
 80 0 l 1
 80 9.7275390625 80 704.272460938 80 714 c 1
 193 714 l 1
 193 704 193 393.46484375 193 403.46484375 c 1
 261.457270384 463.454101562 483.17336933 679.500976562 504.946200008 706.716796875 c 1
 504.946200008 696.716796875 504.520149438 694 504.520149438 704 c 1
 525.596274233 704 l 1
 525.596274233 694 522.655084552 700.524414062 522.655084552 710.524414062 c 1
 529.236228012 708.4375 553.631224997 706.5 577.157655121 706.5 c 0
 581.149563719 706.5 616.590820312 706.607421875 629.594726562 710.551757812 c 1
 629.594726562 700.551757812 626.47265625 694 626.47265625 704 c 1
 646.47265625 704 l 1
 646.47265625 700.45703125 646.47265625 698.84375 633.846679688 684.866210938 c 0
 606.7109375 654.823242188 443.669013739 497.75390625 333.56684384 397.038085938 c 1
 336.328968788 394.260742188 525.541731527 205.9921875 609.181640625 119.90625 c 0
 683.521484375 40.52734375 700.907226562 20.1201171875 703.5546875 14.7255859375 c 0
 703.924804688 13.97265625 704.704101562 13.0205078125 704.704101562 10 c 1
 684.704101562 10 l 1
 684.704101562 20 687.500976562 13.48046875 687.500976562 3.48046875 c 1
 681.310546875 5.55859375 658.27734375 7.5 636.065429688 7.5 c 0
 632.060546875 7.5 597.291992188 7.3818359375 584.298633146 3.4619140625 c 1
 584.298633146 13.4619140625 587.427734375 20 587.427734375 10 c 1
 566.49815802 10 l 1
 566.49815802 20 557.935982322 27.97265625 557.935982322 17.97265625 c 1
249.810859041 331.649414062 m 1
 249.571076958 331.4921875 249.317916474 331.319335938 249.050348484 331.130859375 c 1
 249.304538075 331.088867188 l 1
 259.638837156 340.873046875 l 1
 238.562712361 340.873046875 l 1
 248.18281073 331.891601562 l 1
 249.810859041 331.649414062 l 1
277.896236081 -254 m 1
 277.896236081 -244 277.896236081 -234 277.896236081 -244 c 2
 277.896236081 -229.471679688 296.703178494 -169.288085938 296.948106117 -168.547851562 c 0
 273.847726562 -155.161132812 258.75895011 -131.716796875 258.75895011 -105 c 0
 258.75895011 -63.2392578125 297.007794361 -30 342.77324093 -30 c 0
 387.720546913 -30 425.674037267 -63.412109375 425.674037267 -105 c 0
 425.674037267 -125.424804688 417.131414614 -141.76953125 410.935157417 -152.321289062 c 0
 351.227360324 -254 351.227360324 -254 351.227360324 -254 c 1
 351.227360324 -244 277.896236081 -244 277.896236081 -254 c 1
EndSplineSet
Validated: 524325
EndChar

StartChar: L
Encoding: 76 76 50
Width: 592
GlyphClass: 2
Flags: HW
AnchorPoint: "Anchor-0" 275 0 basechar 0
LayerCount: 2
Fore
SplineSet
562 110 m 1
 562 120 562 10 562 0 c 1
 80 0 l 1
 80 9.7275390625 80 704.272460938 80 714 c 1
 193 714 l 1
 193 704.3203125 193 119.6796875 193 110 c 1
 562 110 l 1
EndSplineSet
Validated: 524325
EndChar

StartChar: Lacute
Encoding: 313 313 51
Width: 592
GlyphClass: 2
Flags: HW
AnchorPoint: "Anchor-0" 275 0 basechar 0
LayerCount: 2
Fore
SplineSet
334.186450942 939 m 1
 355.933175832 939 l 1
 355.933175832 935.065429688 355.933175832 932.079101562 330.812947769 903.380859375 c 0
 327.066734614 899.100585938 212.547079694 772.399414062 194.40625 764.421875 c 0
 186.993164062 758.672851562 166.3671875 756.5 139.640625 756.5 c 0
 86.205078125 756.5 80 764.984375 80 774 c 1
 100 774 l 1
 96.2587890625 777.88671875 92.099609375 781.353515625 88.6884765625 785.5703125 c 1
 112.58984375 812.362304688 193.168945312 924.966796875 200.045898438 940.865234375 c 1
 199.889648438 940.124023438 199.86328125 939 199.86328125 939 c 1
 221.381686681 939 l 1
 221.381686681 929 218.419120156 935.568359375 218.419120156 945.568359375 c 1
 225.804299434 943.407226562 252.248656694 941.5 277.784068811 941.5 c 0
 280.847511258 941.5 323.460685897 941.572265625 337.728788551 945.68359375 c 1
 337.728788551 935.68359375 334.186450942 929 334.186450942 939 c 1
571.477539062 110 m 1
 571.477539062 120 571.477539062 10 571.477539062 0 c 1
 89.4775390625 0 l 1
 89.4775390625 9.7275390625 89.4775390625 704.272460938 89.4775390625 714 c 1
 202.477539062 714 l 1
 202.477539062 704.3203125 202.691602083 119.6796875 202.691602083 110 c 1
 571.477539062 110 l 1
EndSplineSet
Validated: 524325
EndChar

StartChar: Lcaron
Encoding: 317 317 52
Width: 592
GlyphClass: 2
Flags: HW
AnchorPoint: "Anchor-0" 275 0 basechar 0
LayerCount: 2
Fore
SplineSet
331.513258222 517.135742188 m 1
 331.513258222 507.135742188 322.859166041 503.272460938 322.859166041 513.272460938 c 1
 325.010477791 518.265625 336.308580957 551.875976562 343.026917303 582.176757812 c 1
 317.177197052 595.2578125 299.923167133 619.2890625 299.923167133 647 c 0
 299.923167133 689.0703125 340.992409252 722 389.427717317 722 c 0
 437.356522073 722 472 688.34765625 472 647 c 0
 472 626.72265625 464.63671875 610.288085938 458.806640625 599.879882812 c 0
 402.618040393 505.217773438 402.618040393 505.217773438 402.618040393 505.217773438 c 1
 401.757940434 494.82421875 394.267637828 490.5 388.255432928 490.5 c 0
 381.74840509 490.5 376.147136838 495.118164062 374.453483215 501.760742188 c 1
 368.662143491 504.35546875 363.222276713 505.5 357.969295852 505.5 c 0
 351.363515796 505.5 344.458293532 503.688476562 336.935073519 499.4609375 c 1
 336.935073519 489.4609375 342.149827716 498 342.149827716 508 c 1
 342.149827716 498 331.513258222 507.135742188 331.513258222 517.135742188 c 1
562 110 m 1
 562 120 562 10 562 0 c 1
 80 0 l 1
 80 9.7275390625 80 704.272460938 80 714 c 1
 193 714 l 1
 193 704.3203125 193 119.6796875 193 110 c 1
 562 110 l 1
EndSplineSet
Validated: 524325
EndChar

StartChar: Lcommaaccent
Encoding: 315 315 53
Width: 592
GlyphClass: 2
Flags: HW
AnchorPoint: "Anchor-0" 275 0 basechar 0
LayerCount: 2
Fore
SplineSet
562 110 m 1
 562 120 562 10 562 0 c 1
 80 0 l 1
 80 9.7275390625 80 704.272460938 80 714 c 1
 193 714 l 1
 193 704.3203125 193 119.6796875 193 110 c 1
 562 110 l 1
263.217074065 -254 m 1
 263.217074065 -244 263.217074065 -234 263.217074065 -244 c 2
 263.217074065 -230.067382812 282.082995019 -172.8046875 283.557907171 -168.627929688 c 1
 258.980285378 -155.310546875 242.736076522 -131.887695312 242.736076522 -105 c 0
 242.736076522 -62.9296875 283.806380493 -30 332.241688558 -30 c 0
 379.795659627 -30 420.554841021 -63.1005859375 420.554841021 -105 c 0
 420.554841021 -125.52734375 411.378317754 -141.908203125 404.749176958 -152.45703125 c 0
 340.937192959 -254 340.937192959 -254 340.937192959 -254 c 1
 340.937192959 -244 263.217074065 -244 263.217074065 -254 c 1
EndSplineSet
Validated: 524325
EndChar

StartChar: Ldot
Encoding: 319 319 54
Width: 592
GlyphClass: 2
Flags: HW
AnchorPoint: "Anchor-0" 275 0 basechar 0
LayerCount: 2
Fore
SplineSet
562 110 m 1
 562 120 562 10 562 0 c 1
 80 0 l 1
 80 9.7275390625 80 704.272460938 80 714 c 1
 193 714 l 1
 193 704.3203125 193 119.6796875 193 110 c 1
 562 110 l 1
383.470728712 383 m 0
 428.357328057 383 467 347.427734375 467 309 c 0
 467 268.729492188 430.226187227 232 383.470728712 232 c 0
 332.362739663 232 293.966178528 269.008789062 293.966178528 309 c 0
 293.966178528 346.823242188 332.938263339 383 383.470728712 383 c 0
EndSplineSet
Validated: 524325
Ligature2: "Ligature Substitution lookup 4 subtable" L periodcentered
EndChar

StartChar: Lslash
Encoding: 321 321 55
Width: 592
GlyphClass: 2
Flags: HW
AnchorPoint: "Anchor-0" 275 0 basechar 0
LayerCount: 2
Fore
SplineSet
201.917708333 110 m 1
 562 110 l 1
 562 120 562 10 562 0 c 1
 80 0 l 1
 80 9.7275390625 80 258.193359375 80 255.42578125 c 1
 60.984375 246.9921875 26.6669921875 230.3046875 19.708984375 225.592773438 c 1
 20.1318359375 225.987304688 20.552734375 226.807617188 20.552734375 226.807617188 c 2
 21.458984375 228.041992188 21.650390625 229.971679688 22 231.748046875 c 1
 2 231.748046875 l 1
 2 235.16015625 2 313.840820312 2 312.631835938 c 2
 2 319.276367188 2.1005859375 319.422851562 39.9814453125 337.637695312 c 0
 40.380859375 337.830078125 62.03125 348.237304688 80 356.643554688 c 1
 80 356.653320312 80 704.272460938 80 714 c 1
 193 714 l 1
 193 704.3203125 193 412.6484375 193 412.669921875 c 1
 317.111362241 460.830078125 315.308337882 461.040039062 315.521770094 461.015625 c 0
 315.521770094 460.84765625 313.454344637 459.662109375 313.454344637 459.662109375 c 2
 311.958195449 458.004882812 310.965364015 455.8984375 310.645746623 453.194335938 c 1
 332.392471513 453.194335938 l 1
 332.392471513 451.874023438 332.392471513 374.344726562 332.392471513 373.09765625 c 1
 310.645746623 373.09765625 l 1
 310.645746623 374.344726562 321.490439069 364.986328125 321.490439069 363.4296875 c 1
 321.490439069 364.986328125 320.466813933 363.956054688 320.466813933 362.365234375 c 1
 302.326041667 354.586914062 222.846875 322.25390625 201.917708333 312.366210938 c 1
 201.917708333 315.559570312 201.917708333 119.6796875 201.917708333 110 c 1
EndSplineSet
Validated: 524325
EndChar

StartChar: M
Encoding: 77 77 56
Width: 972
GlyphClass: 2
Flags: HW
LayerCount: 2
Fore
SplineSet
193 479.46484375 m 1
 193 489.46484375 193 10 193 0 c 1
 80 0 l 1
 80 9.7275390625 80 704.272460938 80 714 c 1
 199.815464906 714 l 1
 199.815464906 704 199.815464906 694 199.815464906 704 c 1
 199.815464906 694 208.974535753 674.146484375 208.974535753 684.146484375 c 2
 253.339259097 585.6328125 444.440203797 186.631835938 486.794966566 104.689453125 c 1
 486.794966566 94.689453125 487.22971659 100.217773438 487.22971659 110.217773438 c 1
 536.803351845 214.8359375 732.010156652 653.763671875 750.567916383 702.764648438 c 0
 750.736761159 703.211914062 751.329234447 703.626953125 751.464714687 704 c 2
 772.170948372 704 l 1
 772.170948372 694 769.154996464 700.340820312 769.154996464 710.340820312 c 1
 773.828053695 708.555664062 793.479492188 706.5 812.208984375 706.5 c 0
 830.653320312 706.5 849.814453125 708.374023438 854.638671875 710.045898438 c 1
 854.638671875 700.045898438 852 694 852 704 c 1
 852 694 871.99609375 694.28515625 871.99609375 704.28515625 c 1
 871.99609375 694.560546875 892.284179688 9.7236328125 892.284179688 0 c 1
 892.284179688 10 779.384765625 10 779.384765625 0 c 1
 779.384765625 10 759.898865146 489.125976562 759.898865146 479.125976562 c 1
 731.32163394 418.798828125 673.851724999 292.720703125 625.996868907 185.98046875 c 0
 587.917822068 101.045898438 555.696779036 27.76171875 549.337296132 10.6708984375 c 0
 549.249335081 10.435546875 548.75190017 10.2109375 548.676071677 10 c 2
 527.969837993 10 l 1
 527.969837993 20 530.984778854 13.6533203125 530.984778854 3.6533203125 c 1
 526.262180341 5.4482421875 506.007884472 7.5 486.515917714 7.5 c 0
 467.297944575 7.5 447.329774884 5.62109375 442.31599496 3.9384765625 c 1
 442.31599496 13.9384765625 445.063008482 20 445.063008482 10 c 1
 424.356774797 10 l 1
 424.356774797 20 416.756737756 36.0341796875 416.756737756 26.0341796875 c 1
 381.456046881 102.939453125 244.20647546 380.6953125 193 479.46484375 c 1
475.640089797 95.2890625 m 1
 496.346323481 95.2890625 l 1
 492.858212826 98.564453125 489.515692877 101.981445312 485.936588031 105.168945312 c 1
 475.640089797 95.2890625 l 1
EndSplineSet
Validated: 524325
EndChar

StartChar: N
Encoding: 78 78 57
Width: 848
GlyphClass: 2
Flags: HW
AnchorPoint: "Anchor-0" 386 0 basechar 0
LayerCount: 2
Fore
SplineSet
193 576.784179688 m 1
 193 586.784179688 193 10 193 0 c 1
 80 0 l 1
 80 9.7275390625 80 704.272460938 80 714 c 1
 203.087890625 714 l 1
 203.087890625 704 203.087890625 694 203.087890625 704 c 1
 203.087890625 694 217.102665251 676.83984375 217.102665251 686.83984375 c 1
 288.220800534 591.625 578.815864965 226.94921875 655 137.193359375 c 1
 655 127.193359375 655 704 655 714 c 1
 768 714 l 1
 768 704.276367188 768 19.7236328125 768 10 c 1
 748 10 l 1
 748 20 750.899414062 13.6123046875 750.899414062 3.6123046875 c 1
 746.004882812 5.47265625 725.732421875 7.5 706.22265625 7.5 c 0
 686.829101562 7.5 666.668945312 5.5888671875 661.693359375 3.830078125 c 1
 661.693359375 13.830078125 664.4453125 20 664.4453125 10 c 1
 643.956570125 10 l 1
 643.956570125 20 629.955078677 37.1650390625 629.955078677 27.1650390625 c 1
 558.916642462 122.369140625 268.673071359 486.983398438 193 576.784179688 c 1
EndSplineSet
Validated: 524325
EndChar

StartChar: Nacute
Encoding: 323 323 58
Width: 848
GlyphClass: 2
Flags: HW
AnchorPoint: "Anchor-0" 386 0 basechar 0
LayerCount: 2
Fore
SplineSet
444.060067207 945.526367188 m 1
 450.62400073 943.436523438 474.910759121 941.5 498.333089156 941.5 c 0
 502.346652493 941.5 539.345412279 941.608398438 552.96373513 945.55859375 c 1
 552.96373513 935.55859375 549.689942632 929 549.689942632 939 c 1
 570.616056976 939 l 1
 570.616056976 935.188476562 570.616056976 932.19921875 547.524784609 903.549804688 c 0
 544.289819863 899.537109375 437.825147787 771.563476562 420.91974926 764.38671875 c 0
 412.950864213 758.650390625 390.406245712 756.5 361.299737254 756.5 c 0
 301.948454158 756.5 296.492133328 765.2578125 296.492133328 774 c 1
 317.418247673 774 l 1
 313.651955804 777.962890625 308.978320696 781.059570312 305.910928349 785.690429688 c 1
 331.308364782 812.029296875 416.834661118 922.494140625 426.181931334 940.454101562 c 1
 426.181931334 930.454101562 426.051143119 929 426.051143119 939 c 1
 446.977257464 939 l 1
 446.977257464 929 444.060067207 935.526367188 444.060067207 945.526367188 c 1
655 137.193359375 m 1
 655 127.193359375 655 704 655 714 c 1
 768 714 l 1
 768 704.276367188 768 19.7236328125 768 10 c 1
 748 10 l 1
 748 20 750.899414062 13.6123046875 750.899414062 3.6123046875 c 1
 746.004882812 5.47265625 725.732421875 7.5 706.22265625 7.5 c 0
 686.829101562 7.5 666.668945312 5.5888671875 661.693359375 3.830078125 c 1
 661.693359375 13.830078125 664.4453125 20 664.4453125 10 c 1
 643.956570125 10 l 1
 643.956570125 20 629.955078677 37.1650390625 629.955078677 27.1650390625 c 1
 558.916642462 122.369140625 268.673071359 486.983398438 193 576.784179688 c 1
 193 586.784179688 193 10 193 0 c 1
 80 0 l 1
 80 9.7275390625 80 704.272460938 80 714 c 1
 203.087890625 714 l 1
 203.087890625 704 203.087890625 694 203.087890625 704 c 1
 203.087890625 694 217.102665251 676.83984375 217.102665251 686.83984375 c 1
 288.220800534 591.625 578.815864965 226.94921875 655 137.193359375 c 1
EndSplineSet
Validated: 524325
EndChar

StartChar: Ncaron
Encoding: 327 327 59
Width: 848
GlyphClass: 2
Flags: HW
AnchorPoint: "Anchor-0" 386 0 basechar 0
LayerCount: 2
Fore
SplineSet
417.385402116 890.01953125 m 1
 438.31151646 890.01953125 l 1
 438.31151646 890.01953125 428.729236171 899.064453125 428.694495551 899.08203125 c 2
 428.694495551 889.08203125 427.117884495 889.213867188 427.117884495 899.213867188 c 1
 427.117884495 889.213867188 417.385402116 880.01953125 417.385402116 890.01953125 c 1
434.587117691 781 m 1
 420.120715011 781 l 1
 418.948729994 778.637695312 415.618739435 773.5 408.800381963 773.5 c 0
 401.968741314 773.5 397.556682635 778.8515625 396.241648008 784.462890625 c 0
 376.82572883 800.008789062 283.716781392 909.827148438 273.294595537 930.551757812 c 0
 272.539497954 932.052734375 271.464582315 933.3828125 271.464582315 937.16796875 c 1
 292.390696659 937.16796875 l 1
 292.390696659 927.16796875 284.048860844 935.545898438 284.048860844 945.545898438 c 1
 304.042087376 953.399414062 328.389130959 972.390625 332.86454018 978.06640625 c 1
 332.86454018 968.06640625 332.619312277 966.271484375 332.619312277 976.271484375 c 1
 353.545426622 976.271484375 l 1
 353.545426622 966.271484375 354.544730324 966.125976562 354.544730324 976.125976562 c 1
 364.70533975 960.75 412.794531425 911.4375 427.808609754 900.272460938 c 1
 447.399253813 915.01171875 497.851829398 969.759765625 501.426026076 978.361328125 c 1
 501.426026076 968.361328125 501.112338718 966.303710938 501.112338718 976.303710938 c 1
 522.038453062 976.303710938 l 1
 522.038453062 966.303710938 521.846357872 968.259765625 521.846357872 978.259765625 c 1
 528.096604036 969.65625 562.478577746 947.198242188 571.113665262 945.528320312 c 1
 570.940983947 945.54296875 570.659993642 945.546875 570.659993642 945.546875 c 1
 570.659993642 935.546875 562.317136043 927.16796875 562.317136043 937.16796875 c 1
 583.243250388 937.16796875 l 1
 583.243250388 933.6171875 583.243250388 930.489257812 563.339940753 904.760742188 c 0
 562.366181624 903.501953125 483.158590908 804.233398438 458.465162912 784.462890625 c 0
 458.248544931 783.537109375 455.672630172 773.5 445.907450739 773.5 c 0
 443.512391558 773.5 437.921195382 774.2734375 434.587117691 781 c 1
655 137.193359375 m 1
 655 127.193359375 655 704 655 714 c 1
 768 714 l 1
 768 704.276367188 768 19.7236328125 768 10 c 1
 748 10 l 1
 748 20 750.899414062 13.6123046875 750.899414062 3.6123046875 c 1
 746.004882812 5.47265625 725.732421875 7.5 706.22265625 7.5 c 0
 686.829101562 7.5 666.668945312 5.5888671875 661.693359375 3.830078125 c 1
 661.693359375 13.830078125 664.4453125 20 664.4453125 10 c 1
 643.956570125 10 l 1
 643.956570125 20 629.955078677 37.1650390625 629.955078677 27.1650390625 c 1
 558.916642462 122.369140625 268.673071359 486.983398438 193 576.784179688 c 1
 193 586.784179688 193 10 193 0 c 1
 80 0 l 1
 80 9.7275390625 80 704.272460938 80 714 c 1
 203.087890625 714 l 1
 203.087890625 704 203.087890625 694 203.087890625 704 c 1
 203.087890625 694 217.102665251 676.83984375 217.102665251 686.83984375 c 1
 288.220800534 591.625 578.815864965 226.94921875 655 137.193359375 c 1
EndSplineSet
Validated: 524325
EndChar

StartChar: Ncommaaccent
Encoding: 325 325 60
Width: 848
GlyphClass: 2
Flags: HW
AnchorPoint: "Anchor-0" 386 0 basechar 0
LayerCount: 2
Fore
SplineSet
193 576.784179688 m 1
 193 586.784179688 193 10 193 0 c 1
 80 0 l 1
 80 9.7275390625 80 704.272460938 80 714 c 1
 203.087890625 714 l 1
 203.087890625 704 203.087890625 694 203.087890625 704 c 1
 203.087890625 694 217.102665251 676.83984375 217.102665251 686.83984375 c 1
 288.220800534 591.625 578.815864965 226.94921875 655 137.193359375 c 1
 655 127.193359375 655 704 655 714 c 1
 768 714 l 1
 768 704.276367188 768 19.7236328125 768 10 c 1
 748 10 l 1
 748 20 750.899414062 13.6123046875 750.899414062 3.6123046875 c 1
 746.004882812 5.47265625 725.732421875 7.5 706.22265625 7.5 c 0
 686.829101562 7.5 666.668945312 5.5888671875 661.693359375 3.830078125 c 1
 661.693359375 13.830078125 664.4453125 20 664.4453125 10 c 1
 643.956570125 10 l 1
 643.956570125 20 629.955078677 37.1650390625 629.955078677 27.1650390625 c 1
 558.916642462 122.369140625 268.673071359 486.983398438 193 576.784179688 c 1
355.245673412 -254 m 1
 355.245673412 -244 355.245673412 -234 355.245673412 -244 c 2
 355.245673412 -229.485351562 373.750162219 -169.267578125 373.99130299 -168.52734375 c 0
 351.240284338 -155.122070312 336.426475463 -131.672851562 336.426475463 -105 c 0
 336.426475463 -63.3212890625 374.003564385 -30 419.14286875 -30 c 0
 463.480073517 -30 500.764932522 -63.494140625 500.764932522 -105 c 0
 500.764932522 -125.3984375 492.373029343 -141.733398438 486.28013775 -152.28515625 c 0
 427.544989759 -254 427.544989759 -254 427.544989759 -254 c 1
 355.245673412 -254 l 1
EndSplineSet
Validated: 524325
EndChar

StartChar: Eng
Encoding: 330 330 61
Width: 848
GlyphClass: 2
Flags: HW
AnchorPoint: "Anchor-0" 386 0 basechar 0
LayerCount: 2
Fore
SplineSet
768 714 m 1
 768 704.211914062 768 17.9755859375 768 12.9013671875 c 2
 768 -116.333984375 768 -209.448242188 630.87774866 -209.448242188 c 0
 593.579606477 -209.448242188 559.620650899 -204.393554688 518.15567794 -197.951171875 c 1
 518.15567794 -187.951171875 518.15567794 -75.009765625 518.15567794 -85.009765625 c 1
 561.444533424 -90.6591796875 587.743182398 -94.0908203125 610.83649833 -94.0908203125 c 0
 644.533877479 -94.0908203125 647.306996343 -85.951171875 650.035156758 -77.9462890625 c 0
 654.057916141 -66.142578125 654.972411861 -42.23828125 654.998978217 -7.5703125 c 1
 654.998978217 2.4296875 193 583.609375 193 573.609375 c 1
 193 583.609375 193 10 193 0 c 1
 80 0 l 1
 80 9.7275390625 80 704.272460938 80 714 c 1
 203.087890625 714 l 1
 203.087890625 704 203.087890625 694 203.087890625 704 c 1
 203.087890625 694 217.102665251 676.83984375 217.102665251 686.83984375 c 1
 288.220800534 591.625 578.815864965 226.94921875 655 137.193359375 c 1
 655 127.193359375 655 704 655 714 c 1
 768 714 l 1
EndSplineSet
Validated: 524325
EndChar

StartChar: Ntilde
Encoding: 209 209 62
Width: 848
GlyphClass: 2
Flags: HW
AnchorPoint: "Anchor-0" 386 0 basechar 0
LayerCount: 2
Fore
SplineSet
361.417242291 764.525390625 m 2
 361.417242291 764.525390625 361.526573064 764.46875 361.526573064 764.178710938 c 0
 361.526573064 764.047851562 359.906025342 755.798828125 351.031840621 755.798828125 c 0
 345.985254745 755.798828125 343.486995488 758.51171875 342.46112543 760 c 1
 251.035054473 760 l 1
 251.035054473 766.666992188 251.035054473 773.333007812 251.035054473 780 c 0
 251.035054473 806.254882812 273.142349881 893 379.731679474 893 c 0
 443.500130163 893 464.888090391 851 478.260163556 851 c 0
 495.916572534 851 496.242521288 866.706054688 496.269087644 867.579101562 c 0
 496.338568883 867.579101562 496.407028339 867.576171875 496.476509578 867.576171875 c 0
 496.52248981 870.104492188 496.559273995 873.567382812 496.559273995 877 c 2
 496.559273995 867 496.559273995 877 496.559273995 887 c 1
 606.956788557 887 l 1
 606.956788557 880.333007812 606.956788557 873.666992188 606.956788557 867 c 0
 606.956788557 840.745117188 584.849493149 754 478.260163556 754 c 0
 419.314528282 754 397.211320006 796 379.731679474 796 c 0
 362.683231337 796 361.792236625 781.356445312 361.726842518 779.5625 c 0
 361.726842518 776.010742188 361.702319728 766.588867188 361.417242291 764.525390625 c 2
500.143688503 867.524414062 m 1
 500.143688503 857.524414062 513.238858495 857.338867188 513.238858495 867.338867188 c 1
 513.238858495 857.338867188 506.790386443 863.081054688 506.790386443 873.081054688 c 1
 506.790386443 863.081054688 500.143688503 857.524414062 500.143688503 867.524414062 c 1
193 576.784179688 m 1
 193 586.784179688 193 10 193 0 c 1
 80 0 l 1
 80 9.7275390625 80 704.272460938 80 714 c 1
 203.087890625 714 l 1
 203.087890625 704 203.087890625 694 203.087890625 704 c 1
 203.087890625 694 217.102665251 676.83984375 217.102665251 686.83984375 c 1
 288.220800534 591.625 578.815864965 226.94921875 655 137.193359375 c 1
 655 127.193359375 655 704 655 714 c 1
 768 714 l 1
 768 704.276367188 768 19.7236328125 768 10 c 1
 748 10 l 1
 748 20 750.899414062 13.6123046875 750.899414062 3.6123046875 c 1
 746.004882812 5.47265625 725.732421875 7.5 706.22265625 7.5 c 0
 686.829101562 7.5 666.668945312 5.5888671875 661.693359375 3.830078125 c 1
 661.693359375 13.830078125 664.4453125 20 664.4453125 10 c 1
 643.956570125 10 l 1
 643.956570125 20 629.955078677 37.1650390625 629.955078677 27.1650390625 c 1
 558.916642462 122.369140625 268.673071359 486.983398438 193 576.784179688 c 1
EndSplineSet
Validated: 524325
EndChar

StartChar: O
Encoding: 79 79 63
Width: 894
GlyphClass: 2
Flags: HW
LayerCount: 2
Fore
SplineSet
447 -8 m 0
 215.525930851 -8 35 157.412109375 35 361.790039062 c 0
 35 558.915039062 215.74232602 724 447 724 c 0
 678.25767398 724 859 558.915039062 859 361.790039062 c 0
 859 157.412109375 678.474069149 -8 447 -8 c 0
447 611 m 0
 280.40504488 611 151 496.146484375 151 361.711914062 c 0
 151 219.44921875 280.66896609 105 447 105 c 0
 613.33103391 105 743 219.44921875 743 361.711914062 c 0
 743 496.146484375 613.59495512 611 447 611 c 0
EndSplineSet
Validated: 524289
EndChar

StartChar: Oacute
Encoding: 211 211 64
Width: 894
GlyphClass: 2
Flags: HW
LayerCount: 2
Fore
SplineSet
568.658577128 942 m 1
 589.367796986 942 l 1
 589.367796986 938.208984375 589.367796986 935.219726562 566.700908688 906.580078125 c 0
 563.576324246 902.633789062 458.965439384 774.5625 442.35255984 767.39453125 c 0
 434.502673426 761.654296875 412.358571587 759.5 383.751939273 759.5 c 0
 325.610400044 759.5 320.033674091 768.211914062 320.033674091 777 c 1
 340.742893949 777 l 1
 336.979235926 780.944335938 332.432915004 784.131835938 329.275972407 788.662109375 c 1
 354.210965204 814.99609375 438.24105164 925.520507812 447.380208333 943.44140625 c 1
 447.380208333 943.440429688 447.252798094 942 447.252798094 942 c 1
 467.962017952 942 l 1
 467.962017952 932 465.064951795 938.51953125 465.064951795 948.51953125 c 1
 471.472877881 946.44140625 495.316794105 944.5 518.31029754 944.5 c 0
 522.458208666 944.5 558.443511746 944.618164062 571.876191268 948.537109375 c 1
 571.876191268 938.537109375 568.658577128 932 568.658577128 942 c 1
447 -8 m 0
 215.525930851 -8 35 157.412109375 35 361.790039062 c 0
 35 558.915039062 215.74232602 724 447 724 c 0
 678.25767398 724 859 558.915039062 859 361.790039062 c 0
 859 157.412109375 678.474069149 -8 447 -8 c 0
447 611 m 0
 280.40504488 611 151 496.146484375 151 361.711914062 c 0
 151 219.44921875 280.66896609 105 447 105 c 0
 613.33103391 105 743 219.44921875 743 361.711914062 c 0
 743 496.146484375 613.59495512 611 447 611 c 0
EndSplineSet
Validated: 524293
EndChar

StartChar: Ocircumflex
Encoding: 212 212 65
Width: 894
GlyphClass: 2
Flags: HW
LayerCount: 2
Fore
SplineSet
296.86321199 796.909179688 m 0
 295.732698914 798.750976562 294.383768285 801.083007812 294.383768285 804.83203125 c 1
 315.092988143 804.83203125 l 1
 311.476964207 808.6875 306.98828125 811.69921875 304.005263741 816.1640625 c 1
 328.380055962 839.4296875 408.191447806 936.759765625 416.541874446 952.81640625 c 1
 416.332557624 951 l 1
 421.595813941 951 l 1
 421.595813941 941 421.595813941 951 421.595813941 961 c 1
 473.479083555 961 l 1
 473.479083555 951 473.479083555 941 473.479083555 951 c 1
 478.742339871 951 l 1
 478.742339871 941 481.077183067 938.740234375 481.077183067 948.740234375 c 1
 499.724581671 920.130859375 583.582765403 820.508789062 594.443982713 813.200195312 c 1
 593.273021941 813.8984375 591.640957447 814.149414062 589.946199025 814.341796875 c 1
 589.946199025 804.341796875 579.981909353 794.83203125 579.981909353 804.83203125 c 1
 600.691129211 804.83203125 l 1
 600.691129211 787.165039062 551.161915448 760.59765625 550.563289561 760.284179688 c 0
 544.2979416 757 539.204565603 754.075195312 532.319356715 754.075195312 c 0
 526.31590758 754.075195312 520.08494016 754.541992188 484.659837655 791.28515625 c 0
 481.328969969 794.739257812 461.153659685 815.708984375 447.971755873 832.612304688 c 1
 432.434785018 812.9296875 401.27691434 780.493164062 383.904629322 765.439453125 c 0
 377.381427305 759.787109375 370.826878324 754.106445312 362.704981161 754.106445312 c 0
 347.413730053 754.106445312 304.93252715 783.768554688 296.86321199 796.909179688 c 0
465.755596188 953.5 m 1
 465.755596188 943.5 461.457017398 941 461.457017398 951 c 1
 469.988447473 951 l 1
 469.988447473 941 465.755596188 943.5 465.755596188 953.5 c 1
429.319301308 953.5 m 1
 429.319301308 943.5 425.020722518 941 425.020722518 951 c 1
 433.552152593 951 l 1
 433.552152593 941 429.319301308 943.5 429.319301308 953.5 c 1
447 -8 m 0
 215.525930851 -8 35 157.412109375 35 361.790039062 c 0
 35 558.915039062 215.74232602 724 447 724 c 0
 678.25767398 724 859 558.915039062 859 361.790039062 c 0
 859 157.412109375 678.474069149 -8 447 -8 c 0
447 611 m 0
 280.40504488 611 151 496.146484375 151 361.711914062 c 0
 151 219.44921875 280.66896609 105 447 105 c 0
 613.33103391 105 743 219.44921875 743 361.711914062 c 0
 743 496.146484375 613.59495512 611 447 611 c 0
EndSplineSet
Validated: 524293
EndChar

StartChar: Odieresis
Encoding: 214 214 66
Width: 894
GlyphClass: 2
Flags: HW
LayerCount: 2
Fore
SplineSet
343.801750887 898 m 0
 380.916555851 898 413.280779034 868.927734375 413.280779034 834 c 0
 413.280779034 797.079101562 381.596077128 767 343.801750887 767 c 0
 304.103349402 767 273.247825244 797.228515625 273.247825244 834 c 0
 273.247825244 868.768554688 304.774781139 898 343.801750887 898 c 0
551.273146609 898 m 0
 588.388962766 898 620.752174756 868.927734375 620.752174756 834 c 0
 620.752174756 797.079101562 589.06747285 767 551.273146609 767 c 0
 511.574745124 767 480.719220966 797.228515625 480.719220966 834 c 0
 480.719220966 868.768554688 512.246176862 898 551.273146609 898 c 0
447 -8 m 0
 215.525930851 -8 35 157.412109375 35 361.790039062 c 0
 35 558.915039062 215.74232602 724 447 724 c 0
 678.25767398 724 859 558.915039062 859 361.790039062 c 0
 859 157.412109375 678.474069149 -8 447 -8 c 0
447 611 m 0
 280.40504488 611 151 496.146484375 151 361.711914062 c 0
 151 219.44921875 280.66896609 105 447 105 c 0
 613.33103391 105 743 219.44921875 743 361.711914062 c 0
 743 496.146484375 613.59495512 611 447 611 c 0
EndSplineSet
Validated: 524289
EndChar

StartChar: Ograve
Encoding: 210 210 67
Width: 894
GlyphClass: 2
Flags: HW
LayerCount: 2
Fore
SplineSet
463.674562278 767 m 2
 462.638090093 766.701171875 461.649143949 766.563476562 460.824010971 766.563476562 c 0
 456.345439938 766.563476562 454.067223515 766.563476562 435.822279477 785.696289062 c 0
 402.666292664 820.466796875 333.710050975 901.404296875 315.141525377 928.405273438 c 0
 311.38899047 933.86328125 308.932804189 937.435546875 308.932804189 942 c 1
 329.642024047 942 l 1
 329.642024047 932 326.74495789 938.51953125 326.74495789 948.51953125 c 1
 333.152883976 946.44140625 356.996800199 944.5 379.990303635 944.5 c 0
 384.138214761 944.5 420.123517841 944.618164062 433.556197363 948.537109375 c 1
 433.556197363 938.537109375 430.338583223 932 430.338583223 942 c 1
 451.047803081 942 l 1
 451.047803081 932 453.709261414 928.88671875 453.709261414 938.88671875 c 1
 471.626579122 909.907226562 549.90298094 808.306640625 569.971104832 787.673828125 c 0
 570.530294215 787.098632812 571.039935173 786.182617188 571.462613586 785.780273438 c 1
 571.462613586 775.780273438 567.588735594 776.563476562 567.588735594 786.563476562 c 1
 567.588735594 776.563476562 557.556696033 767 557.556696033 777 c 1
 557.556696033 767 567.911305962 757 567.911305962 767 c 1
 463.674562278 767 l 2
447 -8 m 0
 215.525930851 -8 35 157.412109375 35 361.790039062 c 0
 35 558.915039062 215.74232602 724 447 724 c 0
 678.25767398 724 859 558.915039062 859 361.790039062 c 0
 859 157.412109375 678.474069149 -8 447 -8 c 0
447 611 m 0
 280.40504488 611 151 496.146484375 151 361.711914062 c 0
 151 219.44921875 280.66896609 105 447 105 c 0
 613.33103391 105 743 219.44921875 743 361.711914062 c 0
 743 496.146484375 613.59495512 611 447 611 c 0
EndSplineSet
Validated: 524293
EndChar

StartChar: Ohungarumlaut
Encoding: 336 336 68
Width: 894
GlyphClass: 2
Flags: HW
LayerCount: 2
Fore
SplineSet
425.290710882 921.51953125 m 1
 431.698636968 919.44140625 455.542553191 917.5 478.536056627 917.5 c 0
 482.683967753 917.5 518.668259641 917.618164062 532.101950355 921.537109375 c 1
 532.101950355 911.537109375 528.884336215 905 528.884336215 915 c 1
 549.593556073 915 l 1
 549.593556073 911.208984375 549.593556073 908.219726562 526.926667775 879.580078125 c 0
 523.802083333 875.633789062 419.191198471 747.5625 402.578318927 740.39453125 c 0
 394.728432513 734.654296875 372.584330674 732.5 343.97769836 732.5 c 0
 285.836159131 732.5 280.259433178 741.211914062 280.259433178 750 c 1
 300.968653036 750 l 1
 297.204995013 753.944335938 292.658674091 757.131835938 289.501731494 761.662109375 c 1
 314.436724291 787.99609375 398.466810727 898.520507812 407.60596742 916.44140625 c 1
 407.60596742 906.44140625 407.478557181 905 407.478557181 915 c 1
 428.187777039 915 l 1
 428.187777039 905 425.290710882 911.51953125 425.290710882 921.51953125 c 1
582.827404699 916.44140625 m 1
 582.827404699 916.440429688 582.699994459 915 582.699994459 915 c 1
 603.409214317 915 l 1
 603.409214317 905 600.513159353 911.51953125 600.513159353 921.51953125 c 1
 606.920074246 919.44140625 630.765001662 917.5 653.757493905 917.5 c 0
 657.906416223 917.5 693.890708112 917.618164062 707.323387633 921.537109375 c 1
 707.323387633 911.537109375 704.105773493 905 704.105773493 915 c 1
 724.814993351 915 l 1
 724.814993351 911.208984375 724.814993351 908.219726562 702.148105053 879.580078125 c 0
 699.024531804 875.633789062 594.413646941 747.5625 577.799756206 740.39453125 c 0
 569.950880984 734.654296875 547.805767952 732.5 519.200146831 732.5 c 0
 461.05759641 732.5 455.481881649 741.211914062 455.481881649 750 c 1
 476.191101507 750 l 1
 472.427443484 753.944335938 467.881122562 757.131835938 464.724179965 761.662109375 c 1
 489.658161569 787.99609375 573.688248005 898.520507812 582.827404699 916.44140625 c 1
447 -8 m 0
 215.525930851 -8 35 157.412109375 35 361.790039062 c 0
 35 558.915039062 215.74232602 724 447 724 c 0
 678.25767398 724 859 558.915039062 859 361.790039062 c 0
 859 157.412109375 678.474069149 -8 447 -8 c 0
447 611 m 0
 280.40504488 611 151 496.146484375 151 361.711914062 c 0
 151 219.44921875 280.66896609 105 447 105 c 0
 613.33103391 105 743 219.44921875 743 361.711914062 c 0
 743 496.146484375 613.59495512 611 447 611 c 0
EndSplineSet
Validated: 524293
EndChar

StartChar: Omacron
Encoding: 332 332 69
Width: 894
GlyphClass: 2
Flags: HW
LayerCount: 2
Fore
SplineSet
680.950479277 763 m 1
 215.199315714 763 l 1
 215.199315714 753 215.199315714 852 215.199315714 862 c 1
 680.950479277 862 l 1
 680.950479277 852 680.950479277 753 680.950479277 763 c 1
447 -8 m 0
 215.525930851 -8 35 157.412109375 35 361.790039062 c 0
 35 558.915039062 215.74232602 724 447 724 c 0
 678.25767398 724 859 558.915039062 859 361.790039062 c 0
 859 157.412109375 678.474069149 -8 447 -8 c 0
447 611 m 0
 280.40504488 611 151 496.146484375 151 361.711914062 c 0
 151 219.44921875 280.66896609 105 447 105 c 0
 613.33103391 105 743 219.44921875 743 361.711914062 c 0
 743 496.146484375 613.59495512 611 447 611 c 0
EndSplineSet
Validated: 524325
EndChar

StartChar: Oslash
Encoding: 216 216 70
Width: 894
GlyphClass: 2
Flags: HW
LayerCount: 2
Fore
SplineSet
253.346548094 -57 m 1
 232.637328236 -57 l 1
 232.637328236 -44.7373046875 257.742201352 18.462890625 261.533161569 27.3017578125 c 1
 124.861328125 87.9609375 35 214.450195312 35 360.482421875 c 0
 35 558.30078125 215.724124557 724 447 724 c 0
 471.121994127 724 495.225786791 722.037109375 518.82094969 718.099609375 c 1
 522.760555186 729.399414062 526.700160683 740.700195312 530.639766179 752 c 1
 530.639766179 742 648.240428302 742 648.240428302 752 c 1
 648.240428302 742.256835938 625.81420379 682.220703125 625.81420379 690.384765625 c 1
 766.42578125 631.865234375 859 505.458984375 859 362.506835938 c 0
 859 157.741210938 678.482158688 -8 447 -8 c 0
 420.285308621 -8 393.413882425 -5.91015625 367.476797983 -1.03515625 c 1
 364.358280696 -8.4921875 359.626911569 -21.1806640625 355.887522163 -32.5009765625 c 0
 351.937804743 -44.455078125 349.007369238 -56.876953125 349.007369238 -57 c 1
 328.298149379 -57 l 1
 328.298149379 -47 331.319592199 -53.2412109375 331.319592199 -63.2412109375 c 1
 327.364818816 -61.61328125 308.749778369 -59.5 290.822348737 -59.5 c 0
 273.497589761 -59.5 255.544880319 -61.2880859375 250.838791002 -62.7978515625 c 1
 250.838791002 -52.7978515625 253.346548094 -47 253.346548094 -57 c 1
480.960895944 609.299804688 m 1
 469.908563276 610.377929688 458.592309397 611 447 611 c 0
 280.724581671 611 151 487.401367188 151 342 c 0
 151 236.676757812 210.890625 147.03515625 302.106244459 99.80859375 c 1
 302.562292221 100.98046875 303.048675754 102.243164062 303.559327903 103.584960938 c 0
 331.387342088 176.702148438 449.409671432 512.716796875 477.944509087 600.041015625 c 2
 477.944509087 590.041015625 480.960895944 599.299804688 480.960895944 609.299804688 c 1
406.199398825 107.482421875 m 1
 419.206366356 105.765625 432.797803081 105 447 105 c 0
 613.013519504 105 743 228.171875 743 382 c 0
 743 483.263671875 680.438815935 573.046875 586.622409685 619.548828125 c 1
 586.138048537 618.309570312 585.618295656 616.96484375 585.071240581 615.532226562 c 0
 557.044021498 542.14453125 438.150044326 204.901367188 409.403867465 117.27734375 c 2
 409.403867465 127.27734375 406.199398825 117.482421875 406.199398825 107.482421875 c 1
EndSplineSet
Validated: 524325
EndChar

StartChar: Otilde
Encoding: 213 213 71
Width: 894
GlyphClass: 2
Flags: HW
LayerCount: 2
Fore
SplineSet
383.948110594 767.536132812 m 2
 383.948110594 767.536132812 384.056308178 767.479492188 384.056308178 767.190429688 c 0
 384.056308178 767.059570312 382.470758533 758.798828125 373.668328901 758.798828125 c 0
 368.675060949 758.798828125 366.203706782 761.5 365.183413675 763 c 1
 275.397620235 763 l 1
 275.397620235 769.666992188 275.397620235 776.333007812 275.397620235 783 c 0
 275.397620235 809.190429688 297.061405696 896 401.850260417 896 c 0
 464.488572141 896 485.586089871 854 498.599124557 854 c 0
 515.805574025 854 516.174659242 869.651367188 516.202972629 870.577148438 c 0
 516.270722518 870.577148438 516.338472407 870.57421875 516.406222296 870.57421875 c 0
 516.450714761 873.103515625 516.488128879 876.56640625 516.488128879 880 c 2
 516.488128879 870 516.488128879 880 516.488128879 890 c 1
 625.051764738 890 l 1
 625.051764738 883.333007812 625.051764738 876.666992188 625.051764738 870 c 0
 625.051764738 843.809570312 603.38899047 757 498.599124557 757 c 0
 440.68813719 757 418.908064605 799 401.850260417 799 c 0
 385.207045102 799 384.317195811 784.35546875 384.251468307 782.559570312 c 0
 384.251468307 779.053710938 384.228210882 769.594726562 383.948110594 767.536132812 c 2
520.036402926 870.522460938 m 1
 520.036402926 860.522460938 532.99382203 860.337890625 532.99382203 870.337890625 c 1
 532.99382203 860.337890625 526.614209331 866.081054688 526.614209331 876.081054688 c 1
 526.614209331 866.081054688 520.036402926 860.522460938 520.036402926 870.522460938 c 1
447 -8 m 0
 215.525930851 -8 35 157.412109375 35 361.790039062 c 0
 35 558.915039062 215.74232602 724 447 724 c 0
 678.25767398 724 859 558.915039062 859 361.790039062 c 0
 859 157.412109375 678.474069149 -8 447 -8 c 0
447 611 m 0
 280.40504488 611 151 496.146484375 151 361.711914062 c 0
 151 219.44921875 280.66896609 105 447 105 c 0
 613.33103391 105 743 219.44921875 743 361.711914062 c 0
 743 496.146484375 613.59495512 611 447 611 c 0
EndSplineSet
Validated: 524293
EndChar

StartChar: OE
Encoding: 338 338 72
Width: 1271
GlyphClass: 2
Flags: HW
AnchorPoint: "Anchor-0" 921 0 basechar 0
LayerCount: 2
Fore
SplineSet
732.214891177 110.224609375 m 1
 657.67228244 37.3828125 553.966598544 -8 439.188767591 -8 c 0
 213.86713145 -8 35 157.473632812 35 361.790039062 c 0
 35 558.853515625 214.077734806 724 439.188767591 724 c 0
 554.022493274 724 657.693242964 678.602539062 732.214891177 606.99609375 c 1
 732.214891177 596.99609375 732.214891177 704 732.214891177 714 c 1
 1201 714 l 1
 1201 704 1201 594 1201 604 c 1
 849.905236789 604 l 1
 849.905236789 594.666992188 849.905236789 464 849.905236789 464 c 1
 1181 464 l 1
 1181 354 l 1
 849.905236789 354 l 1
 849.905236789 354 849.905236789 119.606445312 849.905236789 110 c 1
 1201 110 l 1
 1201 120 1201 10 1201 0 c 1
 732.214891177 0 l 1
 732.214891177 10 732.214891177 120.224609375 732.214891177 110.224609375 c 1
439.188767591 611 m 0
 277.322621327 611 151 496.250976562 151 361.711914062 c 0
 151 219.345703125 277.580136331 105 439.188767591 105 c 0
 600.815365014 105 728.03276766 219.370117188 728.03276766 361.711914062 c 0
 728.03276766 496.225585938 601.073878139 611 439.188767591 611 c 0
EndSplineSet
Validated: 524325
EndChar

StartChar: P
Encoding: 80 80 73
Width: 652
GlyphClass: 2
Flags: HW
LayerCount: 2
Fore
SplineSet
193 0 m 1
 80 0 l 1
 80 9.7275390625 80 704.272460938 80 714 c 1
 334 714 l 2
 519.170898438 714 622 620.45703125 622 482 c 0
 622 343.618164062 520.19140625 250 334 250 c 2
 193 250 l 1
 193 250 193 9.615234375 193 0 c 1
193 604 m 1
 193 594.393554688 193 360 193 360 c 1
 334 360 l 2
 443.59264147 360 506 408.587890625 506 482 c 0
 506 555.533203125 444.884079392 604 334 604 c 2
 193 604 l 1
EndSplineSet
Validated: 524289
EndChar

StartChar: Thorn
Encoding: 222 222 74
Width: 551
GlyphClass: 2
Flags: HW
LayerCount: 2
Fore
SplineSet
173 563.661132812 m 1
 368.674166166 563.447265625 521 534.6796875 521 372.140625 c 0
 521 266.158203125 458.993164062 152.4375 173 152.146484375 c 1
 173 157.727539062 173 9.7275390625 173 0 c 1
 60 0 l 1
 60 9.7275390625 60 704.272460938 60 714 c 1
 173 714 l 1
 173 704.272460938 173 558.030273438 173 563.661132812 c 1
174.954664964 250.690429688 m 0
 391.16779973 250.690429688 405 325.571289062 405 373 c 0
 405 431.845703125 382.474571815 465.243164062 182.198486328 465.243164062 c 0
 179.166935847 465.243164062 176.101130559 465.236328125 173 465.221679688 c 1
 173 250.692382812 l 1
 173.652982272 250.692382812 174.304894081 250.690429688 174.954664964 250.690429688 c 0
EndSplineSet
Validated: 524325
EndChar

StartChar: Q
Encoding: 81 81 75
Width: 890
GlyphClass: 2
Flags: HW
LayerCount: 2
Fore
SplineSet
617.320534131 24.4970703125 m 1
 563.968001995 1.6748046875 504.876953125 -11 442 -11 c 0
 210.525930851 -11 30 154.412109375 30 358.790039062 c 0
 30 555.915039062 210.74232602 721 442 721 c 0
 673.252618019 721 854 556.115234375 854 359.216796875 c 0
 854 251.073242188 804.361328125 154.305664062 725.151055519 86.7880859375 c 1
 725.752714982 86.21484375 764.5546875 46.080078125 776.856445312 23.6767578125 c 0
 778.2578125 21.1240234375 779.862304688 18.95703125 779.862304688 14.333984375 c 1
 759.862304688 14.333984375 l 1
 759.862304688 23.82421875 768.725585938 15.349609375 768.725585938 5.62109375 c 1
 768.725585938 15.62109375 768.256835938 14.853515625 768.256835938 4.853515625 c 1
 752.864257812 -3.42578125 708.774794991 -40.0009765625 700.257521609 -51.9248046875 c 0
 699.79844027 -52.5673828125 699.588112256 -52.796875 699.498116135 -52.755859375 c 0
 699.498116135 -52.5244140625 700.075506981 -51.39453125 700.075506981 -51.39453125 c 1
 700.075506981 -41.39453125 700.154379987 -40.2939453125 700.154379987 -50.2939453125 c 1
 679.445160129 -50.2939453125 l 1
 679.445160129 -40.2939453125 678.482504987 -39.626953125 678.482504987 -49.626953125 c 1
 670.08252992 -34.8095703125 631.260832225 11.61328125 617.320534131 24.4970703125 c 1
649.064896387 174.01171875 m 1
 704.95653258 220.262695312 738 285.379882812 738 358.711914062 c 0
 738 493.146484375 608.59495512 608 442 608 c 0
 275.40504488 608 146 493.146484375 146 358.711914062 c 0
 146 216.44921875 275.66896609 102 442 102 c 0
 475.909325133 102 508.601174645 106.810546875 538.477864583 115.529296875 c 1
 519.761704898 139.525390625 463.744680851 199.901367188 448.095467642 214.40234375 c 1
 448.095467642 219.748046875 450.808496786 220.559570312 450.808496786 215.245117188 c 1
 450.808496786 220.559570312 461.036707668 229.678710938 461.036707668 224.725585938 c 1
 440.32748781 224.725585938 l 1
 440.32748781 229.688476562 440.32748781 232.2890625 478.01058289 258.506835938 c 0
 478.5 258.84765625 518.133685173 286.317382812 528.174825465 291.037109375 c 0
 529.049506871 291.448242188 529.415558511 292.4375 533.883006427 292.4375 c 0
 538.997617465 292.4375 540.647883422 291.012695312 554.042137633 277.36328125 c 0
 555.028050199 276.358398438 624.046985816 205.119140625 649.064896387 174.01171875 c 1
EndSplineSet
Validated: 524293
EndChar

StartChar: R
Encoding: 82 82 76
Width: 686
GlyphClass: 2
Flags: HW
AnchorPoint: "Anchor-0" 306 0 basechar 0
LayerCount: 2
Fore
SplineSet
193 250 m 1
 193 250 193 9.615234375 193 0 c 1
 80 0 l 1
 80 9.7275390625 80 704.272460938 80 714 c 1
 343.120117188 714 l 2
 512.119927009 714 622 621.576171875 622 484.83203125 c 0
 622 382.32421875 564.441138948 303.46875 457.474495763 271.27734375 c 1
 466.413140761 262.251953125 674.512695312 37.609375 685.345703125 15.0634765625 c 0
 685.78125 14.1572265625 686.59375 13.1865234375 686.59375 10 c 1
 666.59375 10 l 1
 666.59375 20 669.333984375 13.4404296875 669.333984375 3.4404296875 c 1
 662.662109375 5.5859375 638.6015625 7.5 615.373046875 7.5 c 0
 612.279296875 7.5 574.02734375 7.41796875 560.367587987 3.3447265625 c 1
 560.367587987 13.3447265625 563.913443562 20 563.913443562 10 c 1
 541.947586884 10 l 1
 541.947586884 19.599609375 535.766472038 24.4853515625 535.766472038 15.0888671875 c 1
 496.080990448 59.45703125 327.3046875 224.990234375 303.841796875 250 c 1
 193 250 l 1
193 604 m 1
 193 594.393554688 193 360 193 360 c 1
 343.120117188 360 l 2
 438.257588824 360 497.512846828 408.157226562 497.512846828 482 c 0
 497.512846828 555.9609375 439.392348412 604 343.120117188 604 c 2
 193 604 l 1
EndSplineSet
Validated: 524293
EndChar

StartChar: Racute
Encoding: 340 340 77
Width: 676
GlyphClass: 2
Flags: HW
AnchorPoint: "Anchor-0" 306 0 basechar 0
LayerCount: 2
Fore
SplineSet
335.228515625 940.477539062 m 1
 335.099609375 939 l 1
 356.277107611 939 l 1
 356.277107611 929 353.233206183 935.5390625 353.233206183 945.5390625 c 1
 360.287378027 943.427734375 386.128363621 941.5 411.05875291 941.5 c 0
 415.018613401 941.5 454.985103509 941.600585938 469.319755585 945.595703125 c 1
 469.319755585 935.595703125 465.84147076 929 465.84147076 939 c 1
 487.807327439 939 l 1
 487.807327439 935.151367188 487.807327439 932.163085938 463.228735074 903.499023438 c 0
 459.740797284 899.430664062 346.568370567 771.568359375 329.900390625 764.374023438 c 0
 322.221679688 758.645507812 300.395507812 756.5 272.247070312 756.5 c 0
 214.532226562 756.5 209.607421875 765.333984375 209.607421875 774 c 1
 229.607421875 774 l 1
 229.607421875 764 219.92578125 773.563476562 219.92578125 783.563476562 c 1
 219.92578125 773.563476562 218.740234375 775.740234375 218.740234375 785.740234375 c 1
 243.346679688 812.0859375 326.108398438 922.450195312 335.228515625 940.477539062 c 1
193 0 m 1
 80 0 l 1
 80 9.7275390625 80 704.272460938 80 714 c 1
 343.120117188 714 l 2
 512.119927009 714 622 621.576171875 622 484.83203125 c 0
 622 382.32421875 564.441138948 303.46875 457.474495763 271.27734375 c 1
 466.413140761 262.251953125 674.512695312 37.609375 685.345703125 15.0634765625 c 0
 685.78125 14.1572265625 686.59375 13.1865234375 686.59375 10 c 1
 666.59375 10 l 1
 666.59375 20 669.333984375 13.4404296875 669.333984375 3.4404296875 c 1
 662.662109375 5.5859375 638.6015625 7.5 615.373046875 7.5 c 0
 612.279296875 7.5 574.02734375 7.41796875 560.367587987 3.3447265625 c 1
 560.367587987 13.3447265625 563.913443562 20 563.913443562 10 c 1
 541.947586884 10 l 1
 541.947586884 19.599609375 535.766472038 24.4853515625 535.766472038 15.0888671875 c 1
 496.080990448 59.45703125 327.3046875 224.990234375 303.841796875 250 c 1
 193 250 l 1
 193 250 193 9.615234375 193 0 c 1
193 604 m 1
 193 594.393554688 193 360 193 360 c 1
 343.120117188 360 l 2
 438.257588824 360 497.512846828 408.157226562 497.512846828 482 c 0
 497.512846828 555.9609375 439.392348412 604 343.120117188 604 c 2
 193 604 l 1
EndSplineSet
Validated: 524293
EndChar

StartChar: Rcaron
Encoding: 344 344 78
Width: 676
GlyphClass: 2
Flags: HW
AnchorPoint: "Anchor-0" 306 0 basechar 0
LayerCount: 2
Fore
SplineSet
193 604 m 1
 193 594.393554688 193 360 193 360 c 1
 343.120117188 360 l 2
 438.257588824 360 497.512846828 408.157226562 497.512846828 482 c 0
 497.512846828 555.9609375 439.392348412 604 343.120117188 604 c 2
 193 604 l 1
193 0 m 1
 80 0 l 1
 80 9.7275390625 80 704.272460938 80 714 c 1
 343.120117188 714 l 2
 512.119927009 714 622 621.576171875 622 484.83203125 c 0
 622 382.32421875 564.441138948 303.46875 457.474495763 271.27734375 c 1
 466.413140761 262.251953125 674.512695312 37.609375 685.345703125 15.0634765625 c 0
 685.78125 14.1572265625 686.59375 13.1865234375 686.59375 10 c 1
 666.59375 10 l 1
 666.59375 20 669.333984375 13.4404296875 669.333984375 3.4404296875 c 1
 662.662109375 5.5859375 638.6015625 7.5 615.373046875 7.5 c 0
 612.279296875 7.5 574.02734375 7.41796875 560.367587987 3.3447265625 c 1
 560.367587987 13.3447265625 563.913443562 20 563.913443562 10 c 1
 541.947586884 10 l 1
 541.947586884 19.599609375 535.766472038 24.4853515625 535.766472038 15.0888671875 c 1
 496.080990448 59.45703125 327.3046875 224.990234375 303.841796875 250 c 1
 193 250 l 1
 193 250 193 9.615234375 193 0 c 1
343.378602122 781 m 1
 329.098632812 781 l 2
 327.997070312 778.685546875 324.799804688 773.5 318.255859375 773.5 c 0
 311.775390625 773.5 307.518554688 778.787109375 306.235351562 784.415039062 c 0
 287.45703125 799.9296875 197.25 909.765625 187.147460938 930.504882812 c 0
 186.416992188 932.00390625 185.365234375 933.342773438 185.365234375 937.16796875 c 1
 205.365234375 937.16796875 l 1
 205.365234375 927.16796875 197.419921875 935.545898438 197.419921875 945.545898438 c 1
 215.059570312 952.416992188 239.963867188 971.745117188 244.842773438 978.099609375 c 1
 244.842773438 968.099609375 244.600585938 966.271484375 244.600585938 976.271484375 c 1
 264.600585938 976.271484375 l 1
 264.600585938 966.271484375 265.556640625 966.176757812 265.556640625 976.176757812 c 1
 275.4296875 960.752929688 322.254882812 911.190429688 336.668945312 900.208984375 c 1
 352.190686032 911.5546875 404.031394855 962.447265625 413.55243537 976.805664062 c 0
 414.2785528 977.900390625 414.618551656 978.28125 414.739749986 978.28125 c 0
 414.779434395 978.28125 414.795522669 978.2421875 414.795522669 978.17578125 c 0
 414.795522669 977.766601562 414.162717228 976.303710938 414.162717228 976.303710938 c 1
 436.128573907 976.303710938 l 1
 436.128573907 966.303710938 435.911918484 968.311523438 435.911918484 978.311523438 c 1
 442.547795206 969.725585938 479.134675237 947.22265625 488.427262261 945.533203125 c 1
 488.257799109 945.546875 488.001459278 945.546875 488.001459278 945.546875 c 1
 488.001459278 935.546875 479.274106944 927.16796875 479.274106944 937.16796875 c 1
 501.239963623 937.16796875 l 1
 501.239963623 933.583007812 501.239963623 930.453125 480.053851954 904.709960938 c 0
 456.802005912 876.455078125 388.135107656 799.193359375 368.489180079 784.415039062 c 0
 368.262871692 783.51171875 365.524647469 773.5 355.287142488 773.5 c 0
 350.082049595 773.5 345.807931486 776.352539062 343.378602122 781 c 1
326.706054688 890.01953125 m 1
 347.058526647 890.01953125 l 1
 347.058526647 890.01953125 337.571289062 898.995117188 337.478515625 899.0859375 c 2
 337.478515625 889.0859375 335.998046875 889.213867188 335.998046875 899.213867188 c 1
 335.998046875 889.213867188 326.706054688 880.01953125 326.706054688 890.01953125 c 1
EndSplineSet
Validated: 524293
EndChar

StartChar: Rcommaaccent
Encoding: 342 342 79
Width: 686
GlyphClass: 2
Flags: HW
AnchorPoint: "Anchor-0" 306 0 basechar 0
LayerCount: 2
Fore
SplineSet
193 250 m 1
 193 250 193 9.615234375 193 0 c 1
 80 0 l 1
 80 9.7275390625 80 704.272460938 80 714 c 1
 343.120117188 714 l 2
 512.119927009 714 622 621.576171875 622 484.83203125 c 0
 622 382.32421875 564.441138948 303.46875 457.474495763 271.27734375 c 1
 466.413140761 262.251953125 674.512695312 37.609375 685.345703125 15.0634765625 c 0
 685.78125 14.1572265625 686.59375 13.1865234375 686.59375 10 c 1
 666.59375 10 l 1
 666.59375 20 669.333984375 13.4404296875 669.333984375 3.4404296875 c 1
 662.662109375 5.5859375 638.6015625 7.5 615.373046875 7.5 c 0
 612.279296875 7.5 574.02734375 7.41796875 560.367587987 3.3447265625 c 1
 560.367587987 13.3447265625 563.913443562 20 563.913443562 10 c 1
 541.947586884 10 l 1
 541.947586884 19.599609375 535.766472038 24.4853515625 535.766472038 15.0888671875 c 1
 496.080990448 59.45703125 327.3046875 224.990234375 303.841796875 250 c 1
 193 250 l 1
193 604 m 1
 193 594.393554688 193 360 193 360 c 1
 343.120117188 360 l 2
 438.257588824 360 497.512846828 408.157226562 497.512846828 482 c 0
 497.512846828 555.9609375 439.392348412 604 343.120117188 604 c 2
 193 604 l 1
266.516601562 -254 m 1
 266.516601562 -244 266.516601562 -234 266.516601562 -244 c 2
 266.516601562 -229.465820312 284.42578125 -169.295898438 284.659179688 -168.556640625 c 0
 262.668945312 -155.17578125 248.288085938 -131.734375 248.288085938 -105 c 0
 248.288085938 -63.2080078125 284.733398438 -30 328.274414062 -30 c 0
 373.779004549 -30 413.49880779 -63.3798828125 413.49880779 -105 c 0
 413.49880779 -125.435546875 404.558017689 -141.783203125 398.076588396 -152.334960938 c 0
 336.293945312 -254 336.293945312 -254 336.293945312 -254 c 1
 266.516601562 -254 l 1
EndSplineSet
Validated: 524293
EndChar

StartChar: S
Encoding: 83 83 80
Width: 604
GlyphClass: 2
Flags: HW
AnchorPoint: "Anchor-0" 262 0 basechar 0
LayerCount: 2
Fore
SplineSet
41.2998046875 222 m 1
 128.673828125 222 l 2
 129.3125 222.918945312 132.1796875 226.594726562 137.219726562 226.594726562 c 0
 146.708984375 226.594726562 148.317382812 218.278320312 148.436523438 205.052734375 c 0
 161.32210375 147.141601562 222.644083821 104 302.565307796 104 c 0
 396.086451163 104 458.641601562 146.546875 458.641601562 210.80859375 c 0
 458.641601562 259.68359375 426.930432579 288.392578125 296.274586971 321.204101562 c 0
 143.048828125 359.993164062 57.6416015625 412.229492188 57.6416015625 526.475585938 c 0
 57.6416015625 639.28515625 150.423828125 725 302.565307796 725 c 0
 423.794483152 725 520.875 657.65234375 539.493164062 550.59375 c 1
 539.493164062 540.59375 539.493164062 539.72265625 539.493164062 549.72265625 c 2
 539.493164062 544.837890625 540.271484375 538.370117188 540.475585938 537.515625 c 1
 540.40625 537.729492188 540.259765625 538.153320312 540.259765625 538.153320312 c 1
 540.259765625 528.153320312 531.16796875 534.189453125 531.16796875 544.189453125 c 1
 531.16796875 534.189453125 522.524414062 527.0078125 522.524414062 537.0078125 c 1
 522.524414062 527.0078125 531.532226562 518 531.532226562 528 c 1
 438.288446145 528 l 2
 437.172721557 526.268554688 434.453992476 523.133789062 428.971570719 523.133789062 c 0
 418.66026785 523.133789062 416.64004301 532.912109375 416.409996703 543.17578125 c 0
 401.618019177 580.747070312 354.966719489 612 302.565307796 612 c 0
 222.531151998 612 175.37897876 566.625976562 175.37897876 520.223632812 c 0
 175.37897876 475.7421875 208.831894428 454.078125 308.993010741 428.583007812 c 0
 460.926757812 389.256835938 574.641601562 336.219726562 574.641601562 204.556640625 c 0
 574.641601562 74.244140625 459.297851562 -9 302.565307796 -9 c 0
 157.918464075 -9 48.5126953125 74.892578125 32.7197265625 200.102539062 c 1
 32.7197265625 210.102539062 32.7197265625 210.73828125 32.7197265625 200.73828125 c 2
 32.7197265625 205.826171875 32.1953125 212.092773438 32 213.232421875 c 1
 32.033203125 213.087890625 32.0947265625 212.865234375 32.0947265625 212.865234375 c 1
 32.0947265625 222.865234375 41.5634765625 215.89453125 41.5634765625 205.89453125 c 1
 41.5634765625 215.89453125 50.150390625 223.150390625 50.150390625 213.150390625 c 1
 50.150390625 223.150390625 41.2998046875 232 41.2998046875 222 c 1
EndSplineSet
Validated: 524293
EndChar

StartChar: Sacute
Encoding: 346 346 81
Width: 604
GlyphClass: 2
Flags: HW
AnchorPoint: "Anchor-0" 262 0 basechar 0
LayerCount: 2
Fore
SplineSet
41.2998046875 222 m 1
 128.673828125 222 l 2
 129.3125 222.918945312 132.1796875 226.594726562 137.219726562 226.594726562 c 0
 146.708984375 226.594726562 148.317382812 218.278320312 148.436523438 205.052734375 c 0
 161.32210375 147.141601562 222.644083821 104 302.565307796 104 c 0
 396.086451163 104 458.641601562 146.546875 458.641601562 210.80859375 c 0
 458.641601562 259.68359375 426.930432579 288.392578125 296.274586971 321.204101562 c 0
 143.048828125 359.993164062 57.6416015625 412.229492188 57.6416015625 526.475585938 c 0
 57.6416015625 639.28515625 150.423828125 725 302.565307796 725 c 0
 423.794483152 725 520.875 657.65234375 539.493164062 550.59375 c 1
 539.493164062 540.59375 539.493164062 539.72265625 539.493164062 549.72265625 c 2
 539.493164062 544.837890625 540.271484375 538.370117188 540.475585938 537.515625 c 1
 540.40625 537.729492188 540.259765625 538.153320312 540.259765625 538.153320312 c 1
 540.259765625 528.153320312 531.16796875 534.189453125 531.16796875 544.189453125 c 1
 531.16796875 534.189453125 522.524414062 527.0078125 522.524414062 537.0078125 c 1
 522.524414062 527.0078125 531.532226562 518 531.532226562 528 c 1
 438.288446145 528 l 2
 437.172721557 526.268554688 434.453992476 523.133789062 428.971570719 523.133789062 c 0
 418.66026785 523.133789062 416.64004301 532.912109375 416.409996703 543.17578125 c 0
 401.618019177 580.747070312 354.966719489 612 302.565307796 612 c 0
 222.531151998 612 175.37897876 566.625976562 175.37897876 520.223632812 c 0
 175.37897876 475.7421875 208.831894428 454.078125 308.993010741 428.583007812 c 0
 460.926757812 389.256835938 574.641601562 336.219726562 574.641601562 204.556640625 c 0
 574.641601562 74.244140625 459.297851562 -9 302.565307796 -9 c 0
 157.918464075 -9 48.5126953125 74.892578125 32.7197265625 200.102539062 c 1
 32.7197265625 210.102539062 32.7197265625 210.73828125 32.7197265625 200.73828125 c 2
 32.7197265625 205.826171875 32.1953125 212.092773438 32 213.232421875 c 1
 32.033203125 213.087890625 32.0947265625 212.865234375 32.0947265625 212.865234375 c 1
 32.0947265625 222.865234375 41.5634765625 215.89453125 41.5634765625 205.89453125 c 1
 41.5634765625 215.89453125 50.150390625 223.150390625 50.150390625 213.150390625 c 1
 50.150390625 223.150390625 41.2998046875 232 41.2998046875 222 c 1
327.556702034 945.553710938 m 1
 334.631671633 943.416992188 360.24628223 941.5 384.96998622 941.5 c 0
 388.53884097 941.5 428.882689192 941.591796875 442.88100696 945.639648438 c 1
 442.88100696 935.639648438 439.440769009 929 439.440769009 939 c 1
 460.4453125 939 l 1
 460.4453125 935.103515625 460.4453125 932.116210938 436.466897661 903.43359375 c 0
 432.946143502 899.291992188 320.80902559 771.549804688 303.02958307 764.356445312 c 0
 294.706089424 758.63671875 270.87120071 756.5 240.180932054 756.5 c 0
 176.746708621 756.5 171.951288789 765.447265625 171.951288789 774 c 1
 193.366508622 774 l 1
 193.366508622 764 183.007105161 773.563476562 183.007105161 783.563476562 c 1
 183.007105161 773.563476562 181.946800819 775.814453125 181.946800819 785.814453125 c 1
 208.846533739 812.169921875 299.153302801 922.384765625 309.229331038 940.512695312 c 1
 309.229331038 930.512695312 309.085029264 929 309.085029264 939 c 1
 330.500249096 939 l 1
 330.500249096 929 327.556702034 935.553710938 327.556702034 945.553710938 c 1
EndSplineSet
Validated: 524293
EndChar

StartChar: Scaron
Encoding: 352 352 82
Width: 604
GlyphClass: 2
Flags: HW
AnchorPoint: "Anchor-0" 262 0 basechar 0
LayerCount: 2
Fore
SplineSet
41.2998046875 222 m 1
 128.673828125 222 l 2
 129.3125 222.918945312 132.1796875 226.594726562 137.219726562 226.594726562 c 0
 146.708984375 226.594726562 148.317382812 218.278320312 148.436523438 205.052734375 c 0
 161.32210375 147.141601562 222.644083821 104 302.565307796 104 c 0
 396.086451163 104 458.641601562 146.546875 458.641601562 210.80859375 c 0
 458.641601562 259.68359375 426.930432579 288.392578125 296.274586971 321.204101562 c 0
 143.048828125 359.993164062 57.6416015625 412.229492188 57.6416015625 526.475585938 c 0
 57.6416015625 639.28515625 150.423828125 725 302.565307796 725 c 0
 423.794483152 725 520.875 657.65234375 539.493164062 550.59375 c 1
 539.493164062 540.59375 539.493164062 539.72265625 539.493164062 549.72265625 c 2
 539.493164062 544.837890625 540.271484375 538.370117188 540.475585938 537.515625 c 1
 540.40625 537.729492188 540.259765625 538.153320312 540.259765625 538.153320312 c 1
 540.259765625 528.153320312 531.16796875 534.189453125 531.16796875 544.189453125 c 1
 531.16796875 534.189453125 522.524414062 527.0078125 522.524414062 537.0078125 c 1
 522.524414062 527.0078125 531.532226562 518 531.532226562 528 c 1
 438.288446145 528 l 2
 437.172721557 526.268554688 434.453992476 523.133789062 428.971570719 523.133789062 c 0
 418.66026785 523.133789062 416.64004301 532.912109375 416.409996703 543.17578125 c 0
 401.618019177 580.747070312 354.966719489 612 302.565307796 612 c 0
 222.531151998 612 175.37897876 566.625976562 175.37897876 520.223632812 c 0
 175.37897876 475.7421875 208.831894428 454.078125 308.993010741 428.583007812 c 0
 460.926757812 389.256835938 574.641601562 336.219726562 574.641601562 204.556640625 c 0
 574.641601562 74.244140625 459.297851562 -9 302.565307796 -9 c 0
 157.918464075 -9 48.5126953125 74.892578125 32.7197265625 200.102539062 c 1
 32.7197265625 210.102539062 32.7197265625 210.73828125 32.7197265625 200.73828125 c 2
 32.7197265625 205.826171875 32.1953125 212.092773438 32 213.232421875 c 1
 32.033203125 213.087890625 32.0947265625 212.865234375 32.0947265625 212.865234375 c 1
 32.0947265625 222.865234375 41.5634765625 215.89453125 41.5634765625 205.89453125 c 1
 41.5634765625 215.89453125 50.150390625 223.150390625 50.150390625 213.150390625 c 1
 50.150390625 223.150390625 41.2998046875 232 41.2998046875 222 c 1
318.08611385 781 m 1
 302.107306513 781 l 2
 300.957074979 778.756835938 297.508471707 773.5 290.458598069 773.5 c 0
 283.596944136 773.5 278.971967705 778.69140625 277.555091588 784.353515625 c 0
 257.1552125 799.815429688 158.868973588 909.681640625 148.126953125 930.4453125 c 0
 147.384765625 931.94140625 146.301757812 933.290039062 146.301757812 937.16796875 c 1
 167.313764377 937.16796875 l 1
 167.313764377 927.16796875 158.836557972 935.545898438 158.836557972 945.545898438 c 1
 176.748799951 951.748046875 204.769485783 971.342773438 210.457903551 978.134765625 c 1
 210.457903551 978.133789062 210.189167638 976.271484375 210.189167638 976.271484375 c 1
 231.604387471 976.271484375 l 1
 231.604387471 966.271484375 232.629139201 966.254882812 232.629139201 976.254882812 c 1
 243.469548576 960.758789062 295.044884894 910.817382812 310.580330258 900.1171875 c 1
 326.439931781 911.177734375 378.429351452 962.4609375 387.944903233 976.8828125 c 0
 388.664320774 977.973632812 389.004161909 978.35546875 389.127550383 978.35546875 c 0
 389.167285654 978.35546875 389.185061959 978.315429688 389.185061959 978.24609375 c 0
 389.185061959 977.822265625 388.533612645 976.303710938 388.533612645 976.303710938 c 1
 409.948832478 976.303710938 l 1
 409.948832478 966.303710938 409.741790802 968.298828125 409.741790802 978.298828125 c 1
 416.191452712 969.708007812 451.734652777 947.216796875 460.333984375 945.53125 c 1
 460.176757812 945.545898438 459.934570312 945.546875 459.934570312 945.546875 c 1
 459.934570312 935.546875 451.792164353 927.16796875 451.792164353 937.16796875 c 1
 471.98046875 937.16796875 l 1
 471.98046875 930.430664062 462.9375 918.465820312 452.364143125 904.67578125 c 0
 429.232986977 876.094726562 361.847195392 799.0546875 342.644602765 784.379882812 c 0
 341.231909308 778.698242188 336.600658887 773.5 329.734822294 773.5 c 0
 327.400897945 773.5 321.561904412 774.223632812 318.08611385 781 c 1
321.328721111 890.01953125 m 1
 311.517246126 899.091796875 311.517246126 899.091796875 311.388629327 899.091796875 c 2
 311.388629327 889.091796875 309.847319071 889.213867188 309.847319071 899.213867188 c 1
 309.847319071 889.213867188 299.913501278 880.01953125 299.913501278 890.01953125 c 1
 321.328721111 890.01953125 l 1
EndSplineSet
Validated: 524293
EndChar

StartChar: Scedilla
Encoding: 350 350 83
Width: 604
GlyphClass: 2
Flags: HW
AnchorPoint: "Anchor-0" 262 0 basechar 0
LayerCount: 2
Fore
SplineSet
32.8330078125 194.838867188 m 1
 32.8330078125 204.838867188 32.8330078125 205.4921875 32.8330078125 195.4921875 c 2
 32.8330078125 198.04296875 32 204.533203125 32 204.533203125 c 1
 32 214.533203125 41.5126953125 207.470703125 41.5126953125 197.470703125 c 1
 41.5126953125 207.470703125 51.3671875 216.499023438 51.3671875 206.499023438 c 1
 51.3671875 216.499023438 41.4111328125 226.455078125 41.4111328125 216.455078125 c 1
 132.129882812 216.455078125 l 2
 133.427734375 217.206054688 135.071289062 217.749023438 137.11328125 217.749023438 c 0
 139.83984375 217.749023438 148.109375 217.55078125 148.540039062 199.7890625 c 0
 161.375186584 143.70703125 222.581582599 101.596679688 302.680558494 101.596679688 c 0
 396.167878021 101.596679688 458.75390625 144.288085938 458.75390625 208.853515625 c 0
 458.75390625 257.96875 427.015232405 286.78125 296.380592046 319.71484375 c 0
 143.134765625 358.659179688 57.75390625 411.10546875 57.75390625 525.743164062 c 0
 57.75390625 638.9375 150.504882812 725 302.680558494 725 c 0
 423.907597504 725 520.987304688 657.65234375 539.60546875 550.59375 c 1
 539.60546875 540.59375 539.60546875 539.72265625 539.60546875 549.72265625 c 2
 539.60546875 544.837890625 540.383789062 538.370117188 540.587890625 537.515625 c 1
 540.518554688 537.729492188 540.372070312 538.153320312 540.372070312 538.153320312 c 1
 540.372070312 528.153320312 531.280273438 534.189453125 531.280273438 544.189453125 c 1
 531.280273438 534.189453125 522.63671875 527.0078125 522.63671875 537.0078125 c 1
 522.63671875 527.0078125 531.64453125 518 531.64453125 528 c 1
 438.401180064 528 l 1
 437.285484761 526.268554688 434.566827041 523.133789062 429.084549185 523.133789062 c 0
 418.773516963 523.133789062 416.75334515 532.912109375 416.523304881 543.17578125 c 0
 401.731715609 580.747070312 355.081640409 612 302.680558494 612 c 0
 222.647457767 612 175.498613439 566.661132812 175.498613439 520.297851562 c 0
 175.498613439 475.854492188 208.949605409 454.20703125 309.108092726 428.731445312 c 0
 461.037109375 389.4375 574.75390625 336.442382812 574.75390625 204.879882812 c 0
 574.75390625 102.412109375 502.3046875 28.0390625 396.128143793 1.9375 c 1
 425.595256565 -15.982421875 445.484329062 -42.9619140625 445.484329062 -76 c 0
 445.484329062 -139.639648438 375.390013578 -180 299.204859162 -180 c 0
 222.007527565 -180 151.782226562 -139.71484375 151.782226562 -76 c 0
 151.782226562 -69.3330078125 151.782226562 -62.6669921875 151.782226562 -56 c 1
 241.445930263 -56 l 1
 234.639875225 -54.0458984375 232.640616163 -53.146484375 218.165855079 -46.6328125 c 1
 225.644255085 -32.435546875 233.121609452 -18.23828125 240.600009457 -4.041015625 c 1
 129.859375 15.091796875 46.51953125 89.2890625 32.8330078125 194.838867188 c 1
265.873069878 -59.5 m 0
 261.996891351 -59.5 258.135351751 -59.2353515625 254.292633628 -58.7138671875 c 1
 254.292633628 -64.4755859375 254.292633628 -70.23828125 254.292633628 -76 c 0
 254.292633628 -84.99609375 268.874049745 -101 299.204859162 -101 c 0
 327.716259182 -101 341.798906172 -85.623046875 341.798906172 -76 c 0
 341.798906172 -67.9833984375 328.683473948 -52.8466796875 301.502124936 -52.0341796875 c 1
 289.874634995 -56.9345703125 277.938681966 -59.5 265.873069878 -59.5 c 0
EndSplineSet
Validated: 524293
EndChar

StartChar: Scommaaccent
Encoding: 536 536 84
Width: 604
GlyphClass: 2
Flags: HW
AnchorPoint: "Anchor-0" 262 0 basechar 0
LayerCount: 2
Fore
SplineSet
228.34504957 -254 m 1
 228.34504957 -244 228.34504957 -234 228.34504957 -244 c 2
 228.34504957 -229.436523438 247.890620327 -169.33984375 248.144716929 -168.600585938 c 0
 224.192713732 -155.259765625 208.426176396 -131.828125 208.426176396 -105 c 0
 208.426176396 -63.03515625 248.32770831 -30 295.612681006 -30 c 0
 342.041254042 -30 381.639543097 -63.2060546875 381.639543097 -105 c 0
 381.639543097 -125.4921875 372.725248708 -141.860351562 366.277678128 -152.411132812 c 0
 304.182951599 -254 304.182951599 -254 304.182951599 -254 c 1
 228.34504957 -254 l 1
41.2998046875 222 m 1
 128.673828125 222 l 2
 129.3125 222.918945312 132.1796875 226.594726562 137.219726562 226.594726562 c 0
 146.708984375 226.594726562 148.317382812 218.278320312 148.436523438 205.052734375 c 0
 161.32210375 147.141601562 222.644083821 104 302.565307796 104 c 0
 396.086451163 104 458.641601562 146.546875 458.641601562 210.80859375 c 0
 458.641601562 259.68359375 426.930432579 288.392578125 296.274586971 321.204101562 c 0
 143.048828125 359.993164062 57.6416015625 412.229492188 57.6416015625 526.475585938 c 0
 57.6416015625 639.28515625 150.423828125 725 302.565307796 725 c 0
 423.794483152 725 520.875 657.65234375 539.493164062 550.59375 c 1
 539.493164062 540.59375 539.493164062 539.72265625 539.493164062 549.72265625 c 2
 539.493164062 544.837890625 540.271484375 538.370117188 540.475585938 537.515625 c 1
 540.40625 537.729492188 540.259765625 538.153320312 540.259765625 538.153320312 c 1
 540.259765625 528.153320312 531.16796875 534.189453125 531.16796875 544.189453125 c 1
 531.16796875 534.189453125 522.524414062 527.0078125 522.524414062 537.0078125 c 1
 522.524414062 527.0078125 531.532226562 518 531.532226562 528 c 1
 438.288446145 528 l 2
 437.172721557 526.268554688 434.453992476 523.133789062 428.971570719 523.133789062 c 0
 418.66026785 523.133789062 416.64004301 532.912109375 416.409996703 543.17578125 c 0
 401.618019177 580.747070312 354.966719489 612 302.565307796 612 c 0
 222.531151998 612 175.37897876 566.625976562 175.37897876 520.223632812 c 0
 175.37897876 475.7421875 208.831894428 454.078125 308.993010741 428.583007812 c 0
 460.926757812 389.256835938 574.641601562 336.219726562 574.641601562 204.556640625 c 0
 574.641601562 74.244140625 459.297851562 -9 302.565307796 -9 c 0
 157.918464075 -9 48.5126953125 74.892578125 32.7197265625 200.102539062 c 1
 32.7197265625 210.102539062 32.7197265625 210.73828125 32.7197265625 200.73828125 c 2
 32.7197265625 205.826171875 32.1953125 212.092773438 32 213.232421875 c 1
 32.033203125 213.087890625 32.0947265625 212.865234375 32.0947265625 212.865234375 c 1
 32.0947265625 222.865234375 41.5634765625 215.89453125 41.5634765625 205.89453125 c 1
 41.5634765625 215.89453125 50.150390625 223.150390625 50.150390625 213.150390625 c 1
 50.150390625 223.150390625 41.2998046875 232 41.2998046875 222 c 1
EndSplineSet
Validated: 524293
EndChar

StartChar: Germandbls
Encoding: 7838 7838 85
Width: 690
GlyphClass: 2
Flags: HW
LayerCount: 2
Fore
SplineSet
483.74651923 405.939453125 m 1
 541.995117188 367.124023438 645 276.198242188 645 164.283203125 c 0
 645 -0.83203125 530.852448161 -38.158203125 363.920210139 -38.158203125 c 0
 346.165372876 -38.158203125 338.993446347 -38.158203125 289.084545643 -36.01171875 c 1
 289.084545643 -26.01171875 289.084545643 84.4560546875 289.084545643 74.4560546875 c 1
 334.833817558 71.728515625 343.764394384 71.3232421875 365.078615814 71.3232421875 c 0
 508.590238914 71.3232421875 530.944367541 114.059570312 530.944367541 167.55078125 c 0
 530.944367541 233.478515625 428.113160931 313.571289062 343.779434141 363.518554688 c 0
 343.55671874 363.551757812 327.800134337 368.008789062 327.800134337 377.759765625 c 1
 349.52018876 377.759765625 l 1
 344.525000463 381.98046875 340.101448363 386.70703125 334.447658806 390.341796875 c 1
 370.095910238 445.208007812 445.549767271 565.719726562 467.117102562 604 c 1
 268.864257812 604 l 2
 212.916263157 604 202.687848902 598.318359375 199.006835938 593.57421875 c 0
 195.624023438 588.041992188 193 572.4375 193 545.212890625 c 2
 193 537.41796875 193 9.6796875 193 0 c 1
 80 0 l 1
 80 9.7275390625 80 545.6953125 80 550.98046875 c 2
 80 602.63671875 83.1884765625 640.927734375 103.163085938 669.211914062 c 0
 129.276367188 706.19140625 176.59765625 714 268.864257812 714 c 2
 278.864257812 714 l 1
 278.864257812 704 278.864257812 701.385742188 278.864257812 711.385742188 c 1
 302.473150953 708.560546875 381.830890814 706.5 459.439784496 706.5 c 0
 542.900390625 706.5 622.567382812 708.939453125 635.930664062 712.149414062 c 1
 635.737304688 712.078125 635.583007812 711.81640625 635.583007812 711.81640625 c 2
 633.751953125 710.2421875 633.751953125 710.2421875 632.059570312 707.45703125 c 0
 632.059570312 707.456054688 631.415039062 704 631.415039062 704 c 1
 651.415039062 704 l 1
 651.415039062 701.055664062 651.415039062 700.235351562 644.831054688 687.177734375 c 0
 630.12109375 658.001953125 541.224609375 497.7578125 483.74651923 405.939453125 c 1
EndSplineSet
Validated: 524325
EndChar

StartChar: T
Encoding: 84 84 86
Width: 656
GlyphClass: 2
Flags: HW
AnchorPoint: "Anchor-0" 288 0 basechar 0
LayerCount: 2
Fore
SplineSet
266.350243102 604 m 1
 10 604 l 1
 10 594 10 704 10 714 c 1
 646 714 l 1
 646 704 646 594 646 604 c 1
 391.100980718 604 l 1
 391.100980718 594.3203125 405.116210938 9.6796875 405.116210938 -0 c 1
 405.116210938 10 292.202148438 10 292.202148438 -0 c 1
 292.202148438 9.6796875 266.350243102 594.3203125 266.350243102 604 c 1
EndSplineSet
Validated: 524325
EndChar

StartChar: Tbar
Encoding: 358 358 87
Width: 656
GlyphClass: 2
Flags: HW
AnchorPoint: "Anchor-0" 288 0 basechar 0
LayerCount: 2
Fore
SplineSet
566 760 m 1
 92 760 l 1
 92 750 92 849 92 859 c 1
 566 859 l 1
 566 849 566 750 566 760 c 1
266.350243102 604 m 1
 10 604 l 1
 10 594 10 704 10 714 c 1
 646 714 l 1
 646 704 646 594 646 604 c 1
 391.100980718 604 l 1
 391.100980718 594.3203125 405.116210938 9.6796875 405.116210938 -0 c 1
 405.116210938 10 292.202148438 10 292.202148438 -0 c 1
 292.202148438 9.6796875 266.350243102 594.3203125 266.350243102 604 c 1
EndSplineSet
Validated: 524325
EndChar

StartChar: Tcaron
Encoding: 356 356 88
Width: 656
GlyphClass: 2
Flags: HW
AnchorPoint: "Anchor-0" 288 0 basechar 0
LayerCount: 2
Fore
SplineSet
405.116210938 -0 m 1
 292.202148438 -0 l 1
 292.202148438 9.6796875 266.350243102 594.3203125 266.350243102 604 c 1
 10 604 l 1
 10 594 10 704 10 714 c 1
 646 714 l 1
 646 704 646 594 646 604 c 1
 391.100980718 604 l 1
 391.100980718 594.3203125 405.116210938 9.6796875 405.116210938 -0 c 1
337.167085688 781 m 1
 322.180705618 781 l 2
 321.019520861 778.68359375 317.652187916 773.5 310.76221742 773.5 c 0
 303.934985871 773.5 299.453779505 778.790039062 298.103349402 784.41796875 c 0
 278.340581366 799.934570312 183.415527344 909.76953125 172.783847241 930.5078125 c 0
 172.015552277 932.006835938 170.909906915 933.344726562 170.909906915 937.16796875 c 1
 191.973736702 937.16796875 l 1
 191.973736702 927.16796875 183.603744182 935.545898438 183.603744182 945.545898438 c 1
 202.249553275 952.46484375 228.390095163 971.772460938 233.498690991 978.09765625 c 1
 233.498690991 968.09765625 233.243621177 966.271484375 233.243621177 976.271484375 c 1
 254.307450964 976.271484375 l 1
 254.307450964 966.271484375 255.314359624 966.173828125 255.314359624 976.173828125 c 1
 265.702283494 960.752929688 314.961612783 911.206054688 330.138266705 900.212890625 c 1
 349.897949219 914.696289062 401.663750831 969.77734375 405.315980303 978.401367188 c 1
 405.315980303 968.401367188 404.988914977 966.303710938 404.988914977 976.303710938 c 1
 426.052744764 976.303710938 l 1
 426.052744764 966.303710938 425.844986287 968.30859375 425.844986287 978.30859375 c 1
 432.203218501 969.721679688 467.258861785 947.221679688 476.156478557 945.532226562 c 1
 475.993974402 945.546875 475.745075632 945.546875 475.745075632 945.546875 c 1
 475.745075632 935.546875 467.374054604 927.16796875 467.374054604 937.16796875 c 1
 488.437884392 937.16796875 l 1
 488.437884392 933.584960938 488.437884392 930.456054688 468.139264046 904.712890625 c 0
 445.859738614 876.45703125 380.06921127 799.198242188 361.244441905 784.41796875 c 0
 361.027426862 783.513671875 358.403704704 773.5 348.585573886 773.5 c 0
 343.593199385 773.5 339.496654754 776.3515625 337.167085688 781 c 1
319.646463597 890.01953125 m 1
 340.710293384 890.01953125 l 1
 340.710293384 890.01953125 331.090664478 898.995117188 330.993984791 899.0859375 c 2
 330.993984791 889.0859375 329.432710688 889.213867188 329.432710688 899.213867188 c 1
 329.432710688 889.213867188 319.646463597 880.01953125 319.646463597 890.01953125 c 1
EndSplineSet
Validated: 524325
EndChar

StartChar: Tcedilla
Encoding: 354 354 89
Width: 656
GlyphClass: 2
Flags: HW
AnchorPoint: "Anchor-0" 288 0 basechar 0
LayerCount: 2
Fore
SplineSet
266.137342088 0 m 1
 266.137342088 9.6796875 266.137342088 594.3203125 266.137342088 604 c 1
 10 604 l 1
 10 594 10 704 10 714 c 1
 646 714 l 1
 646 704 646 594 646 604 c 1
 390.978588348 604 l 1
 390.978588348 594.286132812 390.978588348 19.853515625 390.978588348 12.6728515625 c 1
 433.847801695 -2.9765625 465.742842005 -34.5498046875 465.742842005 -76 c 0
 465.742842005 -139.469726562 398.264534159 -180 324.652208693 -180 c 0
 250.067943816 -180 182.446673454 -139.544921875 182.446673454 -76 c 0
 182.446673454 -69.3330078125 182.446673454 -62.6669921875 182.446673454 -56 c 1
 268.875228557 -56 l 1
 262.255755485 -54.03515625 260.307762633 -53.1259765625 246.262466755 -46.57421875 c 1
 254.258082613 -31.0498046875 262.253698471 -15.5244140625 270.249314328 0 c 1
 266.137342088 0 l 1
292.497984541 -59.5 m 0
 288.86118268 -59.58984375 285.230551862 -59.25 281.621519697 -58.7587890625 c 1
 281.621519697 -64.505859375 281.621519697 -70.2529296875 281.621519697 -76 c 0
 281.621519697 -85.16796875 295.691499751 -101 324.652208693 -101 c 0
 351.85417013 -101 365.451036818 -85.796875 365.451036818 -76 c 0
 365.451036818 -67.82421875 352.821995512 -52.8759765625 326.945780003 -52.037109375 c 1
 316.866408328 -56.4306640625 295.079537899 -59.4365234375 292.497984541 -59.5 c 0
EndSplineSet
Validated: 524325
EndChar

StartChar: Tcommaaccent
Encoding: 538 538 90
Width: 656
GlyphClass: 2
Flags: HW
AnchorPoint: "Anchor-0" 288 0 basechar 0
LayerCount: 2
Fore
SplineSet
266.350243102 604 m 1
 10 604 l 1
 10 594 10 704 10 714 c 1
 646 714 l 1
 646 704 646 594 646 604 c 1
 391.100980718 604 l 1
 391.100980718 594.3203125 405.116210938 9.6796875 405.116210938 -0 c 1
 405.116210938 10 292.202148438 10 292.202148438 -0 c 1
 292.202148438 9.6796875 266.350243102 594.3203125 266.350243102 604 c 1
280.275503495 -254 m 1
 280.275503495 -244 280.275503495 -234 280.275503495 -244 c 2
 280.275503495 -229.46484375 299.826171875 -169.377929688 300.060546875 -168.639648438 c 0
 275.552520908 -155.409179688 257.452581273 -132.120117188 257.452581273 -105 c 0
 257.452581273 -62.875 300.76171875 -30 342 -30 c 0
 382.829101562 -30 421.277699039 -63.4814453125 421.277699039 -105 c 0
 421.277699039 -125.525390625 410.934346654 -141.856445312 403.653320312 -152.404296875 c 2
 403.653320312 -142.404296875 350.064453125 -244 350.064453125 -254 c 1
 280.275503495 -254 l 1
EndSplineSet
Validated: 524325
EndChar

StartChar: U
Encoding: 85 85 91
Width: 748
GlyphClass: 2
Flags: HW
LayerCount: 2
Fore
SplineSet
173 714 m 1
 173 704.314453125 173 271.043945312 173 266.685546875 c 2
 173 205.53125 196.314207706 160.591796875 237.873021311 132.284179688 c 0
 271.284297284 109.526367188 317.536577634 97 375.107851358 97 c 0
 433.393370623 97 479.219159031 109.967773438 511.994294012 132.984375 c 0
 552.784394429 161.629882812 575 206.764648438 575 266.685546875 c 2
 575 271.043945312 575 704.314453125 575 714 c 1
 688 714 l 1
 688 704.266601562 688 265.087890625 688 262.7890625 c 2
 688 186.995117188 667.01171875 122.958007812 626.189453125 75.2421875 c 0
 573.998000859 15.2783203125 485.389418357 -16 375.107851358 -16 c 0
 314.111282109 -16 226.816089251 -6.5947265625 156.727539062 42.7431640625 c 0
 130.446289062 62.9814453125 60 124.337890625 60 262.7890625 c 2
 60 265.087890625 60 704.266601562 60 714 c 1
 173 714 l 1
EndSplineSet
Validated: 524289
EndChar

StartChar: Uacute
Encoding: 218 218 92
Width: 748
GlyphClass: 2
Flags: HW
LayerCount: 2
Fore
SplineSet
392.524137966 945.532226562 m 1
 399.193855326 943.432617188 423.763901955 941.5 447.463493946 941.5 c 0
 451.279312214 941.5 489.050055219 941.598632812 502.78720652 945.575195312 c 1
 502.78720652 935.575195312 499.477012435 929 499.477012435 939 c 1
 520.524132853 939 l 1
 520.524132853 935.171875 520.524132853 932.18359375 497.159568267 903.528320312 c 0
 493.856568022 899.4765625 386.202808001 771.565429688 369.110244192 764.380859375 c 0
 361.066503395 758.6484375 338.265113711 756.5 308.841280473 756.5 c 0
 248.696667417 756.5 243.342395083 765.291992188 243.342395083 774 c 1
 264.389515502 774 l 1
 260.629192572 777.977539062 255.868925884 781.005859375 252.875260758 785.711914062 c 1
 278.569601808 812.053710938 365.051890748 922.475585938 374.537482616 940.46484375 c 1
 374.537482616 930.46484375 374.403882731 929 374.403882731 939 c 1
 395.45100315 939 l 1
 395.45100315 929 392.524137966 935.532226562 392.524137966 945.532226562 c 1
173 714 m 1
 173 704.314453125 173 271.043945312 173 266.685546875 c 2
 173 205.53125 196.314207706 160.591796875 237.873021311 132.284179688 c 0
 271.284297284 109.526367188 317.536577634 97 375.107851358 97 c 0
 433.393370623 97 479.219159031 109.967773438 511.994294012 132.984375 c 0
 552.784394429 161.629882812 575 206.764648438 575 266.685546875 c 2
 575 271.043945312 575 704.314453125 575 714 c 1
 688 714 l 1
 688 704.266601562 688 265.087890625 688 262.7890625 c 2
 688 186.995117188 667.01171875 122.958007812 626.189453125 75.2421875 c 0
 573.998000859 15.2783203125 485.389418357 -16 375.107851358 -16 c 0
 314.111282109 -16 226.816089251 -6.5947265625 156.727539062 42.7431640625 c 0
 130.446289062 62.9814453125 60 124.337890625 60 262.7890625 c 2
 60 265.087890625 60 704.266601562 60 714 c 1
 173 714 l 1
EndSplineSet
Validated: 524293
EndChar

StartChar: Ucircumflex
Encoding: 219 219 93
Width: 748
GlyphClass: 2
Flags: HW
LayerCount: 2
Fore
SplineSet
219.484538613 793.857421875 m 0
 218.320164226 795.698242188 216.917365429 798.043945312 216.917365429 801.83203125 c 1
 237.964485848 801.83203125 l 1
 237.964485848 791.83203125 227.842752986 801.341796875 227.842752986 811.341796875 c 1
 227.842752986 801.341796875 226.837670771 803.211914062 226.837670771 813.211914062 c 1
 251.903064668 836.43359375 334.073160381 933.681640625 342.769485234 949.846679688 c 1
 342.769485234 949.845703125 342.55058696 948 342.55058696 948 c 1
 347.971659236 948 l 1
 347.971659236 938 347.971659236 948 347.971659236 958 c 1
 401.135164431 958 l 1
 401.135164431 948 401.135164431 938 401.135164431 948 c 1
 406.557264398 948 l 1
 406.557264398 938 408.950757731 935.791992188 408.950757731 945.791992188 c 1
 428.150088964 917.198242188 514.541941059 817.563476562 525.760220672 810.236328125 c 1
 525.760220672 800.236328125 524.07275135 800.948242188 524.07275135 810.948242188 c 2
 521.264070681 811.341796875 l 1
 521.264070681 801.341796875 511.14336551 791.83203125 511.14336551 801.83203125 c 1
 532.190485929 801.83203125 l 1
 532.190485929 784.104492188 481.186160422 757.5703125 480.570573258 757.2578125 c 0
 474.117698789 753.973632812 468.879555587 751.075195312 461.896392343 751.075195312 c 0
 460.497704311 751.075195312 458.666358189 751.185546875 456.590421507 752.038085938 c 0
 443.777164799 753.702148438 390.47389357 810.448242188 375.001999141 829.754882812 c 1
 362.591597472 814.455078125 318.52007833 767.61328125 299.658857575 755.358398438 c 0
 297.577782436 754.005859375 292.964475622 751.008789062 287.159046752 751.106445312 c 0
 271.559718586 751.106445312 227.816033009 780.685546875 219.484538613 793.857421875 c 0
393.322654205 950.5 m 1
 393.322654205 940.5 388.948799493 938 388.948799493 948 c 1
 397.637930506 948 l 1
 397.637930506 938 393.322654205 940.5 393.322654205 950.5 c 1
355.785197153 950.5 m 1
 355.785197153 940.5 351.41031475 938 351.41031475 948 c 1
 360.099445762 948 l 1
 360.099445762 938 355.785197153 940.5 355.785197153 950.5 c 1
173 714 m 1
 173 704.314453125 173 271.043945312 173 266.685546875 c 2
 173 205.53125 196.314207706 160.591796875 237.873021311 132.284179688 c 0
 271.284297284 109.526367188 317.536577634 97 375.107851358 97 c 0
 433.393370623 97 479.219159031 109.967773438 511.994294012 132.984375 c 0
 552.784394429 161.629882812 575 206.764648438 575 266.685546875 c 2
 575 271.043945312 575 704.314453125 575 714 c 1
 688 714 l 1
 688 704.266601562 688 265.087890625 688 262.7890625 c 2
 688 186.995117188 667.01171875 122.958007812 626.189453125 75.2421875 c 0
 573.998000859 15.2783203125 485.389418357 -16 375.107851358 -16 c 0
 314.111282109 -16 226.816089251 -6.5947265625 156.727539062 42.7431640625 c 0
 130.446289062 62.9814453125 60 124.337890625 60 262.7890625 c 2
 60 265.087890625 60 704.266601562 60 714 c 1
 173 714 l 1
EndSplineSet
Validated: 524293
EndChar

StartChar: Udieresis
Encoding: 220 220 94
Width: 748
GlyphClass: 2
Flags: HW
LayerCount: 2
Fore
SplineSet
267.684294216 895 m 0
 305.722236993 895 339.118097595 866.044921875 339.118097595 831 c 0
 339.118097595 793.961914062 306.417984089 764 267.684294216 764 c 0
 226.986686027 764 195.143667171 794.11328125 195.143667171 831 c 0
 195.143667171 865.884765625 227.674211592 895 267.684294216 895 c 0
481.42252945 895 m 0
 519.461499918 895 552.856332829 866.044921875 552.856332829 831 c 0
 552.856332829 793.961914062 520.156219323 764 481.42252945 764 c 0
 440.724921261 764 408.881902405 794.11328125 408.881902405 831 c 0
 408.881902405 865.884765625 441.413474517 895 481.42252945 895 c 0
173 714 m 1
 173 704.314453125 173 271.043945312 173 266.685546875 c 2
 173 205.53125 196.314207706 160.591796875 237.873021311 132.284179688 c 0
 271.284297284 109.526367188 317.536577634 97 375.107851358 97 c 0
 433.393370623 97 479.219159031 109.967773438 511.994294012 132.984375 c 0
 552.784394429 161.629882812 575 206.764648438 575 266.685546875 c 2
 575 271.043945312 575 704.314453125 575 714 c 1
 688 714 l 1
 688 704.266601562 688 265.087890625 688 262.7890625 c 2
 688 186.995117188 667.01171875 122.958007812 626.189453125 75.2421875 c 0
 573.998000859 15.2783203125 485.389418357 -16 375.107851358 -16 c 0
 314.111282109 -16 226.816089251 -6.5947265625 156.727539062 42.7431640625 c 0
 130.446289062 62.9814453125 60 124.337890625 60 262.7890625 c 2
 60 265.087890625 60 704.266601562 60 714 c 1
 173 714 l 1
EndSplineSet
Validated: 524289
EndChar

StartChar: Ugrave
Encoding: 217 217 95
Width: 748
GlyphClass: 2
Flags: HW
LayerCount: 2
Fore
SplineSet
391.148059146 764 m 2
 390.086453902 763.700195312 389.077260921 763.563476562 388.241747791 763.563476562 c 0
 383.724016279 763.563476562 381.386018284 763.563476562 362.639898969 782.646484375 c 0
 328.483546711 817.416015625 257.444376841 898.3515625 238.315956315 925.353515625 c 0
 234.42922734 930.83984375 231.906244887 934.401367188 231.906244887 939 c 1
 252.953365306 939 l 1
 252.953365306 929 250.026500123 935.532226562 250.026500123 945.532226562 c 1
 256.696217482 943.432617188 281.266264112 941.5 304.965856103 941.5 c 0
 308.780646679 941.5 346.552417376 941.598632812 360.289568676 945.575195312 c 1
 360.289568676 935.575195312 356.9783469 929 356.9783469 939 c 1
 378.025467318 939 l 1
 378.025467318 929 380.756043439 925.9375 380.756043439 935.9375 c 1
 399.213381463 906.9609375 479.851189259 805.362304688 500.531423838 784.72265625 c 0
 502.283637721 782.974609375 503.245556896 782.206054688 503.245556896 782.206054688 c 1
 503.245556896 772.206054688 501.544727585 773.01953125 501.544727585 783.01953125 c 2
 498.230422734 783.563476562 l 1
 498.230422734 773.563476562 488.039834547 764 488.039834547 774 c 1
 488.039834547 764 498.563394756 754 498.563394756 764 c 1
 391.148059146 764 l 2
173 714 m 1
 173 704.314453125 173 271.043945312 173 266.685546875 c 2
 173 205.53125 196.314207706 160.591796875 237.873021311 132.284179688 c 0
 271.284297284 109.526367188 317.536577634 97 375.107851358 97 c 0
 433.393370623 97 479.219159031 109.967773438 511.994294012 132.984375 c 0
 552.784394429 161.629882812 575 206.764648438 575 266.685546875 c 2
 575 271.043945312 575 704.314453125 575 714 c 1
 688 714 l 1
 688 704.266601562 688 265.087890625 688 262.7890625 c 2
 688 186.995117188 667.01171875 122.958007812 626.189453125 75.2421875 c 0
 573.998000859 15.2783203125 485.389418357 -16 375.107851358 -16 c 0
 314.111282109 -16 226.816089251 -6.5947265625 156.727539062 42.7431640625 c 0
 130.446289062 62.9814453125 60 124.337890625 60 262.7890625 c 2
 60 265.087890625 60 704.266601562 60 714 c 1
 173 714 l 1
EndSplineSet
Validated: 524293
EndChar

StartChar: Uhungarumlaut
Encoding: 368 368 96
Width: 748
GlyphClass: 2
Flags: HW
LayerCount: 2
Fore
SplineSet
351.549053092 918.532226562 m 1
 358.218770452 916.432617188 382.78778939 914.5 406.488409072 914.5 c 0
 410.303199648 914.5 448.074970345 914.598632812 461.811093955 918.575195312 c 1
 461.811093955 908.575195312 458.500899869 902 458.500899869 912 c 1
 479.548020288 912 l 1
 479.548020288 908.171875 479.548020288 905.18359375 456.183455702 876.528320312 c 0
 452.880455456 872.4765625 345.226695435 744.565429688 328.134131626 737.380859375 c 0
 320.091418521 731.6484375 297.290028837 729.5 267.865167907 729.5 c 0
 207.720554851 729.5 202.367310209 738.291992188 202.367310209 747 c 1
 223.414430628 747 l 1
 219.653080007 750.977539062 214.893841009 754.005859375 211.899148192 758.711914062 c 1
 237.594516934 785.053710938 324.075778182 895.475585938 333.561370051 913.46484375 c 1
 333.561370051 903.46484375 333.427770165 902 333.427770165 912 c 1
 354.474890584 912 l 1
 354.474890584 902 351.549053092 908.532226562 351.549053092 918.532226562 c 1
532.031193758 918.5078125 m 1
 538.402880604 916.44921875 562.337813932 914.5 584.892578125 914.5 c 0
 588.926757812 914.5 622.8984375 914.615234375 635.877929688 918.502929688 c 1
 635.877929688 908.502929688 632.8046875 902 632.8046875 912 c 1
 652.8046875 912 l 1
 652.8046875 908.232421875 652.8046875 905.2421875 631.10546875 876.61328125 c 0
 629.999023438 875.15234375 525.553654696 744.483398438 508.652241492 737.383789062 c 0
 500.609528387 731.6484375 477.80608332 729.5 448.380194699 729.5 c 0
 388.235581643 729.5 382.88130931 738.291992188 382.88130931 747 c 1
 403.928429728 747 l 1
 400.168106798 750.977539062 395.408867801 754.005859375 392.414174984 758.711914062 c 1
 418.108516034 785.053710938 504.590804974 895.475585938 514.076396842 913.46484375 c 1
 514.076396842 903.46484375 513.942796957 902 513.942796957 912 c 1
 534.989917376 912 l 1
 534.989917376 902 532.031193758 908.5078125 532.031193758 918.5078125 c 1
173 714 m 1
 173 704.314453125 173 271.043945312 173 266.685546875 c 2
 173 205.53125 196.314207706 160.591796875 237.873021311 132.284179688 c 0
 271.284297284 109.526367188 317.536577634 97 375.107851358 97 c 0
 433.393370623 97 479.219159031 109.967773438 511.994294012 132.984375 c 0
 552.784394429 161.629882812 575 206.764648438 575 266.685546875 c 2
 575 271.043945312 575 704.314453125 575 714 c 1
 688 714 l 1
 688 704.266601562 688 265.087890625 688 262.7890625 c 2
 688 186.995117188 667.01171875 122.958007812 626.189453125 75.2421875 c 0
 573.998000859 15.2783203125 485.389418357 -16 375.107851358 -16 c 0
 314.111282109 -16 226.816089251 -6.5947265625 156.727539062 42.7431640625 c 0
 130.446289062 62.9814453125 60 124.337890625 60 262.7890625 c 2
 60 265.087890625 60 704.266601562 60 714 c 1
 173 714 l 1
EndSplineSet
Validated: 524293
EndChar

StartChar: Umacron
Encoding: 362 362 97
Width: 748
GlyphClass: 2
Flags: HW
LayerCount: 2
Fore
SplineSet
612 760 m 1
 138 760 l 1
 138 750 138 849 138 859 c 1
 612 859 l 1
 612 849 612 750 612 760 c 1
173 714 m 1
 173 704.314453125 173 271.043945312 173 266.685546875 c 2
 173 205.53125 196.314207706 160.591796875 237.873021311 132.284179688 c 0
 271.284297284 109.526367188 317.536577634 97 375.107851358 97 c 0
 433.393370623 97 479.219159031 109.967773438 511.994294012 132.984375 c 0
 552.784394429 161.629882812 575 206.764648438 575 266.685546875 c 2
 575 271.043945312 575 704.314453125 575 714 c 1
 688 714 l 1
 688 704.266601562 688 265.087890625 688 262.7890625 c 2
 688 186.995117188 667.01171875 122.958007812 626.189453125 75.2421875 c 0
 573.998000859 15.2783203125 485.389418357 -16 375.107851358 -16 c 0
 314.111282109 -16 226.816089251 -6.5947265625 156.727539062 42.7431640625 c 0
 130.446289062 62.9814453125 60 124.337890625 60 262.7890625 c 2
 60 265.087890625 60 704.266601562 60 714 c 1
 173 714 l 1
EndSplineSet
Validated: 524325
EndChar

StartChar: Uogonek
Encoding: 370 370 98
Width: 748
GlyphClass: 2
Flags: HW
LayerCount: 2
Fore
SplineSet
501.751293562 1.017578125 m 1
 486.671977258 -20.3798828125 482.211796466 -34.9677734375 482.211796466 -41.353515625 c 0
 482.211796466 -44.6845703125 482.211796466 -51.6630859375 505.071764562 -51.6630859375 c 0
 534.267450303 -51.6630859375 554.047427192 -42.5556640625 596 -22.732421875 c 1
 596 -12.732421875 596 -118.241210938 596 -128.241210938 c 1
 576.610351562 -137.919921875 549.152532927 -150.984375 501.84378579 -150.984375 c 0
 449.114994069 -150.984375 382.463038899 -129.102539062 382.463038899 -63.87890625 c 0
 382.463038899 -48.9736328125 386.063041967 -32.998046875 393.385343382 -15.6982421875 c 1
 387.332240879 -15.900390625 381.220559964 -16 375.107851358 -16 c 0
 314.111282109 -16 226.816089251 -6.5947265625 156.727539062 42.7431640625 c 0
 130.446289062 62.9814453125 60 124.337890625 60 262.7890625 c 2
 60 265.087890625 60 704.266601562 60 714 c 1
 173 714 l 1
 173 704.314453125 173 271.043945312 173 266.685546875 c 2
 173 205.53125 196.314207706 160.591796875 237.873021311 132.284179688 c 0
 271.284297284 109.526367188 317.536577634 97 375.107851358 97 c 0
 433.393370623 97 479.219159031 109.967773438 511.994294012 132.984375 c 0
 552.784394429 161.629882812 575 206.764648438 575 266.685546875 c 2
 575 271.043945312 575 704.314453125 575 714 c 1
 688 714 l 1
 688 704.272460938 688 265.901367188 688 263.331054688 c 2
 688 131.663085938 623.35546875 37.3974609375 501.751293562 1.017578125 c 1
EndSplineSet
Validated: 524325
EndChar

StartChar: Uring
Encoding: 366 366 99
Width: 748
GlyphClass: 2
Flags: HW
LayerCount: 2
Fore
SplineSet
374 975 m 0
 435.565910299 975 490.839265993 926.034179688 490.839265993 870 c 0
 490.839265993 811.506835938 435.924574607 762 374 762 c 0
 308.843335856 762 256.05391034 811.791992188 256.05391034 870 c 0
 256.05391034 925.745117188 309.196861706 975 374 975 c 0
374 892 m 0
 357.527134121 892 346.869974027 880.09375 346.869974027 870 c 0
 346.869974027 855.782226562 358.143748977 845 374 845 c 0
 387.28291169 845 400.022174616 856.037109375 400.022174616 870 c 0
 400.022174616 879.818359375 387.906720386 892 374 892 c 0
173 714 m 1
 173 704.314453125 173 271.043945312 173 266.685546875 c 2
 173 205.53125 196.314207706 160.591796875 237.873021311 132.284179688 c 0
 271.284297284 109.526367188 317.536577634 97 375.107851358 97 c 0
 433.393370623 97 479.219159031 109.967773438 511.994294012 132.984375 c 0
 552.784394429 161.629882812 575 206.764648438 575 266.685546875 c 2
 575 271.043945312 575 704.314453125 575 714 c 1
 688 714 l 1
 688 704.266601562 688 265.087890625 688 262.7890625 c 2
 688 186.995117188 667.01171875 122.958007812 626.189453125 75.2421875 c 0
 573.998000859 15.2783203125 485.389418357 -16 375.107851358 -16 c 0
 314.111282109 -16 226.816089251 -6.5947265625 156.727539062 42.7431640625 c 0
 130.446289062 62.9814453125 60 124.337890625 60 262.7890625 c 2
 60 265.087890625 60 704.266601562 60 714 c 1
 173 714 l 1
EndSplineSet
Validated: 524289
EndChar

StartChar: V
Encoding: 86 86 100
Width: 761
GlyphClass: 2
Flags: HW
LayerCount: 2
Fore
SplineSet
375.685380807 109.736328125 m 1
 396.469020792 109.736328125 l 1
 379.178412488 126.258789062 386.12489763 119.514648438 386.02138536 119.61328125 c 2
 375.685380807 109.736328125 l 1
0.8828125 699.858398438 m 0
 0.5146484375 700.916992188 0 700.963867188 0 704.276367188 c 2
 0 694.821289062 0 704.276367188 0 714 c 1
 120.701171875 714 l 1
 120.701171875 704 120.701171875 694 120.701171875 704 c 1
 190.0888965 545.076171875 340.709396819 214.223632812 386.818023905 120.129882812 c 1
 386.818023905 110.129882812 387.292962553 114.2265625 387.292962553 124.2265625 c 1
 436.740367741 226.41015625 631.069431251 654.919921875 649.526074825 702.8828125 c 0
 649.680328403 703.284179688 650.274001714 703.659179688 650.399840159 704 c 2
 670.427734375 704 l 1
 670.427734375 694 667.517578125 700.354492188 667.517578125 710.354492188 c 1
 672.139648438 708.547851562 691.833007812 706.5 710.784179688 706.5 c 0
 729.498046875 706.5 748.943359375 708.384765625 753.810546875 710.08203125 c 1
 753.810546875 700.08203125 751.139648438 694 751.139648438 704 c 1
 771.139648438 704 l 1
 771.139648438 697.178710938 728.98828125 606.32421875 609.89508319 352.981445312 c 0
 535.513398977 198.704101562 449.210551732 19.6767578125 445.507451033 7.857421875 c 1
 445.775365143 10 l 1
 424.991725158 10 l 1
 424.991725158 20 428.02605541 13.7080078125 428.02605541 3.7080078125 c 1
 423.703910747 5.416015625 404.265930265 7.5 385.556594974 7.5 c 0
 367.301901808 7.5 348.358141671 5.6669921875 343.492050181 4.0771484375 c 1
 343.492050181 14.0771484375 346.120449964 20 346.120449964 10 c 1
 325.336809979 10 l 1
 325.336809979 19.7236328125 323.162037494 23.4599609375 323.162037494 13.8427734375 c 2
 307.9812528 48.6142578125 234.527119708 201.046875 161.217091931 353.1484375 c 0
 68.3798828125 550.01953125 6.5283203125 683.625976562 0.8828125 699.858398438 c 0
EndSplineSet
Validated: 524293
EndChar

StartChar: W
Encoding: 87 87 101
Width: 1079
GlyphClass: 2
Flags: HW
LayerCount: 2
Fore
SplineSet
-23.18359375 696.44140625 m 0
 -24.2451171875 699.806640625 -25 700.025390625 -25 704.276367188 c 2
 -25 694.821289062 -25 704.276367188 -25 714 c 1
 89.0888671875 714 l 1
 89.0888671875 704 89.0888671875 694 89.0888671875 704 c 1
 115.532174347 623.678710938 235.243086177 279.967773438 284.840583832 147.2734375 c 1
 309.036738565 206.244140625 371.933395514 367.493164062 423.523457291 501.8359375 c 0
 465.94115409 612.29296875 499.688476562 704 499.688476562 704 c 1
 499.688476562 694 499.688476562 704 499.688476562 714 c 1
 607.088867188 714 l 1
 607.088867188 704 607.088867188 694 607.088867188 704 c 1
 632.244140625 623.678710938 746.124023438 279.967773438 793.305664062 147.2734375 c 1
 816.323242188 206.244140625 876.15625 367.493164062 925.233398438 501.8359375 c 0
 965.584960938 612.29296875 997.688476562 704 997.688476562 704 c 1
 1017.68847656 704 l 1
 1017.68847656 694 1014.76855469 700.266601562 1014.76855469 710.266601562 c 1
 1018.75390625 708.598632812 1037.08789062 706.5 1054.73828125 706.5 c 0
 1071.87792969 706.5 1089.65136719 708.310546875 1094.26367188 709.859375 c 1
 1094.26367188 699.859375 1091.7890625 694 1091.7890625 704 c 1
 1111.7890625 704 l 1
 1111.7890625 697.495117188 1073.05273438 597.688476562 978.301757812 353.560546875 c 0
 853.630859375 32.3408203125 849.147460938 18.7939453125 846.153320312 9.08203125 c 1
 846.23828125 9.5458984375 846.094726562 10 846.094726562 10 c 1
 826.094726562 10 l 1
 826.094726562 20 828.998046875 13.83984375 828.998046875 3.83984375 c 1
 825.662109375 5.3427734375 808.727539062 7.5 792.391601562 7.5 c 0
 776.83984375 7.5 760.7734375 5.787109375 756.424804688 4.3935546875 c 1
 756.424804688 14.3935546875 758.688476562 20 758.688476562 10 c 1
 738.688476562 10 l 1
 713.873046875 89.6572265625 600.479492188 433.63671875 553.392578125 566.7265625 c 1
 530.276367188 507.766601562 468.657447065 346.502929688 416.831275166 212.150390625 c 0
 374.217504309 101.678710938 340.326462631 10 340.326462631 10 c 1
 319.302396067 10 l 1
 319.302396067 20 322.354376042 13.8408203125 322.354376042 3.8408203125 c 1
 318.848654005 5.3427734375 301.050057028 7.5 283.87971829 7.5 c 0
 267.534738415 7.5 250.64875839 5.787109375 246.077461104 4.3935546875 c 1
 246.077461104 14.3935546875 248.457040513 20 248.457040513 10 c 1
 227.432973949 10 l 1
 227.432973949 19.7236328125 225.615952571 24.181640625 225.615952571 14.583984375 c 1
 212.19052569 53.8857421875 8.6640625 604.802734375 6.5498046875 610.767578125 c 0
 -10.0703125 657.663085938 -19.73828125 685.524414062 -23.18359375 696.44140625 c 0
563.87109375 583.48828125 m 1
 543.87109375 583.48828125 l 1
 547.233398438 580.211914062 550.477539062 576.818359375 553.913085938 573.615234375 c 1
 563.87109375 583.48828125 l 1
782.87109375 130.51171875 m 1
 802.87109375 130.51171875 l 1
 799.508789062 133.788085938 796.264648438 137.181640625 792.829101562 140.384765625 c 1
 782.87109375 130.51171875 l 1
273.871728791 130.51171875 m 1
 294.895795356 130.51171875 l 1
 291.361329478 133.788085938 287.951078055 137.181640625 284.339619746 140.384765625 c 1
 273.871728791 130.51171875 l 1
EndSplineSet
Validated: 524293
EndChar

StartChar: Wacute
Encoding: 7810 7810 102
Width: 1079
GlyphClass: 2
Flags: HW
LayerCount: 2
Fore
SplineSet
670.775390625 939 m 1
 690.775390625 939 l 1
 690.775390625 935.228515625 690.775390625 932.23828125 669.044921875 903.607421875 c 0
 666.099609375 899.727539062 565.700195312 771.54296875 549.767578125 764.399414062 c 0
 542.208984375 758.65625 520.921875 756.5 493.091765052 756.5 c 0
 434.435851216 756.5 428.6665517 765.184570312 428.6665517 774 c 1
 449.690618264 774 l 1
 445.823545083 777.919921875 441.308708914 781.22265625 437.947732648 785.625 c 1
 463.439413357 812.412109375 546.98046875 925.020507812 553.956054688 940.915039062 c 1
 553.795898438 940.158203125 553.76171875 939 553.76171875 939 c 1
 573.76171875 939 l 1
 573.76171875 929 570.961914062 935.517578125 570.961914062 945.517578125 c 1
 577.127929688 943.442382812 600.109375 941.5 622.268554688 941.5 c 0
 626.28125 941.5 660.90234375 941.6171875 673.876953125 945.53125 c 1
 673.876953125 935.53125 670.775390625 929 670.775390625 939 c 1
-23.18359375 696.44140625 m 0
 -24.2451171875 699.806640625 -25 700.025390625 -25 704.276367188 c 2
 -25 694.821289062 -25 704.276367188 -25 714 c 1
 89.0888671875 714 l 1
 89.0888671875 704 89.0888671875 694 89.0888671875 704 c 1
 115.532174347 623.678710938 235.243086177 279.967773438 284.840583832 147.2734375 c 1
 309.036738565 206.244140625 371.933395514 367.493164062 423.523457291 501.8359375 c 0
 465.94115409 612.29296875 499.688476562 704 499.688476562 704 c 1
 499.688476562 694 499.688476562 704 499.688476562 714 c 1
 607.088867188 714 l 1
 607.088867188 704 607.088867188 694 607.088867188 704 c 1
 632.244140625 623.678710938 746.124023438 279.967773438 793.305664062 147.2734375 c 1
 816.323242188 206.244140625 876.15625 367.493164062 925.233398438 501.8359375 c 0
 965.584960938 612.29296875 997.688476562 704 997.688476562 704 c 1
 1017.68847656 704 l 1
 1017.68847656 694 1014.76855469 700.266601562 1014.76855469 710.266601562 c 1
 1018.75390625 708.598632812 1037.08789062 706.5 1054.73828125 706.5 c 0
 1071.87792969 706.5 1089.65136719 708.310546875 1094.26367188 709.859375 c 1
 1094.26367188 699.859375 1091.7890625 694 1091.7890625 704 c 1
 1111.7890625 704 l 1
 1111.7890625 697.495117188 1073.05273438 597.688476562 978.301757812 353.560546875 c 0
 853.630859375 32.3408203125 849.147460938 18.7939453125 846.153320312 9.08203125 c 1
 846.23828125 9.5458984375 846.094726562 10 846.094726562 10 c 1
 826.094726562 10 l 1
 826.094726562 20 828.998046875 13.83984375 828.998046875 3.83984375 c 1
 825.662109375 5.3427734375 808.727539062 7.5 792.391601562 7.5 c 0
 776.83984375 7.5 760.7734375 5.787109375 756.424804688 4.3935546875 c 1
 756.424804688 14.3935546875 758.688476562 20 758.688476562 10 c 1
 738.688476562 10 l 1
 713.873046875 89.6572265625 600.479492188 433.63671875 553.392578125 566.7265625 c 1
 530.276367188 507.766601562 468.657447065 346.502929688 416.831275166 212.150390625 c 0
 374.217504309 101.678710938 340.326462631 10 340.326462631 10 c 1
 319.302396067 10 l 1
 319.302396067 20 322.354376042 13.8408203125 322.354376042 3.8408203125 c 1
 318.848654005 5.3427734375 301.050057028 7.5 283.87971829 7.5 c 0
 267.534738415 7.5 250.64875839 5.787109375 246.077461104 4.3935546875 c 1
 246.077461104 14.3935546875 248.457040513 20 248.457040513 10 c 1
 227.432973949 10 l 1
 227.432973949 19.7236328125 225.615952571 24.181640625 225.615952571 14.583984375 c 1
 212.19052569 53.8857421875 8.6640625 604.802734375 6.5498046875 610.767578125 c 0
 -10.0703125 657.663085938 -19.73828125 685.524414062 -23.18359375 696.44140625 c 0
563.87109375 583.48828125 m 1
 543.87109375 583.48828125 l 1
 547.233398438 580.211914062 550.477539062 576.818359375 553.913085938 573.615234375 c 1
 563.87109375 583.48828125 l 1
782.87109375 130.51171875 m 1
 802.87109375 130.51171875 l 1
 799.508789062 133.788085938 796.264648438 137.181640625 792.829101562 140.384765625 c 1
 782.87109375 130.51171875 l 1
273.871728791 130.51171875 m 1
 294.895795356 130.51171875 l 1
 291.361329478 133.788085938 287.951078055 137.181640625 284.339619746 140.384765625 c 1
 273.871728791 130.51171875 l 1
EndSplineSet
Validated: 524293
EndChar

StartChar: Wcircumflex
Encoding: 372 372 103
Width: 1079
GlyphClass: 2
Flags: HW
LayerCount: 2
Fore
SplineSet
404.859465387 793.862304688 m 0
 403.697392957 795.703125 402.299210406 798.046875 402.299210406 801.83203125 c 1
 423.32327697 801.83203125 l 1
 419.660490373 805.69140625 415.087139956 808.68359375 412.083408571 813.169921875 c 1
 436.86983861 836.436523438 517.1171875 933.756835938 525.201171875 949.8203125 c 1
 525.201171875 949.819335938 524.999023438 948 524.999023438 948 c 1
 529.89453125 948 l 1
 529.89453125 938 529.89453125 942.500976562 529.89453125 952.500976562 c 1
 536.750976562 958.569335938 544.58203125 965.5 556.842773438 965.5 c 0
 569.103515625 965.5 576.934570312 958.569335938 583.790039062 952.500976562 c 1
 583.790039062 942.500976562 583.790039062 938 583.790039062 948 c 1
 583.790039062 938 586.048828125 935.75 586.048828125 945.75 c 1
 604.077148438 917.178710938 685.268554688 817.528320312 695.802734375 810.20703125 c 1
 695.802734375 800.20703125 694.173828125 800.938476562 694.173828125 810.938476562 c 2
 691.471679688 811.341796875 l 1
 691.471679688 801.341796875 681.850585938 791.83203125 681.850585938 801.83203125 c 1
 701.850585938 801.83203125 l 1
 701.850585938 784.109375 653.43359375 757.572265625 652.850585938 757.259765625 c 0
 646.724609375 753.975585938 641.750976562 751.075195312 635.115234375 751.075195312 c 0
 629.241210938 751.075195312 623.307617188 751.544921875 589.55078125 788.338867188 c 0
 586.388671875 791.786132812 567.374023438 812.553710938 554.802734375 829.447265625 c 1
 537.845703125 806.899414062 499.479057149 765.227539062 484.874106221 755.438476562 c 0
 482.928764125 754.134765625 477.826732346 751.106445312 472.398252659 751.106445312 c 0
 456.823197097 751.106445312 413.172594832 780.690429688 404.859465387 793.862304688 c 0
537.447265625 950.5 m 1
 537.447265625 940.5 533.309570312 938 533.309570312 948 c 1
 541.501953125 948 l 1
 541.501953125 938 537.447265625 940.5 537.447265625 950.5 c 1
-23.18359375 696.44140625 m 0
 -24.2451171875 699.806640625 -25 700.025390625 -25 704.276367188 c 2
 -25 694.821289062 -25 704.276367188 -25 714 c 1
 89.0888671875 714 l 1
 89.0888671875 704 89.0888671875 694 89.0888671875 704 c 1
 115.532174347 623.678710938 235.243086177 279.967773438 284.840583832 147.2734375 c 1
 309.036738565 206.244140625 371.933395514 367.493164062 423.523457291 501.8359375 c 0
 465.94115409 612.29296875 499.688476562 704 499.688476562 704 c 1
 499.688476562 694 499.688476562 704 499.688476562 714 c 1
 607.088867188 714 l 1
 607.088867188 704 607.088867188 694 607.088867188 704 c 1
 632.244140625 623.678710938 746.124023438 279.967773438 793.305664062 147.2734375 c 1
 816.323242188 206.244140625 876.15625 367.493164062 925.233398438 501.8359375 c 0
 965.584960938 612.29296875 997.688476562 704 997.688476562 704 c 1
 1017.68847656 704 l 1
 1017.68847656 694 1014.76855469 700.266601562 1014.76855469 710.266601562 c 1
 1018.75390625 708.598632812 1037.08789062 706.5 1054.73828125 706.5 c 0
 1071.87792969 706.5 1089.65136719 708.310546875 1094.26367188 709.859375 c 1
 1094.26367188 699.859375 1091.7890625 694 1091.7890625 704 c 1
 1111.7890625 704 l 1
 1111.7890625 697.495117188 1073.05273438 597.688476562 978.301757812 353.560546875 c 0
 853.630859375 32.3408203125 849.147460938 18.7939453125 846.153320312 9.08203125 c 1
 846.23828125 9.5458984375 846.094726562 10 846.094726562 10 c 1
 826.094726562 10 l 1
 826.094726562 20 828.998046875 13.83984375 828.998046875 3.83984375 c 1
 825.662109375 5.3427734375 808.727539062 7.5 792.391601562 7.5 c 0
 776.83984375 7.5 760.7734375 5.787109375 756.424804688 4.3935546875 c 1
 756.424804688 14.3935546875 758.688476562 20 758.688476562 10 c 1
 738.688476562 10 l 1
 713.873046875 89.6572265625 600.479492188 433.63671875 553.392578125 566.7265625 c 1
 530.276367188 507.766601562 468.657447065 346.502929688 416.831275166 212.150390625 c 0
 374.217504309 101.678710938 340.326462631 10 340.326462631 10 c 1
 319.302396067 10 l 1
 319.302396067 20 322.354376042 13.8408203125 322.354376042 3.8408203125 c 1
 318.848654005 5.3427734375 301.050057028 7.5 283.87971829 7.5 c 0
 267.534738415 7.5 250.64875839 5.787109375 246.077461104 4.3935546875 c 1
 246.077461104 14.3935546875 248.457040513 20 248.457040513 10 c 1
 227.432973949 10 l 1
 227.432973949 19.7236328125 225.615952571 24.181640625 225.615952571 14.583984375 c 1
 212.19052569 53.8857421875 8.6640625 604.802734375 6.5498046875 610.767578125 c 0
 -10.0703125 657.663085938 -19.73828125 685.524414062 -23.18359375 696.44140625 c 0
563.87109375 583.48828125 m 1
 543.87109375 583.48828125 l 1
 547.233398438 580.211914062 550.477539062 576.818359375 553.913085938 573.615234375 c 1
 563.87109375 583.48828125 l 1
782.87109375 130.51171875 m 1
 802.87109375 130.51171875 l 1
 799.508789062 133.788085938 796.264648438 137.181640625 792.829101562 140.384765625 c 1
 782.87109375 130.51171875 l 1
273.871728791 130.51171875 m 1
 294.895795356 130.51171875 l 1
 291.361329478 133.788085938 287.951078055 137.181640625 284.339619746 140.384765625 c 1
 273.871728791 130.51171875 l 1
EndSplineSet
Validated: 524293
EndChar

